<?xml version="1.0" encoding="UTF-8"?>
<svg width="1500px" height="1189px" viewBox="0 0 1500 1189" version="1.1" xmlns="http://www.w3.org/2000/svg" xmlns:xlink="http://www.w3.org/1999/xlink">
    <title>Group</title>
    <defs>
        <linearGradient x1="0%" y1="105.920256%" x2="100%" y2="-5.92025608%" id="linearGradient-1">
            <stop stop-color="#E9EBFC" offset="0%"></stop>
            <stop stop-color="#F4E0FE" offset="100%"></stop>
            <stop stop-color="#E6F4FD" offset="200%"></stop>
            <stop stop-color="#E6F4FD" offset="300%"></stop>
        </linearGradient>
        <path d="M373,205 L1873,205 L1873,766.999248 C1771.905,662.716717 1656.1265,626.050463 1525.6645,657.000484 C1365.6745,694.955084 1219.969,1013.70772 1063.0855,1046.99983 C921.9745,1076.94606 767.554,966.99992 648.469,966.99992 C539.697,966.99992 447.874,1010.33328 373,1097 L373,205 Z" id="path-2"></path>
    </defs>
    <g id="Page-1" stroke="none" stroke-width="1" fill="none" fill-rule="evenodd">
        <g id="Group" transform="translate(-373.000000, -207.000000)">
            <g id="Rectangle-5-copy-2" opacity="0.5">
                <use fill="#080D42" xlink:href="#path-2"></use>
                <use fill="url(#linearGradient-1)" xlink:href="#path-2"></use>
            </g>
            <path d="M398.687184,674.125129 C487.985189,674.125129 568.829483,710.318528 627.349153,768.83593 C685.867687,827.352197 722.06235,908.191664 722.06235,997.484857 C722.06235,1086.77747 685.867544,1167.61678 627.348922,1226.13302 C568.82927,1284.65029 487.985082,1320.84379 398.687184,1320.84379 C309.38963,1320.84379 228.545643,1284.65025 170.026109,1226.13298 C111.507601,1167.61674 75.312816,1086.77745 75.312816,997.484857 C75.312816,908.191685 111.507458,827.352235 170.025879,768.835965 C228.545431,710.318564 309.389523,674.125129 398.687184,674.125129 Z" id="Ellipse-1" stroke="#FFFFFF" stroke-width="150" fill-opacity="0" fill="#000000" opacity="0.5"></path>
            <path d="M1676.70344,50.125424 C1746.11425,50.125424 1808.95404,78.2597581 1854.44113,123.74672 C1899.92819,169.233646 1928.06259,232.073194 1928.06259,301.483719 C1928.06259,370.894731 1899.92806,433.734988 1854.44081,479.222471 C1808.95378,524.709741 1746.11413,552.844426 1676.70344,552.844426 C1607.29248,552.844426 1544.45269,524.709768 1498.96556,479.222502 C1453.47823,433.735021 1425.34368,370.894749 1425.34368,301.483719 C1425.34368,232.073176 1453.4781,169.233613 1498.96524,123.746689 C1544.45242,78.259731 1607.29236,50.125424 1676.70344,50.125424 Z" id="Ellipse-1-copy" stroke="#FFFFFF" stroke-width="100" fill-opacity="0" fill="#000000" opacity="0.2"></path>
        </g>
    </g>
</svg>