<svg xmlns="http://www.w3.org/2000/svg" viewBox="0 0 2139 257" id="el_j2jtkP5By"><style>@-webkit-keyframes kf_el_nvpNw7qqmV_an_j4700XqmB{0%{-webkit-transform: translate(0px, 7.996645450592041px) translate(0px, -7.996645450592041px) translate(0px, 0px);transform: translate(0px, 7.996645450592041px) translate(0px, -7.996645450592041px) translate(0px, 0px);}50%{-webkit-transform: translate(0px, 7.996645450592041px) translate(0px, -7.996645450592041px) translate(-80px, 0px);transform: translate(0px, 7.996645450592041px) translate(0px, -7.996645450592041px) translate(-80px, 0px);}100%{-webkit-transform: translate(0px, 7.996645450592041px) translate(0px, -7.996645450592041px) translate(0px, 0px);transform: translate(0px, 7.996645450592041px) translate(0px, -7.996645450592041px) translate(0px, 0px);}}@keyframes kf_el_nvpNw7qqmV_an_j4700XqmB{0%{-webkit-transform: translate(0px, 7.996645450592041px) translate(0px, -7.996645450592041px) translate(0px, 0px);transform: translate(0px, 7.996645450592041px) translate(0px, -7.996645450592041px) translate(0px, 0px);}50%{-webkit-transform: translate(0px, 7.996645450592041px) translate(0px, -7.996645450592041px) translate(-80px, 0px);transform: translate(0px, 7.996645450592041px) translate(0px, -7.996645450592041px) translate(-80px, 0px);}100%{-webkit-transform: translate(0px, 7.996645450592041px) translate(0px, -7.996645450592041px) translate(0px, 0px);transform: translate(0px, 7.996645450592041px) translate(0px, -7.996645450592041px) translate(0px, 0px);}}@-webkit-keyframes kf_el_QA5Mc4dOZX_an_cLtYfnibI{0%{-webkit-transform: translate(0px, 15.532661437988281px) translate(0px, -15.532661437988281px) translate(0px, 0px);transform: translate(0px, 15.532661437988281px) translate(0px, -15.532661437988281px) translate(0px, 0px);}50%{-webkit-transform: translate(0px, 15.532661437988281px) translate(0px, -15.532661437988281px) translate(80px, 0px);transform: translate(0px, 15.532661437988281px) translate(0px, -15.532661437988281px) translate(80px, 0px);}100%{-webkit-transform: translate(0px, 15.532661437988281px) translate(0px, -15.532661437988281px) translate(0px, 0px);transform: translate(0px, 15.532661437988281px) translate(0px, -15.532661437988281px) translate(0px, 0px);}}@keyframes kf_el_QA5Mc4dOZX_an_cLtYfnibI{0%{-webkit-transform: translate(0px, 15.532661437988281px) translate(0px, -15.532661437988281px) translate(0px, 0px);transform: translate(0px, 15.532661437988281px) translate(0px, -15.532661437988281px) translate(0px, 0px);}50%{-webkit-transform: translate(0px, 15.532661437988281px) translate(0px, -15.532661437988281px) translate(80px, 0px);transform: translate(0px, 15.532661437988281px) translate(0px, -15.532661437988281px) translate(80px, 0px);}100%{-webkit-transform: translate(0px, 15.532661437988281px) translate(0px, -15.532661437988281px) translate(0px, 0px);transform: translate(0px, 15.532661437988281px) translate(0px, -15.532661437988281px) translate(0px, 0px);}}@-webkit-keyframes kf_el_-qvC-9Je6M_an_l6TIWi--5{0%{-webkit-transform: translate(0px, 81px) translate(0px, -81px) translate(0px, 0px);transform: translate(0px, 81px) translate(0px, -81px) translate(0px, 0px);}50%{-webkit-transform: translate(0px, 81px) translate(0px, -81px) translate(-50px, 0px);transform: translate(0px, 81px) translate(0px, -81px) translate(-50px, 0px);}100%{-webkit-transform: translate(0px, 81px) translate(0px, -81px) translate(0px, 0px);transform: translate(0px, 81px) translate(0px, -81px) translate(0px, 0px);}}@keyframes kf_el_-qvC-9Je6M_an_l6TIWi--5{0%{-webkit-transform: translate(0px, 81px) translate(0px, -81px) translate(0px, 0px);transform: translate(0px, 81px) translate(0px, -81px) translate(0px, 0px);}50%{-webkit-transform: translate(0px, 81px) translate(0px, -81px) translate(-50px, 0px);transform: translate(0px, 81px) translate(0px, -81px) translate(-50px, 0px);}100%{-webkit-transform: translate(0px, 81px) translate(0px, -81px) translate(0px, 0px);transform: translate(0px, 81px) translate(0px, -81px) translate(0px, 0px);}}@-webkit-keyframes kf_el_gvnxowjoba_an_6hGWRjyJ2{0%{-webkit-transform: translate(0px, 116px) translate(0px, -116px) translate(0px, 0px);transform: translate(0px, 116px) translate(0px, -116px) translate(0px, 0px);}50%{-webkit-transform: translate(0px, 116px) translate(0px, -116px) translate(100px, 0px);transform: translate(0px, 116px) translate(0px, -116px) translate(100px, 0px);}100%{-webkit-transform: translate(0px, 116px) translate(0px, -116px) translate(0px, 0px);transform: translate(0px, 116px) translate(0px, -116px) translate(0px, 0px);}}@keyframes kf_el_gvnxowjoba_an_6hGWRjyJ2{0%{-webkit-transform: translate(0px, 116px) translate(0px, -116px) translate(0px, 0px);transform: translate(0px, 116px) translate(0px, -116px) translate(0px, 0px);}50%{-webkit-transform: translate(0px, 116px) translate(0px, -116px) translate(100px, 0px);transform: translate(0px, 116px) translate(0px, -116px) translate(100px, 0px);}100%{-webkit-transform: translate(0px, 116px) translate(0px, -116px) translate(0px, 0px);transform: translate(0px, 116px) translate(0px, -116px) translate(0px, 0px);}}#el_j2jtkP5By *{-webkit-animation-duration: 4s;animation-duration: 4s;-webkit-animation-iteration-count: infinite;animation-iteration-count: infinite;-webkit-animation-timing-function: cubic-bezier(0, 0, 1, 1);animation-timing-function: cubic-bezier(0, 0, 1, 1);}#el_nvpNw7qqmV{fill: #e5e8ee;fill-rule: evenodd;}#el_QA5Mc4dOZX{fill-rule: evenodd;fill: #dadee5;}#el_-qvC-9Je6M{fill: #e5e8ee;fill-rule: evenodd;}#el_gvnxowjoba{fill-rule: evenodd;fill: #f8f8fd;}#el_gvnxowjoba_an_6hGWRjyJ2{-webkit-animation-fill-mode: backwards;animation-fill-mode: backwards;-webkit-transform: translate(0px, 116px) translate(0px, -116px) translate(0px, 0px);transform: translate(0px, 116px) translate(0px, -116px) translate(0px, 0px);-webkit-animation-name: kf_el_gvnxowjoba_an_6hGWRjyJ2;animation-name: kf_el_gvnxowjoba_an_6hGWRjyJ2;-webkit-animation-timing-function: cubic-bezier(0.42, 0, 0.58, 1);animation-timing-function: cubic-bezier(0.42, 0, 0.58, 1);}#el_-qvC-9Je6M_an_l6TIWi--5{-webkit-animation-fill-mode: backwards;animation-fill-mode: backwards;-webkit-transform: translate(0px, 81px) translate(0px, -81px) translate(0px, 0px);transform: translate(0px, 81px) translate(0px, -81px) translate(0px, 0px);-webkit-animation-name: kf_el_-qvC-9Je6M_an_l6TIWi--5;animation-name: kf_el_-qvC-9Je6M_an_l6TIWi--5;-webkit-animation-timing-function: cubic-bezier(0.42, 0, 0.58, 1);animation-timing-function: cubic-bezier(0.42, 0, 0.58, 1);}#el_QA5Mc4dOZX_an_cLtYfnibI{-webkit-animation-fill-mode: backwards;animation-fill-mode: backwards;-webkit-transform: translate(0px, 15.532661437988281px) translate(0px, -15.532661437988281px) translate(0px, 0px);transform: translate(0px, 15.532661437988281px) translate(0px, -15.532661437988281px) translate(0px, 0px);-webkit-animation-name: kf_el_QA5Mc4dOZX_an_cLtYfnibI;animation-name: kf_el_QA5Mc4dOZX_an_cLtYfnibI;-webkit-animation-timing-function: cubic-bezier(0.42, 0, 0.58, 1);animation-timing-function: cubic-bezier(0.42, 0, 0.58, 1);}#el_nvpNw7qqmV_an_j4700XqmB{-webkit-animation-fill-mode: backwards;animation-fill-mode: backwards;-webkit-transform: translate(0px, 7.996645450592041px) translate(0px, -7.996645450592041px) translate(0px, 0px);transform: translate(0px, 7.996645450592041px) translate(0px, -7.996645450592041px) translate(0px, 0px);-webkit-animation-name: kf_el_nvpNw7qqmV_an_j4700XqmB;animation-name: kf_el_nvpNw7qqmV_an_j4700XqmB;-webkit-animation-timing-function: cubic-bezier(0.42, 0, 0.58, 1);animation-timing-function: cubic-bezier(0.42, 0, 0.58, 1);}</style>
  <defs>
    
  </defs>
  <g id="el_nvpNw7qqmV_an_j4700XqmB" data-animator-group="true" data-animator-type="0"><path id="el_nvpNw7qqmV" data-name="Web 4" d="M0,20S41.665,36.506,141,30c93.628-6.132,95.226-21.477,196.366-22,80.373-.416,135.478,38,182,38,85.185,0,112.019-22.5,157-22.5,54.384,0,91.64,23.5,152,23.5,70.085,0,143.007-23,216-23,77,0,154.08,24,228,24,70.1,0,137.36-25,199-25,63.68,0,157.08,24.71,205.63,22,49.38-2.755,132.93-18.884,247.4-24.707C2059.22,13.434,2138.5,77,2138.5,77V257H0V20Z"/></g>
  <g id="el_QA5Mc4dOZX_an_cLtYfnibI" data-animator-group="true" data-animator-type="0"><path id="el_QA5Mc4dOZX" data-name="wave 3" d="M0,81S44.5,67.825,61,63c70.142-20.51,93.672-23,207-23,93.84,0,129.62,44.5,241.308,44.5,99.7,0,154.743-31,262-31,104.866,0,241.842,34.5,348,34.5,104.22,0,257.64-29,357.5-29C1585.2,59,1685.57,96,1782,96c140.69,0,219.36-107.492,310-74,27.86,10.3,46,30,46,30V257L0,286V81Z"/></g>
  <g id="el_-qvC-9Je6M_an_l6TIWi--5" data-animator-group="true" data-animator-type="0"><path id="el_-qvC-9Je6M" data-name="Web 2" d="M2137.5,122s-78.55-31.3-169.6-26.75c-107.66,5.38-130.29,35.288-208.77,34.75-98.19-.673-136.07-39-185.5-39-34.31,0-91.55,21-131,21-59.74,0-104.56-19-172-19-70.1,0-143.02,23-216,23-75.279,0-150.624-24-223-24-95.906,0-156.593,38-235,38-61.9,0-172.551-41.284-292.584-41.614-64.605-.178-125.133,32.644-170.7,27.742C55.724,107.776,0,81,0,81V257H2137.5V122Z"/></g>
  <g id="el_gvnxowjoba_an_6hGWRjyJ2" data-animator-group="true" data-animator-type="0"><path id="el_gvnxowjoba" data-name="Web 1" d="M0,148s33.836-32,131-32c50.313,0,103.176,22,172.006,22,84.963,0,182.076,30,286.5,30,101.566,0,210.05-30,321-30,89.176,0,187.944,40,278,40,113.16,0,217.19-40,323.5-40,98.06,0,191.26,40,276,40,83.32,0,158.46-40.145,222-40,51.07,0.117,127.99,30,127.99,30v89H0V148Z"/></g>
</svg>