<svg width="121" height="120" viewBox="0 0 121 120" fill="none" xmlns="http://www.w3.org/2000/svg">
<g clip-path="url(#clip0_1031_1538)">
<path d="M60.4876 19.631C52.737 19.631 46.4316 25.9364 46.4316 33.6867C46.4316 41.4373 52.737 47.7427 60.4876 47.7427C68.2379 47.7427 74.5433 41.4373 74.5433 33.6867C74.5433 25.9364 68.2379 19.631 60.4876 19.631ZM60.4876 42.9619C55.3733 42.9619 51.2124 38.801 51.2124 33.6867C51.2124 28.5724 55.3733 24.4118 60.4876 24.4118C65.6019 24.4118 69.7625 28.5727 69.7625 33.6867C69.7625 38.801 65.6019 42.9619 60.4876 42.9619Z" fill="#F53E72"/>
<path d="M26.8349 33.9366C20.4657 33.9366 15.2842 39.1181 15.2842 45.4873C15.2842 51.8564 20.4657 57.038 26.8349 57.038C33.204 57.038 38.3856 51.8564 38.3856 45.4873C38.3856 39.1181 33.2038 33.9366 26.8349 33.9366ZM26.8349 52.257C23.102 52.257 20.0652 49.2202 20.0652 45.4873C20.0652 41.7544 23.102 38.7176 26.8349 38.7176C30.5678 38.7176 33.6046 41.7546 33.6046 45.4873C33.6046 49.2199 30.5678 52.257 26.8349 52.257Z" fill="#F53E72"/>
<path d="M94.1738 33.9366C87.8048 33.9366 82.623 39.1181 82.623 45.4873C82.623 51.8564 87.8048 57.038 94.1738 57.038C100.543 57.038 105.724 51.8564 105.724 45.4873C105.724 39.1181 100.543 33.9366 94.1738 33.9366ZM94.1738 52.257C90.4409 52.257 87.4041 49.2202 87.4041 45.4873C87.4041 41.7544 90.4409 38.7176 94.1738 38.7176C97.9064 38.7176 100.943 41.7546 100.943 45.4873C100.943 49.2199 97.9064 52.257 94.1738 52.257Z" fill="#F53E72"/>
<path d="M118.11 95.5882H111.388V77.9883C111.388 68.4961 103.666 60.7734 94.1734 60.7734C88.8948 60.7734 84.166 63.1636 81.0059 66.9162C78.5401 57.8991 70.276 51.2515 60.4873 51.2515C50.7071 51.2515 42.4508 57.9033 39.991 66.9251C36.8354 63.1673 32.1099 60.7734 26.8351 60.7734C17.3429 60.7734 9.62 68.4961 9.62 77.9883V95.5882H2.89039C1.57016 95.5882 0.5 96.6583 0.5 97.9786C0.5 99.2988 1.57016 100.369 2.89039 100.369H118.11C119.43 100.369 120.5 99.2988 120.5 97.9786C120.5 96.6583 119.43 95.5882 118.11 95.5882ZM39.2436 95.5882H14.4008V77.9883C14.4008 71.1323 19.9787 65.5544 26.8348 65.5544C33.677 65.5544 39.2434 71.1323 39.2434 77.9883V95.5882H39.2436ZM76.959 95.5882H44.0244V72.5208C44.0244 63.4289 51.4095 56.0323 60.4873 56.0323C69.5792 56.0323 76.9759 63.4289 76.9759 72.5208L76.959 95.5882ZM106.607 95.588H81.7566V77.3384C82.0958 70.7831 87.5356 65.5542 94.1736 65.5542C101.03 65.5542 106.607 71.1321 106.607 77.988V95.588Z" fill="#F53E72"/>
<path d="M49.0339 77.2359C47.7137 77.2359 46.6436 78.3061 46.6436 79.6263V91.0964C46.6436 92.4166 47.7137 93.4868 49.0339 93.4868C50.3542 93.4868 51.4243 92.4166 51.4243 91.0964V79.6266C51.4243 78.3066 50.3542 77.2359 49.0339 77.2359Z" fill="#F53E72"/>
<path d="M49.0339 69.5894C47.7137 69.5894 46.6436 70.6596 46.6436 71.9798V72.4896C46.6436 73.8098 47.7137 74.88 49.0339 74.88C50.3542 74.88 51.4243 73.8098 51.4243 72.4896V71.9798C51.4243 70.6596 50.3542 69.5894 49.0339 69.5894Z" fill="#F53E72"/>
</g>
<defs>
<clipPath id="clip0_1031_1538">
<rect width="120" height="120" fill="white" transform="translate(0.5)"/>
</clipPath>
</defs>
</svg>
