<svg width="223" height="40" viewBox="0 0 223 40" fill="none" xmlns="http://www.w3.org/2000/svg">
<path d="M65.3867 15.2533L62.1867 12.0533H51.9467L48.64 15.2533H55.36V27.84H58.6667V15.2533H65.3867Z" fill="white"/>
<path d="M87.68 12.0533V27.84H101.013V24.64H90.9867V21.12H96.7467V17.92H90.9867V15.2533H101.12L97.92 12.0533H87.68Z" fill="white"/>
<path d="M106.133 12.0533V27.84H109.44V18.56L117.547 27.84H119.573V12.0533H116.267V21.3333L108.16 12.0533H106.133Z" fill="white"/>
<path d="M146.987 12.0533V27.84H160.32V24.64H150.293V21.12H156.053V17.92H150.293V15.2533H160.427L157.227 12.0533H146.987Z" fill="#ED2470"/>
<path d="M165.333 12.0533V27.84H168.64V18.56L173.44 25.8133L178.347 18.56V27.84H181.653V12.0533H178.773L173.44 20.16L168.107 12.0533H165.333Z" fill="#ED2470"/>
<path d="M219.2 12.0533V21.3333L211.093 12.0533H208.96V27.84H212.373V18.56L220.48 27.84H222.507V12.0533H219.2Z" fill="#ED2470"/>
<path d="M39.36 0L37.8667 1.70667V40L39.4667 38.1867V0H39.36Z" fill="white"/>
<path d="M6.29333 17.3867H2.98667V11.2L5.44 14.1867H22.5067L24.8533 11.2L24.64 17.3867H9.28V37.6533H18.6667V23.36H15.68V34.6667H12.2667V20.48L27.9467 20.3733L27.84 2.34668L21.0133 11.2H6.93333L0 2.45335V20.3733H6.29333V17.3867Z" fill="#ED2470"/>
<path d="M126.293 12.0534V27.84H133.12C134.293 27.84 135.467 27.6267 136.533 27.3067C137.493 26.9867 138.453 26.3467 139.2 25.6C139.947 24.8534 140.48 24 140.8 23.04C141.227 22.08 141.333 21.0134 141.333 19.9467C141.333 18.88 141.12 17.8134 140.8 16.8534C140.373 15.8934 139.84 15.04 139.093 14.2934C138.347 13.5467 137.493 13.0134 136.533 12.5867C135.467 12.16 134.293 11.9467 133.12 11.9467H126.293V12.0534ZM129.6 15.2534H133.12C133.867 15.2534 134.507 15.36 135.253 15.5734C135.787 15.7867 136.32 16.1067 136.747 16.5334C137.173 16.96 137.493 17.4934 137.707 18.0267C137.92 18.6667 138.027 19.3067 138.027 19.9467C138.027 20.5867 137.92 21.2267 137.707 21.8667C137.493 22.4 137.173 22.9334 136.853 23.36C136.427 23.7867 135.893 24.1067 135.36 24.32C134.72 24.5334 133.973 24.64 133.227 24.64H129.707V15.2534H129.6Z" fill="white"/>
<path d="M202.88 16.7467C202.453 15.7867 201.92 14.8267 201.173 14.08C200.427 13.3333 199.573 12.8 198.613 12.3733C197.547 11.9467 196.48 11.7333 195.413 11.7333C194.347 11.7333 193.173 11.9467 192.213 12.3733C191.253 12.8 190.4 13.3333 189.653 14.08C188.907 14.8267 188.373 15.68 187.947 16.7467C187.52 17.8133 187.307 18.88 187.307 20.0533C187.307 21.2267 187.52 22.2933 187.947 23.36C188.373 24.32 188.907 25.1733 189.653 25.92C190.4 26.6667 191.253 27.2 192.213 27.6267C193.28 28.0533 194.347 28.2667 195.413 28.2667C196.48 28.2667 197.653 28.0533 198.613 27.6267C199.573 27.2 200.427 26.6667 201.173 25.92C201.92 25.1733 202.453 24.32 202.88 23.36C203.307 22.2933 203.52 21.2267 203.52 20.0533C203.413 18.88 203.2 17.8133 202.88 16.7467ZM195.307 15.04C195.947 15.04 196.587 15.1467 197.227 15.36C197.76 15.5733 198.293 15.8933 198.72 16.4267C199.147 16.8533 199.467 17.3867 199.68 18.0267C199.893 18.6667 200 19.4133 200 20.0533C200 20.6933 199.893 21.44 199.68 22.08C199.467 22.6133 199.147 23.1467 198.72 23.68C198.293 24.1067 197.76 24.4267 197.227 24.7467C196.587 24.96 195.947 25.0667 195.307 25.0667C194.667 25.0667 194.027 24.96 193.387 24.7467C192.853 24.5333 192.32 24.2133 191.893 23.68C191.467 23.2533 191.147 22.72 190.933 22.08C190.72 21.44 190.613 20.8 190.613 20.0533C190.613 19.3067 190.72 18.6667 190.933 18.0267C191.147 17.4933 191.467 16.96 191.893 16.4267C192.32 16 192.853 15.68 193.387 15.36C194.027 15.1467 194.667 15.04 195.307 15.04Z" fill="#ED2470"/>
<path d="M67.84 12.0533V27.84H71.1467V21.6533H75.4133L78.9333 27.84H82.6667L79.04 21.3333C79.2533 21.2266 79.4667 21.12 79.68 21.0133C80.1067 20.6933 80.5333 20.3733 80.96 19.9466C81.28 19.52 81.6 19.0933 81.8133 18.56C82.0267 18.0266 82.1333 17.4933 82.1333 16.8533C82.1333 15.4666 81.7067 14.2933 80.7467 13.3333C79.68 12.3733 78.2933 12.0533 76.9067 12.0533H67.84ZM71.1467 15.2533H76.6933C77.12 15.2533 77.76 15.36 78.08 15.68C78.4 16 78.5067 16.4266 78.5067 16.8533C78.5067 18.1333 77.76 18.3466 76.5867 18.3466H71.1467V15.2533Z" fill="white"/>
</svg>
