<svg width="121" height="120" viewBox="0 0 121 120" fill="none" xmlns="http://www.w3.org/2000/svg">
<path d="M94.259 19.0814C87.366 13.2252 77.8218 10 67.3853 10C66.3068 10 65.4322 10.8746 65.4322 11.9531V18.6025C65.4322 19.6811 66.3068 20.5557 67.3853 20.5557C68.4638 20.5557 69.3384 19.6811 69.3384 18.6025V13.9473C78.0759 14.3166 85.9685 17.1637 91.7299 22.0584C98.5982 27.8937 102.229 36.4375 102.229 46.7664C102.229 61.226 94.0715 69.0975 87.0342 73.1959H76.5228V51.9777H81.0008C83.131 51.9777 85.1334 51.1484 86.6392 49.6428C88.1463 48.1357 88.9761 46.1332 88.9761 44.0043C88.9761 39.6066 85.3984 36.0289 81.0008 36.0289H80.59C76.1933 36.0289 72.6166 39.6066 72.6166 44.0043V48.0715H69.3386V36.0514C69.3386 34.9729 68.464 34.0982 67.3855 34.0982C66.307 34.0982 65.4324 34.9729 65.4324 36.0514L65.432 108.047C65.432 109.125 66.3066 110 67.3851 110H70.9765C73.3627 110 75.6058 109.071 77.2931 107.384C78.5099 106.167 79.33 104.66 79.6941 103.02H80.7824C81.3427 103.02 81.8761 102.779 82.2468 102.359L89.0187 94.6848C89.3336 94.3279 89.5074 93.8684 89.5074 93.3926V76.2713C94.4168 73.3184 98.3238 69.5586 101.132 65.0828C104.452 59.79 106.135 53.6277 106.135 46.7664C106.135 35.2555 102.028 25.6822 94.259 19.0814V19.0814ZM76.5226 44.0043C76.5226 41.7605 78.3472 39.9352 80.5898 39.9352H81.0006C83.2443 39.9352 85.0697 41.7605 85.0697 44.0043C85.0697 45.09 84.6461 46.1113 83.8769 46.8807C83.109 47.6488 82.0875 48.0717 81.0006 48.0717H76.5226V44.0043ZM69.3383 86.5275L85.6011 81.6057V88.0684L69.3383 92.9904V86.5275ZM85.6011 77.5244L69.3383 82.4463V77.1021H85.6011V77.5244ZM72.6164 51.9777V73.1961H69.3384V51.9777H72.6164ZM74.531 104.621C73.5816 105.571 72.3193 106.094 70.9765 106.094H69.3383V103.02H75.6115C75.3625 103.611 74.9982 104.154 74.531 104.621V104.621ZM79.901 99.1137H69.3383V97.0717L85.6011 92.1496V92.6541L79.901 99.1137Z" fill="#F53E72"/>
<path d="M44.5996 10C36.141 10 29.699 15.6217 29.2817 23.3672C29.1258 26.2619 29.7801 28.8762 31.2309 31.1775C28.7205 31.6447 26.3184 32.5885 24.1475 33.973C23.2381 34.5533 22.9709 35.7605 23.551 36.6701C24.1309 37.5797 25.3379 37.8471 26.2479 37.2668C28.8346 35.617 31.8317 34.7449 34.9151 34.7449C34.9356 34.7449 34.9563 34.7461 34.9768 34.7469C35.0266 34.7486 35.0766 34.7502 35.1268 34.7508C35.1348 34.751 35.1426 34.751 35.1506 34.751C35.9527 34.751 36.6748 34.2598 36.9686 33.5113C37.2652 32.7555 37.0633 31.8951 36.4613 31.35C34.0889 29.2018 33.016 26.6592 33.182 23.5777C33.4842 17.9736 38.2859 13.9062 44.5996 13.9062C52.0668 13.9062 56.0139 17.8533 56.0139 25.3205V94.6793C56.0139 102.146 52.0668 106.094 44.5996 106.094C41.6244 106.094 38.7199 105.071 36.6313 103.288C35.0592 101.946 33.185 99.5268 33.185 95.6219C33.185 93.4559 33.7322 90.4928 36.3397 88.6775C37.0449 88.1863 37.3463 87.292 37.0822 86.4744C36.818 85.6564 36.0488 85.1172 35.191 85.1217C35.1363 85.1227 35.0818 85.1246 35.0274 85.1262C34.9901 85.1275 34.9526 85.1293 34.9151 85.1293C26.0133 85.1293 18.7713 77.8873 18.7713 68.9855C18.7713 66.1529 19.5197 63.3623 20.9358 60.9154C21.2859 60.3102 21.2859 59.5641 20.9358 58.9588C19.5197 56.5119 18.7713 53.7213 18.7713 50.8887C18.7713 49.8102 17.8967 48.9355 16.8182 48.9355C15.7397 48.9355 14.8651 49.8102 14.8651 50.8887C14.8651 54.0354 15.609 57.141 17.0246 59.9371C15.609 62.7332 14.8651 65.8389 14.8651 68.9855C14.8651 78.7348 21.859 86.8811 31.0934 88.6701C29.907 90.6062 29.2787 92.9725 29.2787 95.6219C29.2787 99.8303 30.9893 103.608 34.0951 106.259C36.9209 108.671 40.6516 110 44.5996 110C54.1928 110 59.9201 104.273 59.9201 94.6795V25.3205C59.9201 15.7273 54.1928 10 44.5996 10V10Z" fill="#F53E72"/>
<path d="M51.4961 47.7888C51.4961 42.6535 47.318 38.4753 42.1826 38.4753C41.1041 38.4753 40.2295 39.35 40.2295 40.4285C40.2295 41.507 41.1041 42.3816 42.1826 42.3816C45.1643 42.3816 47.5898 44.8072 47.5898 47.7888C47.5898 48.8673 48.4645 49.7419 49.543 49.7419C50.6215 49.7419 51.4961 48.8675 51.4961 47.7888Z" fill="#F53E72"/>
<path d="M42.1943 78.5029C41.1158 78.5029 40.2412 79.3775 40.2412 80.4561C40.2412 81.5346 41.1158 82.4092 42.1943 82.4092C44.548 82.4092 46.4627 84.324 46.4627 86.6775C46.4627 87.7561 47.3373 88.6307 48.4158 88.6307C49.4943 88.6307 50.3689 87.7561 50.3689 86.6775C50.3691 82.1701 46.702 78.5029 42.1943 78.5029V78.5029Z" fill="#F53E72"/>
<path d="M37.4111 57.8567C37.4111 62.7391 33.4389 66.7114 28.5565 66.7114C27.4779 66.7114 26.6033 67.586 26.6033 68.6645C26.6033 69.743 27.4779 70.6176 28.5565 70.6176C35.5928 70.6176 41.3174 64.893 41.3174 57.8567C41.3174 56.7782 40.4428 55.9036 39.3643 55.9036C38.2858 55.9036 37.4111 56.7782 37.4111 57.8567Z" fill="#F53E72"/>
<path d="M17.5078 42.4666C17.9168 43.449 19.0742 43.9304 20.0586 43.5232C21.0416 43.1166 21.5215 41.9548 21.1152 40.9724C20.7084 39.9886 19.548 39.5089 18.5645 39.9158C17.5781 40.324 17.1037 41.4818 17.5078 42.4666V42.4666Z" fill="#F53E72"/>
<path d="M66.3008 29.0918C67.1984 29.6892 68.4517 29.4269 69.0306 28.516C69.5916 27.6332 69.3416 26.4267 68.4687 25.8437C67.5857 25.2539 66.3498 25.5005 65.7617 26.3847C65.1765 27.264 65.4113 28.5099 66.3008 29.0918V29.0918Z" fill="#F53E72"/>
</svg>
