<svg width="101" height="102" viewBox="0 0 101 102" fill="none" xmlns="http://www.w3.org/2000/svg">
<mask id="path-1-outside-1_1031_1534" maskUnits="userSpaceOnUse" x="-0.5" y="0" width="102" height="102" fill="black">
<rect fill="white" x="-0.5" width="102" height="102"/>
<path d="M22.1865 1C17.7685 1 13.4565 2.35226 9.82899 4.87401C7.94029 6.12841 9.8932 8.94123 11.7286 7.60966C14.7984 5.47566 18.4479 4.33076 22.1865 4.33076C32.3241 4.33076 40.5065 12.5133 40.5065 22.6508C40.5065 32.7884 32.3241 40.9707 22.1865 40.9707C12.0489 40.9707 3.86653 32.7884 3.86653 22.6508C3.86653 18.9111 5.01027 15.2599 7.1454 12.1896C8.47646 10.3545 5.66421 8.40173 4.40976 10.29C1.88662 13.9182 0.535606 18.2316 0.535606 22.6508C0.535606 34.5886 10.2488 44.3017 22.1865 44.3017C34.1242 44.3017 43.8374 34.5886 43.8374 22.6508C43.8374 10.7131 34.1242 1 22.1865 1ZM22.1865 7.64213C21.3536 7.64213 20.521 8.19673 20.521 9.30761V11.2236C17.6628 11.971 15.5312 14.5673 15.5312 17.6511C15.5312 21.3106 18.5205 24.313 22.18 24.313C24.0394 24.313 25.5109 25.7844 25.5109 27.6438C25.5109 29.5032 24.0394 30.978 22.18 30.978C20.3206 30.978 18.8621 29.5032 18.8621 27.6438C18.9124 25.3728 15.4802 25.3728 15.5312 27.6438C15.5312 30.7277 17.6628 33.3241 20.521 34.0716V35.9679C20.521 38.1891 23.852 38.1891 23.852 35.9679V34.0683C26.7069 33.3166 28.8451 30.7233 28.8451 27.6438C28.8451 23.9844 25.8395 20.9821 22.18 20.9821C20.3206 20.9821 18.8621 19.5106 18.8621 17.6511C18.8621 15.7918 20.3206 14.3169 22.18 14.3169C24.0394 14.3169 25.5109 15.7918 25.5109 17.6511C25.5109 19.874 28.8451 19.874 28.8451 17.6511C28.8451 14.5717 26.7069 11.9785 23.852 11.2268V9.30761C23.852 8.19704 23.0194 7.64213 22.1865 7.64213ZM78.8086 10.9861H88.3362C84.3166 16.0759 51.4421 55.9598 7.19419 55.9598C4.92371 55.9095 4.92371 59.3412 7.19419 59.2908C51.4786 59.2908 84.1654 21.5097 90.4766 13.6697V22.6541C90.527 24.8254 93.7587 24.8254 93.8075 22.6541V9.3272C93.8041 8.40743 93.0553 7.66479 92.1356 7.66825H78.729C76.6061 7.92256 76.7504 10.9292 78.8086 10.9861ZM2.2011 100.93H98.7973C101.068 100.981 101.068 97.5492 98.7973 97.5995H93.8075V55.9598C93.8201 55.0204 93.0488 54.2572 92.1095 54.2747C91.1942 54.2936 90.4661 55.0444 90.4766 55.9598V97.5995H80.4806V44.3049H90.4766V49.2948C90.4766 51.516 93.8075 51.516 93.8075 49.2948V42.6329C93.8041 41.7128 93.0556 40.9705 92.1356 40.974H78.8086C77.8933 40.9773 77.1497 41.7176 77.1465 42.6329V97.5995H70.4846V55.9598C70.4813 55.0451 69.7404 54.3045 68.8257 54.3009H55.4126C54.4745 54.3865 53.826 55.1036 53.8268 55.9598V97.5995H47.1618V69.2867C47.1651 68.367 46.4226 67.6184 45.5028 67.6147H32.176C31.2562 67.618 30.5135 68.367 30.517 69.2867V97.5995H23.852V82.6136C23.8553 81.6888 23.1049 80.9381 22.18 80.9416H8.8661C7.94129 80.9383 7.19066 81.6888 7.19419 82.6136V97.5995H2.1165C-0.133236 97.7619 0.0308644 100.988 2.2011 100.93ZM57.1578 57.6318H67.1538V97.5995H57.1578V57.6318ZM33.848 70.9457H43.8439V97.5995H33.848V70.9457ZM10.5251 84.2726H20.521V97.5995H10.5251V84.2726Z"/>
</mask>
<path d="M22.1865 1C17.7685 1 13.4565 2.35226 9.82899 4.87401C7.94029 6.12841 9.8932 8.94123 11.7286 7.60966C14.7984 5.47566 18.4479 4.33076 22.1865 4.33076C32.3241 4.33076 40.5065 12.5133 40.5065 22.6508C40.5065 32.7884 32.3241 40.9707 22.1865 40.9707C12.0489 40.9707 3.86653 32.7884 3.86653 22.6508C3.86653 18.9111 5.01027 15.2599 7.1454 12.1896C8.47646 10.3545 5.66421 8.40173 4.40976 10.29C1.88662 13.9182 0.535606 18.2316 0.535606 22.6508C0.535606 34.5886 10.2488 44.3017 22.1865 44.3017C34.1242 44.3017 43.8374 34.5886 43.8374 22.6508C43.8374 10.7131 34.1242 1 22.1865 1ZM22.1865 7.64213C21.3536 7.64213 20.521 8.19673 20.521 9.30761V11.2236C17.6628 11.971 15.5312 14.5673 15.5312 17.6511C15.5312 21.3106 18.5205 24.313 22.18 24.313C24.0394 24.313 25.5109 25.7844 25.5109 27.6438C25.5109 29.5032 24.0394 30.978 22.18 30.978C20.3206 30.978 18.8621 29.5032 18.8621 27.6438C18.9124 25.3728 15.4802 25.3728 15.5312 27.6438C15.5312 30.7277 17.6628 33.3241 20.521 34.0716V35.9679C20.521 38.1891 23.852 38.1891 23.852 35.9679V34.0683C26.7069 33.3166 28.8451 30.7233 28.8451 27.6438C28.8451 23.9844 25.8395 20.9821 22.18 20.9821C20.3206 20.9821 18.8621 19.5106 18.8621 17.6511C18.8621 15.7918 20.3206 14.3169 22.18 14.3169C24.0394 14.3169 25.5109 15.7918 25.5109 17.6511C25.5109 19.874 28.8451 19.874 28.8451 17.6511C28.8451 14.5717 26.7069 11.9785 23.852 11.2268V9.30761C23.852 8.19704 23.0194 7.64213 22.1865 7.64213ZM78.8086 10.9861H88.3362C84.3166 16.0759 51.4421 55.9598 7.19419 55.9598C4.92371 55.9095 4.92371 59.3412 7.19419 59.2908C51.4786 59.2908 84.1654 21.5097 90.4766 13.6697V22.6541C90.527 24.8254 93.7587 24.8254 93.8075 22.6541V9.3272C93.8041 8.40743 93.0553 7.66479 92.1356 7.66825H78.729C76.6061 7.92256 76.7504 10.9292 78.8086 10.9861ZM2.2011 100.93H98.7973C101.068 100.981 101.068 97.5492 98.7973 97.5995H93.8075V55.9598C93.8201 55.0204 93.0488 54.2572 92.1095 54.2747C91.1942 54.2936 90.4661 55.0444 90.4766 55.9598V97.5995H80.4806V44.3049H90.4766V49.2948C90.4766 51.516 93.8075 51.516 93.8075 49.2948V42.6329C93.8041 41.7128 93.0556 40.9705 92.1356 40.974H78.8086C77.8933 40.9773 77.1497 41.7176 77.1465 42.6329V97.5995H70.4846V55.9598C70.4813 55.0451 69.7404 54.3045 68.8257 54.3009H55.4126C54.4745 54.3865 53.826 55.1036 53.8268 55.9598V97.5995H47.1618V69.2867C47.1651 68.367 46.4226 67.6184 45.5028 67.6147H32.176C31.2562 67.618 30.5135 68.367 30.517 69.2867V97.5995H23.852V82.6136C23.8553 81.6888 23.1049 80.9381 22.18 80.9416H8.8661C7.94129 80.9383 7.19066 81.6888 7.19419 82.6136V97.5995H2.1165C-0.133236 97.7619 0.0308644 100.988 2.2011 100.93ZM57.1578 57.6318H67.1538V97.5995H57.1578V57.6318ZM33.848 70.9457H43.8439V97.5995H33.848V70.9457ZM10.5251 84.2726H20.521V97.5995H10.5251V84.2726Z" fill="#F53E72"/>
<path d="M9.82899 4.87401L10.1057 5.29061L10.1144 5.28456L9.82899 4.87401ZM11.7286 7.60966L11.4432 7.19903L11.435 7.20495L11.7286 7.60966ZM7.1454 12.1896L6.74058 11.896L6.73491 11.9042L7.1454 12.1896ZM4.40976 10.29L4.82035 10.5755L4.82623 10.5667L4.40976 10.29ZM20.521 11.2236L20.6475 11.7073L21.021 11.6096V11.2236H20.521ZM18.8621 27.6438L18.3621 27.6327V27.6438H18.8621ZM15.5312 27.6438H16.0314L16.0311 27.6326L15.5312 27.6438ZM20.521 34.0716H21.021V33.6855L20.6475 33.5878L20.521 34.0716ZM23.852 34.0683L23.7247 33.5848L23.352 33.6829V34.0683H23.852ZM23.852 11.2268H23.352V11.6122L23.7247 11.7104L23.852 11.2268ZM78.8086 10.9861L78.7948 11.4861H78.8086V10.9861ZM88.3362 10.9861L88.7286 11.296L89.3683 10.4861H88.3362V10.9861ZM7.19419 55.9598L7.1831 56.4598H7.19419V55.9598ZM7.19419 59.2908V58.7907L7.18309 58.7909L7.19419 59.2908ZM90.4766 13.6697H90.9766V12.2513L90.0871 13.3562L90.4766 13.6697ZM90.4766 22.6541H89.9765L89.9767 22.6657L90.4766 22.6541ZM93.8075 22.6541L94.3075 22.6653V22.6541H93.8075ZM93.8075 9.3272H94.3075L94.3075 9.32539L93.8075 9.3272ZM92.1356 7.66825V8.16826L92.1374 8.16825L92.1356 7.66825ZM78.729 7.66825V7.16825H78.6991L78.6695 7.1718L78.729 7.66825ZM2.2011 100.93V100.43L2.18775 100.43L2.2011 100.93ZM98.7973 100.93L98.8084 100.43H98.7973V100.93ZM98.7973 97.5995V98.0996L98.8084 98.0993L98.7973 97.5995ZM93.8075 97.5995H93.3075V98.0995H93.8075V97.5995ZM93.8075 55.9598L93.3075 55.9531V55.9598H93.8075ZM92.1095 54.2747L92.1002 53.7748L92.0992 53.7749L92.1095 54.2747ZM90.4766 55.9598H90.9766L90.9766 55.9541L90.4766 55.9598ZM90.4766 97.5995V98.0995H90.9766V97.5995H90.4766ZM80.4806 97.5995H79.9806V98.0995H80.4806V97.5995ZM80.4806 44.3049V43.8049H79.9806V44.3049H80.4806ZM90.4766 44.3049H90.9766V43.8049H90.4766V44.3049ZM93.8075 42.6329H94.3075L94.3075 42.6311L93.8075 42.6329ZM92.1356 40.974V41.474L92.1375 41.474L92.1356 40.974ZM78.8086 40.974V40.474L78.8068 40.474L78.8086 40.974ZM77.1465 42.6329L76.6465 42.6312V42.6329H77.1465ZM77.1465 97.5995V98.0995H77.6465V97.5995H77.1465ZM70.4846 97.5995H69.9846V98.0995H70.4846V97.5995ZM70.4846 55.9598H70.9846L70.9846 55.958L70.4846 55.9598ZM68.8257 54.3009L68.8277 53.8009H68.8257V54.3009ZM55.4126 54.3009V53.8009H55.3898L55.3671 53.8029L55.4126 54.3009ZM53.8268 55.9598H54.3268V55.9593L53.8268 55.9598ZM53.8268 97.5995V98.0995H54.3268V97.5995H53.8268ZM47.1618 97.5995H46.6618V98.0995H47.1618V97.5995ZM47.1618 69.2867L46.6618 69.2849V69.2867H47.1618ZM45.5028 67.6147L45.5049 67.1147H45.5028V67.6147ZM32.176 67.6147V67.1147L32.1742 67.1147L32.176 67.6147ZM30.517 69.2867H31.017L31.017 69.2848L30.517 69.2867ZM30.517 97.5995V98.0995H31.017V97.5995H30.517ZM23.852 97.5995H23.352V98.0995H23.852V97.5995ZM23.852 82.6136L23.352 82.6118V82.6136H23.852ZM22.18 80.9416V81.4416L22.1819 81.4416L22.18 80.9416ZM8.8661 80.9416L8.8643 81.4416H8.8661V80.9416ZM7.19419 82.6136H7.69419L7.69418 82.6117L7.19419 82.6136ZM7.19419 97.5995V98.0995H7.69419V97.5995H7.19419ZM2.1165 97.5995V97.0995H2.09848L2.0805 97.1008L2.1165 97.5995ZM57.1578 57.6318V57.1318H56.6578V57.6318H57.1578ZM67.1538 57.6318H67.6538V57.1318H67.1538V57.6318ZM67.1538 97.5995V98.0995H67.6538V97.5995H67.1538ZM57.1578 97.5995H56.6578V98.0995H57.1578V97.5995ZM33.848 70.9457V70.4457H33.348V70.9457H33.848ZM43.8439 70.9457H44.3439V70.4457H43.8439V70.9457ZM43.8439 97.5995V98.0995H44.3439V97.5995H43.8439ZM33.848 97.5995H33.348V98.0995H33.848V97.5995ZM10.5251 84.2726V83.7726H10.0251V84.2726H10.5251ZM20.521 84.2726H21.021V83.7726H20.521V84.2726ZM20.521 97.5995V98.0995H21.021V97.5995H20.521ZM10.5251 97.5995H10.0251V98.0995H10.5251V97.5995ZM22.1865 0.5C17.6664 0.5 13.2549 1.88351 9.54359 4.46347L10.1144 5.28456C13.6582 2.82101 17.8706 1.5 22.1865 1.5V0.5ZM9.55236 4.45751C8.96613 4.84686 8.64829 5.38324 8.57498 5.95423C8.50334 6.51213 8.66978 7.06212 8.97156 7.49674C9.27334 7.93137 9.7305 8.27949 10.2783 8.40729C10.8389 8.5381 11.4526 8.42766 12.0223 8.01438L11.435 7.20495C11.087 7.45744 10.7682 7.49474 10.5055 7.43345C10.2299 7.36915 9.97276 7.18534 9.79296 6.9264C9.61317 6.66747 9.5308 6.36227 9.56683 6.08158C9.60119 5.81398 9.7475 5.52836 10.1056 5.29052L9.55236 4.45751ZM12.014 8.02021C15.0001 5.94439 18.55 4.83076 22.1865 4.83076V3.83076C18.3458 3.83076 14.5967 5.00693 11.4432 7.19912L12.014 8.02021ZM22.1865 4.83076C32.0479 4.83076 40.0065 12.7894 40.0065 22.6508H41.0065C41.0065 12.2371 32.6002 3.83076 22.1865 3.83076V4.83076ZM40.0065 22.6508C40.0065 32.5122 32.048 40.4707 22.1865 40.4707V41.4707C32.6002 41.4707 41.0065 33.0645 41.0065 22.6508H40.0065ZM22.1865 40.4707C12.3251 40.4707 4.36653 32.5122 4.36653 22.6508H3.36653C3.36653 33.0645 11.7728 41.4707 22.1865 41.4707V40.4707ZM4.36653 22.6508C4.36653 19.0131 5.47909 15.4615 7.5559 12.4751L6.73491 11.9042C4.54144 15.0583 3.36653 18.8092 3.36653 22.6508H4.36653ZM7.55015 12.4832C7.9633 11.9136 8.07365 11.3 7.94282 10.7394C7.815 10.1917 7.46691 9.73461 7.03233 9.43284C6.59776 9.13108 6.04783 8.96462 5.48998 9.0362C4.91903 9.10945 4.38267 9.42719 3.99329 10.0133L4.82623 10.5667C5.06407 10.2087 5.34967 10.0624 5.61724 10.0281C5.8979 9.99206 6.20305 10.0744 6.46197 10.2542C6.72088 10.434 6.90468 10.6912 6.96899 10.9667C7.0303 11.2294 6.99303 11.5481 6.74066 11.8961L7.55015 12.4832ZM3.99926 10.0045C1.4178 13.7166 0.0356056 18.1296 0.0356056 22.6508H1.03561C1.03561 18.3335 2.35545 14.1198 4.82026 10.5755L3.99926 10.0045ZM0.0356056 22.6508C0.0356056 34.8647 9.97264 44.8017 22.1865 44.8017V43.8017C10.5249 43.8017 1.03561 34.3124 1.03561 22.6508H0.0356056ZM22.1865 44.8017C34.4004 44.8017 44.3374 34.8647 44.3374 22.6508H43.3374C43.3374 34.3124 33.8481 43.8017 22.1865 43.8017V44.8017ZM44.3374 22.6508C44.3374 10.4369 34.4004 0.5 22.1865 0.5V1.5C33.8481 1.5 43.3374 10.9892 43.3374 22.6508H44.3374ZM22.1865 7.14213C21.6637 7.14213 21.1244 7.31564 20.7093 7.68456C20.285 8.06167 20.021 8.61659 20.021 9.30761H21.021C21.021 8.88775 21.1734 8.60993 21.3736 8.43202C21.583 8.24592 21.8764 8.14213 22.1865 8.14213V7.14213ZM20.021 9.30761V11.2236H21.021V9.30761H20.021ZM20.3945 10.7398C17.3249 11.5425 15.0312 14.3311 15.0312 17.6511H16.0312C16.0312 14.8036 18.0006 12.3995 20.6475 11.7073L20.3945 10.7398ZM15.0312 17.6511C15.0312 21.5855 18.2431 24.813 22.18 24.813V23.813C18.7979 23.813 16.0312 21.0358 16.0312 17.6511H15.0312ZM22.18 24.813C23.7632 24.813 25.0109 26.0606 25.0109 27.6438H26.0109C26.0109 25.5083 24.3155 23.813 22.18 23.813V24.813ZM25.0109 27.6438C25.0109 29.2277 23.7626 30.478 22.18 30.478V31.478C24.3161 31.478 26.0109 29.7787 26.0109 27.6438H25.0109ZM22.18 30.478C20.6 30.478 19.3621 29.2303 19.3621 27.6438H18.3621C18.3621 29.7762 20.0413 31.478 22.18 31.478V30.478ZM19.362 27.6549C19.3776 26.9502 19.1186 26.3822 18.6911 25.9955C18.2734 25.6178 17.7261 25.4406 17.1964 25.4406C16.6668 25.4406 16.1194 25.6178 15.7018 25.9956C15.2744 26.3823 15.0155 26.9503 15.0314 27.655L16.0311 27.6326C16.0214 27.2018 16.1725 26.9183 16.3727 26.7372C16.5827 26.5472 16.8807 26.4406 17.1964 26.4406C17.5121 26.4406 17.8102 26.5472 18.0203 26.7372C18.2206 26.9184 18.3718 27.202 18.3622 27.6327L19.362 27.6549ZM15.0312 27.6438C15.0312 30.9639 17.3249 33.7525 20.3945 34.5553L20.6475 33.5878C18.0006 32.8956 16.0312 30.4914 16.0312 27.6438H15.0312ZM20.021 34.0716V35.9679H21.021V34.0716H20.021ZM20.021 35.9679C20.021 36.6589 20.285 37.2138 20.7093 37.591C21.1243 37.96 21.6636 38.1338 22.1865 38.1338C22.7094 38.1338 23.2487 37.96 23.6637 37.591C24.088 37.2138 24.352 36.6589 24.352 35.9679H23.352C23.352 36.3876 23.1996 36.6656 22.9993 36.8437C22.7898 37.03 22.4963 37.1338 22.1865 37.1338C21.8767 37.1338 21.5832 37.03 21.3737 36.8437C21.1734 36.6656 21.021 36.3876 21.021 35.9679H20.021ZM24.352 35.9679V34.0683H23.352V35.9679H24.352ZM23.9793 34.5518C27.0436 33.745 29.3451 30.9608 29.3451 27.6438H28.3451C28.3451 30.4858 26.3702 32.8882 23.7247 33.5848L23.9793 34.5518ZM29.3451 27.6438C29.3451 23.7079 26.1153 20.4821 22.18 20.4821V21.4821C25.5637 21.4821 28.3451 24.2608 28.3451 27.6438H29.3451ZM22.18 20.4821C20.5993 20.4821 19.3621 19.237 19.3621 17.6511H18.3621C18.3621 19.7841 20.0419 21.4821 22.18 21.4821V20.4821ZM19.3621 17.6511C19.3621 16.0647 20.6 14.8169 22.18 14.8169V13.8169C20.0413 13.8169 18.3621 15.5188 18.3621 17.6511H19.3621ZM22.18 14.8169C23.7626 14.8169 25.0109 16.0673 25.0109 17.6511H26.0109C26.0109 15.5163 24.3161 13.8169 22.18 13.8169V14.8169ZM25.0109 17.6511C25.0109 18.3425 25.2751 18.8978 25.6997 19.2752C26.115 19.6444 26.6547 19.8182 27.178 19.8182C27.7013 19.8182 28.2409 19.6444 28.6563 19.2752C29.0808 18.8978 29.3451 18.3425 29.3451 17.6511H28.3451C28.3451 18.0712 28.1925 18.3494 27.9919 18.5278C27.7821 18.7143 27.4882 18.8182 27.178 18.8182C26.8678 18.8182 26.5739 18.7143 26.3641 18.5278C26.1635 18.3494 26.0109 18.0712 26.0109 17.6511H25.0109ZM29.3451 17.6511C29.3451 14.3342 27.0436 11.5502 23.9793 10.7433L23.7247 11.7104C26.3702 12.4069 28.3451 14.8092 28.3451 17.6511H29.3451ZM24.352 11.2268V9.30761H23.352V11.2268H24.352ZM24.352 9.30761C24.352 8.61671 24.088 8.06182 23.6638 7.6847C23.2487 7.31576 22.7095 7.14213 22.1865 7.14213V8.14213C22.4965 8.14213 22.79 8.24595 22.9994 8.43211C23.1996 8.61009 23.352 8.88794 23.352 9.30761H24.352ZM78.8086 11.4861H88.3362V10.4861H78.8086V11.4861ZM87.9439 10.6763C85.9485 13.2028 76.7559 24.4094 62.5523 34.9805C48.3448 45.5545 29.1682 55.4598 7.19419 55.4598V56.4598C29.468 56.4598 48.8526 46.4231 63.1493 35.7827C77.4498 25.1395 86.7043 13.8592 88.7286 11.296L87.9439 10.6763ZM7.20527 55.4599C6.50067 55.4443 5.93274 55.7033 5.54619 56.1308C5.16854 56.5484 4.99133 57.0957 4.99133 57.6253C4.99133 58.1549 5.16854 58.7022 5.54619 59.1199C5.93275 59.5473 6.50068 59.8063 7.20529 59.7907L7.18309 58.7909C6.75246 58.8005 6.46896 58.6494 6.2879 58.4491C6.09793 58.2391 5.99133 57.941 5.99133 57.6253C5.99133 57.3096 6.09793 57.0116 6.28791 56.8015C6.46897 56.6012 6.75247 56.4501 7.1831 56.4597L7.20527 55.4599ZM7.19419 59.7908C29.4794 59.7908 48.8236 50.2856 63.3673 39.8262C77.9134 29.365 87.6949 17.9226 90.8661 13.9833L90.0871 13.3562C86.9471 17.2568 77.2297 28.6249 62.7834 39.0143C48.3349 49.4054 29.1934 58.7908 7.19419 58.7908V59.7908ZM89.9766 13.6697V22.6541H90.9766V13.6697H89.9766ZM89.9767 22.6657C90.0419 25.4774 94.2438 25.499 94.3073 22.6653L93.3076 22.6429C93.2737 24.1517 91.012 24.1733 90.9765 22.6425L89.9767 22.6657ZM94.3075 22.6541V9.3272H93.3075V22.6541H94.3075ZM94.3075 9.32539C94.3031 8.12918 93.3293 7.16376 92.1337 7.16826L92.1374 8.16825C92.7812 8.16583 93.3051 8.68568 93.3075 9.32901L94.3075 9.32539ZM92.1356 7.16825H78.729V8.16825H92.1356V7.16825ZM78.6695 7.1718C77.3173 7.33379 76.6652 8.4029 76.7012 9.41891C76.737 10.4297 77.4604 11.4491 78.7948 11.486L78.8225 10.4863C78.0986 10.4663 77.7208 9.95391 77.7006 9.38353C77.6806 8.81841 78.0178 8.25702 78.7884 8.1647L78.6695 7.1718ZM2.2011 101.43H98.7973V100.43H2.2011V101.43ZM98.7862 101.43C99.4908 101.446 100.059 101.187 100.445 100.759C100.823 100.342 101 99.7945 101 99.2649C101 98.7353 100.823 98.188 100.445 97.7704C100.059 97.343 99.4908 97.084 98.7863 97.0996L98.8084 98.0993C99.239 98.0898 99.5224 98.2409 99.7035 98.4411C99.8934 98.6512 100 98.9492 100 99.2649C100 99.5806 99.8934 99.8786 99.7035 100.089C99.5224 100.289 99.239 100.44 98.8084 100.43L98.7862 101.43ZM98.7973 97.0995H93.8075V98.0995H98.7973V97.0995ZM94.3075 97.5995V55.9598H93.3075V97.5995H94.3075ZM94.3074 55.9665C94.3238 54.7431 93.3203 53.7521 92.1002 53.7748L92.1188 54.7747C92.7774 54.7624 93.3163 55.2976 93.3075 55.9531L94.3074 55.9665ZM92.0992 53.7749C90.91 53.7994 89.963 54.7754 89.9766 55.9655L90.9766 55.9541C90.9693 55.3134 91.4784 54.7879 92.1198 54.7746L92.0992 53.7749ZM89.9766 55.9598V97.5995H90.9766V55.9598H89.9766ZM90.4766 97.0995H80.4806V98.0995H90.4766V97.0995ZM80.9806 97.5995V44.3049H79.9806V97.5995H80.9806ZM80.4806 44.8049H90.4766V43.8049H80.4806V44.8049ZM89.9766 44.3049V49.2948H90.9766V44.3049H89.9766ZM89.9766 49.2948C89.9766 49.9858 90.2406 50.5407 90.6648 50.9179C91.0798 51.2869 91.6191 51.4607 92.142 51.4607C92.665 51.4607 93.2042 51.2869 93.6192 50.9179C94.0435 50.5407 94.3075 49.9858 94.3075 49.2948H93.3075C93.3075 49.7145 93.1551 49.9925 92.9548 50.1706C92.7453 50.3568 92.4518 50.4607 92.142 50.4607C91.8322 50.4607 91.5388 50.3568 91.3293 50.1706C91.129 49.9925 90.9766 49.7145 90.9766 49.2948H89.9766ZM94.3075 49.2948V42.6329H93.3075V49.2948H94.3075ZM94.3075 42.6311C94.3031 41.4346 93.3297 40.4694 92.1336 40.474L92.1375 41.474C92.7816 41.4715 93.3051 41.991 93.3075 42.6347L94.3075 42.6311ZM92.1356 40.474H78.8086V41.474H92.1356V40.474ZM78.8068 40.474C77.6181 40.4783 76.6507 41.4398 76.6465 42.6312L77.6465 42.6347C77.6487 41.9955 78.1686 41.4763 78.8105 41.474L78.8068 40.474ZM76.6465 42.6329V97.5995H77.6465V42.6329H76.6465ZM77.1465 97.0995H70.4846V98.0995H77.1465V97.0995ZM70.9846 97.5995V55.9598H69.9846V97.5995H70.9846ZM70.9846 55.958C70.9803 54.7684 70.0168 53.8056 68.8277 53.8009L68.8237 54.8009C69.464 54.8034 69.9823 55.3218 69.9846 55.9616L70.9846 55.958ZM68.8257 53.8009H55.4126V54.8009H68.8257V53.8009ZM55.3671 53.8029C54.1852 53.9108 53.3258 54.8317 53.3268 55.9603L54.3268 55.9593C54.3263 55.3754 54.7638 54.8622 55.458 54.7988L55.3671 53.8029ZM53.3268 55.9598V97.5995H54.3268V55.9598H53.3268ZM53.8268 97.0995H47.1618V98.0995H53.8268V97.0995ZM47.6618 97.5995V69.2867H46.6618V97.5995H47.6618ZM47.6618 69.2885C47.6661 68.0928 46.7008 67.1195 45.5049 67.1147L45.5008 68.1147C46.1444 68.1173 46.6641 68.6411 46.6618 69.2849L47.6618 69.2885ZM45.5028 67.1147H32.176V68.1147H45.5028V67.1147ZM32.1742 67.1147C30.978 67.1191 30.0125 68.0929 30.017 69.2886L31.017 69.2848C31.0146 68.641 31.5345 68.117 32.1778 68.1147L32.1742 67.1147ZM30.017 69.2867V97.5995H31.017V69.2867H30.017ZM30.517 97.0995H23.852V98.0995H30.517V97.0995ZM24.352 97.5995V82.6136H23.352V97.5995H24.352ZM24.352 82.6154C24.3563 81.4131 23.3807 80.437 22.1781 80.4416L22.1819 81.4416C22.829 81.4391 23.3543 81.9644 23.352 82.6118L24.352 82.6154ZM22.18 80.4416H8.8661V81.4416H22.18V80.4416ZM8.8679 80.4416C7.66562 80.4373 6.68961 81.413 6.69419 82.6155L7.69418 82.6117C7.69172 81.9645 8.21697 81.4393 8.8643 81.4416L8.8679 80.4416ZM6.69419 82.6136V97.5995H7.69419V82.6136H6.69419ZM7.19419 97.0995H2.1165V98.0995H7.19419V97.0995ZM2.0805 97.1008C1.39036 97.1506 0.848935 97.4421 0.489411 97.8788C0.136273 98.3077 -0.0180004 98.8478 0.00166997 99.3664C0.0213233 99.8846 0.215702 100.409 0.595519 100.804C0.983018 101.207 1.53805 101.448 2.21445 101.43L2.18775 100.43C1.77903 100.441 1.49971 100.301 1.31637 100.111C1.12534 99.9119 1.01239 99.63 1.00095 99.3285C0.989534 99.0275 1.08042 98.7342 1.26143 98.5144C1.43606 98.3023 1.71777 98.1296 2.1525 98.0982L2.0805 97.1008ZM57.1578 58.1318H67.1538V57.1318H57.1578V58.1318ZM66.6538 57.6318V97.5995H67.6538V57.6318H66.6538ZM67.1538 97.0995H57.1578V98.0995H67.1538V97.0995ZM57.6578 97.5995V57.6318H56.6578V97.5995H57.6578ZM33.848 71.4457H43.8439V70.4457H33.848V71.4457ZM43.3439 70.9457V97.5995H44.3439V70.9457H43.3439ZM43.8439 97.0995H33.848V98.0995H43.8439V97.0995ZM34.348 97.5995V70.9457H33.348V97.5995H34.348ZM10.5251 84.7726H20.521V83.7726H10.5251V84.7726ZM20.021 84.2726V97.5995H21.021V84.2726H20.021ZM20.521 97.0995H10.5251V98.0995H20.521V97.0995ZM11.0251 97.5995V84.2726H10.0251V97.5995H11.0251Z" fill="#F53E72" mask="url(#path-1-outside-1_1031_1534)"/>
</svg>
