<svg width="121" height="120" viewBox="0 0 121 120" fill="none" xmlns="http://www.w3.org/2000/svg">
<mask id="path-1-outside-1_1031_1533" maskUnits="userSpaceOnUse" x="9.5" y="9" width="102" height="102" fill="black">
<rect fill="white" x="9.5" y="9" width="102" height="102"/>
<path d="M32.1865 10C27.7685 10 23.4565 11.3523 19.829 13.874C17.9403 15.1284 19.8932 17.9412 21.7286 16.6097C24.7984 14.4757 28.4479 13.3308 32.1865 13.3308C42.3241 13.3308 50.5065 21.5133 50.5065 31.6508C50.5065 41.7884 42.3241 49.9707 32.1865 49.9707C22.0489 49.9707 13.8665 41.7884 13.8665 31.6508C13.8665 27.9111 15.0103 24.2599 17.1454 21.1896C18.4765 19.3545 15.6642 17.4017 14.4098 19.29C11.8866 22.9182 10.5356 27.2316 10.5356 31.6508C10.5356 43.5886 20.2488 53.3017 32.1865 53.3017C44.1242 53.3017 53.8374 43.5886 53.8374 31.6508C53.8374 19.7131 44.1242 10 32.1865 10ZM32.1865 16.6421C31.3536 16.6421 30.521 17.1967 30.521 18.3076V20.2236C27.6628 20.971 25.5312 23.5673 25.5312 26.6511C25.5312 30.3106 28.5205 33.313 32.18 33.313C34.0394 33.313 35.5109 34.7844 35.5109 36.6438C35.5109 38.5032 34.0394 39.978 32.18 39.978C30.3206 39.978 28.8621 38.5032 28.8621 36.6438C28.9124 34.3728 25.4802 34.3728 25.5312 36.6438C25.5312 39.7277 27.6628 42.3241 30.521 43.0716V44.9679C30.521 47.1891 33.852 47.1891 33.852 44.9679V43.0683C36.7069 42.3166 38.8451 39.7233 38.8451 36.6438C38.8451 32.9844 35.8395 29.9821 32.18 29.9821C30.3206 29.9821 28.8621 28.5106 28.8621 26.6511C28.8621 24.7918 30.3206 23.3169 32.18 23.3169C34.0394 23.3169 35.5109 24.7918 35.5109 26.6511C35.5109 28.874 38.8451 28.874 38.8451 26.6511C38.8451 23.5717 36.7069 20.9785 33.852 20.2268V18.3076C33.852 17.197 33.0194 16.6421 32.1865 16.6421ZM88.8086 19.9861H98.3362C94.3166 25.0759 61.4421 64.9598 17.1942 64.9598C14.9237 64.9095 14.9237 68.3412 17.1942 68.2908C61.4786 68.2908 94.1654 30.5097 100.477 22.6697V31.6541C100.527 33.8254 103.759 33.8254 103.807 31.6541V18.3272C103.804 17.4074 103.055 16.6648 102.136 16.6683H88.729C86.6061 16.9226 86.7504 19.9292 88.8086 19.9861ZM12.2011 109.93H108.797C111.068 109.981 111.068 106.549 108.797 106.599H103.807V64.9598C103.82 64.0204 103.049 63.2572 102.109 63.2747C101.194 63.2936 100.466 64.0444 100.477 64.9598V106.599H90.4806V53.3049H100.477V58.2948C100.477 60.516 103.807 60.516 103.807 58.2948V51.6329C103.804 50.7128 103.056 49.9705 102.136 49.974H88.8086C87.8933 49.9773 87.1497 50.7176 87.1465 51.6329V106.599H80.4846V64.9598C80.4813 64.0451 79.7404 63.3045 78.8257 63.3009H65.4126C64.4745 63.3865 63.826 64.1036 63.8268 64.9598V106.599H57.1618V78.2867C57.1651 77.367 56.4226 76.6184 55.5028 76.6147H42.176C41.2562 76.618 40.5135 77.367 40.517 78.2867V106.599H33.852V91.6136C33.8553 90.6888 33.1049 89.9381 32.18 89.9416H18.8661C17.9413 89.9383 17.1907 90.6888 17.1942 91.6136V106.599H12.1165C9.86676 106.762 10.0309 109.988 12.2011 109.93ZM67.1578 66.6318H77.1538V106.599H67.1578V66.6318ZM43.848 79.9457H53.8439V106.599H43.848V79.9457ZM20.5251 93.2726H30.521V106.599H20.5251V93.2726Z"/>
</mask>
<path d="M32.1865 10C27.7685 10 23.4565 11.3523 19.829 13.874C17.9403 15.1284 19.8932 17.9412 21.7286 16.6097C24.7984 14.4757 28.4479 13.3308 32.1865 13.3308C42.3241 13.3308 50.5065 21.5133 50.5065 31.6508C50.5065 41.7884 42.3241 49.9707 32.1865 49.9707C22.0489 49.9707 13.8665 41.7884 13.8665 31.6508C13.8665 27.9111 15.0103 24.2599 17.1454 21.1896C18.4765 19.3545 15.6642 17.4017 14.4098 19.29C11.8866 22.9182 10.5356 27.2316 10.5356 31.6508C10.5356 43.5886 20.2488 53.3017 32.1865 53.3017C44.1242 53.3017 53.8374 43.5886 53.8374 31.6508C53.8374 19.7131 44.1242 10 32.1865 10ZM32.1865 16.6421C31.3536 16.6421 30.521 17.1967 30.521 18.3076V20.2236C27.6628 20.971 25.5312 23.5673 25.5312 26.6511C25.5312 30.3106 28.5205 33.313 32.18 33.313C34.0394 33.313 35.5109 34.7844 35.5109 36.6438C35.5109 38.5032 34.0394 39.978 32.18 39.978C30.3206 39.978 28.8621 38.5032 28.8621 36.6438C28.9124 34.3728 25.4802 34.3728 25.5312 36.6438C25.5312 39.7277 27.6628 42.3241 30.521 43.0716V44.9679C30.521 47.1891 33.852 47.1891 33.852 44.9679V43.0683C36.7069 42.3166 38.8451 39.7233 38.8451 36.6438C38.8451 32.9844 35.8395 29.9821 32.18 29.9821C30.3206 29.9821 28.8621 28.5106 28.8621 26.6511C28.8621 24.7918 30.3206 23.3169 32.18 23.3169C34.0394 23.3169 35.5109 24.7918 35.5109 26.6511C35.5109 28.874 38.8451 28.874 38.8451 26.6511C38.8451 23.5717 36.7069 20.9785 33.852 20.2268V18.3076C33.852 17.197 33.0194 16.6421 32.1865 16.6421ZM88.8086 19.9861H98.3362C94.3166 25.0759 61.4421 64.9598 17.1942 64.9598C14.9237 64.9095 14.9237 68.3412 17.1942 68.2908C61.4786 68.2908 94.1654 30.5097 100.477 22.6697V31.6541C100.527 33.8254 103.759 33.8254 103.807 31.6541V18.3272C103.804 17.4074 103.055 16.6648 102.136 16.6683H88.729C86.6061 16.9226 86.7504 19.9292 88.8086 19.9861ZM12.2011 109.93H108.797C111.068 109.981 111.068 106.549 108.797 106.599H103.807V64.9598C103.82 64.0204 103.049 63.2572 102.109 63.2747C101.194 63.2936 100.466 64.0444 100.477 64.9598V106.599H90.4806V53.3049H100.477V58.2948C100.477 60.516 103.807 60.516 103.807 58.2948V51.6329C103.804 50.7128 103.056 49.9705 102.136 49.974H88.8086C87.8933 49.9773 87.1497 50.7176 87.1465 51.6329V106.599H80.4846V64.9598C80.4813 64.0451 79.7404 63.3045 78.8257 63.3009H65.4126C64.4745 63.3865 63.826 64.1036 63.8268 64.9598V106.599H57.1618V78.2867C57.1651 77.367 56.4226 76.6184 55.5028 76.6147H42.176C41.2562 76.618 40.5135 77.367 40.517 78.2867V106.599H33.852V91.6136C33.8553 90.6888 33.1049 89.9381 32.18 89.9416H18.8661C17.9413 89.9383 17.1907 90.6888 17.1942 91.6136V106.599H12.1165C9.86676 106.762 10.0309 109.988 12.2011 109.93ZM67.1578 66.6318H77.1538V106.599H67.1578V66.6318ZM43.848 79.9457H53.8439V106.599H43.848V79.9457ZM20.5251 93.2726H30.521V106.599H20.5251V93.2726Z" fill="#F53E72"/>
<path d="M19.829 13.874L20.1057 14.2906L20.1144 14.2846L19.829 13.874ZM21.7286 16.6097L21.4432 16.199L21.435 16.2049L21.7286 16.6097ZM17.1454 21.1896L16.7406 20.896L16.7349 20.9042L17.1454 21.1896ZM14.4098 19.29L14.8203 19.5755L14.8262 19.5667L14.4098 19.29ZM30.521 20.2236L30.6475 20.7073L31.021 20.6096V20.2236H30.521ZM28.8621 36.6438L28.3621 36.6327V36.6438H28.8621ZM25.5312 36.6438H26.0314L26.0311 36.6326L25.5312 36.6438ZM30.521 43.0716H31.021V42.6855L30.6475 42.5878L30.521 43.0716ZM33.852 43.0683L33.7247 42.5848L33.352 42.6829V43.0683H33.852ZM33.852 20.2268H33.352V20.6122L33.7247 20.7104L33.852 20.2268ZM88.8086 19.9861L88.7948 20.4861H88.8086V19.9861ZM98.3362 19.9861L98.7286 20.296L99.3683 19.4861H98.3362V19.9861ZM17.1942 64.9598L17.1831 65.4598H17.1942V64.9598ZM17.1942 68.2908V67.7907L17.1831 67.7909L17.1942 68.2908ZM100.477 22.6697H100.977V21.2513L100.087 22.3562L100.477 22.6697ZM100.477 31.6541H99.9765L99.9767 31.6657L100.477 31.6541ZM103.807 31.6541L104.307 31.6653V31.6541H103.807ZM103.807 18.3272H104.307L104.307 18.3254L103.807 18.3272ZM102.136 16.6683V17.1683L102.137 17.1682L102.136 16.6683ZM88.729 16.6683V16.1683H88.6991L88.6695 16.1718L88.729 16.6683ZM12.2011 109.93V109.43L12.1877 109.43L12.2011 109.93ZM108.797 109.93L108.808 109.43H108.797V109.93ZM108.797 106.599V107.1L108.808 107.099L108.797 106.599ZM103.807 106.599H103.307V107.099H103.807V106.599ZM103.807 64.9598L103.307 64.9531V64.9598H103.807ZM102.109 63.2747L102.1 62.7748L102.099 62.7749L102.109 63.2747ZM100.477 64.9598H100.977L100.977 64.9541L100.477 64.9598ZM100.477 106.599V107.099H100.977V106.599H100.477ZM90.4806 106.599H89.9806V107.099H90.4806V106.599ZM90.4806 53.3049V52.8049H89.9806V53.3049H90.4806ZM100.477 53.3049H100.977V52.8049H100.477V53.3049ZM103.807 51.6329H104.307L104.307 51.6311L103.807 51.6329ZM102.136 49.974V50.474L102.137 50.474L102.136 49.974ZM88.8086 49.974V49.474L88.8068 49.474L88.8086 49.974ZM87.1465 51.6329L86.6465 51.6312V51.6329H87.1465ZM87.1465 106.599V107.099H87.6465V106.599H87.1465ZM80.4846 106.599H79.9846V107.099H80.4846V106.599ZM80.4846 64.9598H80.9846L80.9846 64.958L80.4846 64.9598ZM78.8257 63.3009L78.8277 62.8009H78.8257V63.3009ZM65.4126 63.3009V62.8009H65.3898L65.3671 62.8029L65.4126 63.3009ZM63.8268 64.9598H64.3268V64.9593L63.8268 64.9598ZM63.8268 106.599V107.099H64.3268V106.599H63.8268ZM57.1618 106.599H56.6618V107.099H57.1618V106.599ZM57.1618 78.2867L56.6618 78.2849V78.2867H57.1618ZM55.5028 76.6147L55.5049 76.1147H55.5028V76.6147ZM42.176 76.6147V76.1147L42.1742 76.1147L42.176 76.6147ZM40.517 78.2867H41.017L41.017 78.2848L40.517 78.2867ZM40.517 106.599V107.099H41.017V106.599H40.517ZM33.852 106.599H33.352V107.099H33.852V106.599ZM33.852 91.6136L33.352 91.6118V91.6136H33.852ZM32.18 89.9416V90.4416L32.1819 90.4416L32.18 89.9416ZM18.8661 89.9416L18.8643 90.4416H18.8661V89.9416ZM17.1942 91.6136H17.6942L17.6942 91.6117L17.1942 91.6136ZM17.1942 106.599V107.099H17.6942V106.599H17.1942ZM12.1165 106.599V106.099H12.0985L12.0805 106.101L12.1165 106.599ZM67.1578 66.6318V66.1318H66.6578V66.6318H67.1578ZM77.1538 66.6318H77.6538V66.1318H77.1538V66.6318ZM77.1538 106.599V107.099H77.6538V106.599H77.1538ZM67.1578 106.599H66.6578V107.099H67.1578V106.599ZM43.848 79.9457V79.4457H43.348V79.9457H43.848ZM53.8439 79.9457H54.3439V79.4457H53.8439V79.9457ZM53.8439 106.599V107.099H54.3439V106.599H53.8439ZM43.848 106.599H43.348V107.099H43.848V106.599ZM20.5251 93.2726V92.7726H20.0251V93.2726H20.5251ZM30.521 93.2726H31.021V92.7726H30.521V93.2726ZM30.521 106.599V107.099H31.021V106.599H30.521ZM20.5251 106.599H20.0251V107.099H20.5251V106.599ZM32.1865 9.5C27.6664 9.5 23.2549 10.8835 19.5436 13.4635L20.1144 14.2846C23.6582 11.821 27.8706 10.5 32.1865 10.5V9.5ZM19.5524 13.4575C18.9661 13.8469 18.6483 14.3832 18.575 14.9542C18.5033 15.5121 18.6698 16.0621 18.9716 16.4967C19.2733 16.9314 19.7305 17.2795 20.2783 17.4073C20.8389 17.5381 21.4526 17.4277 22.0223 17.0144L21.435 16.2049C21.087 16.4574 20.7682 16.4947 20.5055 16.4334C20.2299 16.3692 19.9728 16.1853 19.793 15.9264C19.6132 15.6675 19.5308 15.3623 19.5668 15.0816C19.6012 14.814 19.7475 14.5284 20.1056 14.2905L19.5524 13.4575ZM22.014 17.0202C25.0001 14.9444 28.55 13.8308 32.1865 13.8308V12.8308C28.3458 12.8308 24.5967 14.0069 21.4432 16.1991L22.014 17.0202ZM32.1865 13.8308C42.0479 13.8308 50.0065 21.7894 50.0065 31.6508H51.0065C51.0065 21.2371 42.6002 12.8308 32.1865 12.8308V13.8308ZM50.0065 31.6508C50.0065 41.5122 42.048 49.4707 32.1865 49.4707V50.4707C42.6002 50.4707 51.0065 42.0645 51.0065 31.6508H50.0065ZM32.1865 49.4707C22.3251 49.4707 14.3665 41.5122 14.3665 31.6508H13.3665C13.3665 42.0645 21.7728 50.4707 32.1865 50.4707V49.4707ZM14.3665 31.6508C14.3665 28.0131 15.4791 24.4615 17.5559 21.4751L16.7349 20.9042C14.5414 24.0583 13.3665 27.8092 13.3665 31.6508H14.3665ZM17.5501 21.4832C17.9633 20.9136 18.0736 20.3 17.9428 19.7394C17.815 19.1917 17.4669 18.7346 17.0323 18.4328C16.5978 18.1311 16.0478 17.9646 15.49 18.0362C14.919 18.1094 14.3827 18.4272 13.9933 19.0133L14.8262 19.5667C15.0641 19.2087 15.3497 19.0624 15.6172 19.0281C15.8979 18.9921 16.2031 19.0744 16.462 19.2542C16.7209 19.434 16.9047 19.6912 16.969 19.9667C17.0303 20.2294 16.993 20.5481 16.7407 20.8961L17.5501 21.4832ZM13.9993 19.0045C11.4178 22.7166 10.0356 27.1296 10.0356 31.6508H11.0356C11.0356 27.3335 12.3554 23.1198 14.8203 19.5755L13.9993 19.0045ZM10.0356 31.6508C10.0356 43.8647 19.9726 53.8017 32.1865 53.8017V52.8017C20.5249 52.8017 11.0356 43.3124 11.0356 31.6508H10.0356ZM32.1865 53.8017C44.4004 53.8017 54.3374 43.8647 54.3374 31.6508H53.3374C53.3374 43.3124 43.8481 52.8017 32.1865 52.8017V53.8017ZM54.3374 31.6508C54.3374 19.4369 44.4004 9.5 32.1865 9.5V10.5C43.8481 10.5 53.3374 19.9892 53.3374 31.6508H54.3374ZM32.1865 16.1421C31.6637 16.1421 31.1244 16.3156 30.7093 16.6846C30.285 17.0617 30.021 17.6166 30.021 18.3076H31.021C31.021 17.8877 31.1734 17.6099 31.3736 17.432C31.583 17.2459 31.8764 17.1421 32.1865 17.1421V16.1421ZM30.021 18.3076V20.2236H31.021V18.3076H30.021ZM30.3945 19.7398C27.3249 20.5425 25.0312 23.3311 25.0312 26.6511H26.0312C26.0312 23.8036 28.0006 21.3995 30.6475 20.7073L30.3945 19.7398ZM25.0312 26.6511C25.0312 30.5855 28.2431 33.813 32.18 33.813V32.813C28.7979 32.813 26.0312 30.0358 26.0312 26.6511H25.0312ZM32.18 33.813C33.7632 33.813 35.0109 35.0606 35.0109 36.6438H36.0109C36.0109 34.5083 34.3155 32.813 32.18 32.813V33.813ZM35.0109 36.6438C35.0109 38.2277 33.7626 39.478 32.18 39.478V40.478C34.3161 40.478 36.0109 38.7787 36.0109 36.6438H35.0109ZM32.18 39.478C30.6 39.478 29.3621 38.2303 29.3621 36.6438H28.3621C28.3621 38.7762 30.0413 40.478 32.18 40.478V39.478ZM29.362 36.6549C29.3776 35.9502 29.1186 35.3822 28.6911 34.9955C28.2734 34.6178 27.7261 34.4406 27.1964 34.4406C26.6668 34.4406 26.1194 34.6178 25.7018 34.9956C25.2744 35.3823 25.0155 35.9503 25.0314 36.655L26.0311 36.6326C26.0214 36.2018 26.1725 35.9183 26.3727 35.7372C26.5827 35.5472 26.8807 35.4406 27.1964 35.4406C27.5121 35.4406 27.8102 35.5472 28.0203 35.7372C28.2206 35.9184 28.3718 36.202 28.3622 36.6327L29.362 36.6549ZM25.0312 36.6438C25.0312 39.9639 27.3249 42.7525 30.3945 43.5553L30.6475 42.5878C28.0006 41.8956 26.0312 39.4914 26.0312 36.6438H25.0312ZM30.021 43.0716V44.9679H31.021V43.0716H30.021ZM30.021 44.9679C30.021 45.6589 30.285 46.2138 30.7093 46.591C31.1243 46.96 31.6636 47.1338 32.1865 47.1338C32.7094 47.1338 33.2487 46.96 33.6637 46.591C34.088 46.2138 34.352 45.6589 34.352 44.9679H33.352C33.352 45.3876 33.1996 45.6656 32.9993 45.8437C32.7898 46.03 32.4963 46.1338 32.1865 46.1338C31.8767 46.1338 31.5832 46.03 31.3737 45.8437C31.1734 45.6656 31.021 45.3876 31.021 44.9679H30.021ZM34.352 44.9679V43.0683H33.352V44.9679H34.352ZM33.9793 43.5518C37.0436 42.745 39.3451 39.9608 39.3451 36.6438H38.3451C38.3451 39.4858 36.3702 41.8882 33.7247 42.5848L33.9793 43.5518ZM39.3451 36.6438C39.3451 32.7079 36.1153 29.4821 32.18 29.4821V30.4821C35.5637 30.4821 38.3451 33.2608 38.3451 36.6438H39.3451ZM32.18 29.4821C30.5993 29.4821 29.3621 28.237 29.3621 26.6511H28.3621C28.3621 28.7841 30.0419 30.4821 32.18 30.4821V29.4821ZM29.3621 26.6511C29.3621 25.0647 30.6 23.8169 32.18 23.8169V22.8169C30.0413 22.8169 28.3621 24.5188 28.3621 26.6511H29.3621ZM32.18 23.8169C33.7626 23.8169 35.0109 25.0673 35.0109 26.6511H36.0109C36.0109 24.5163 34.3161 22.8169 32.18 22.8169V23.8169ZM35.0109 26.6511C35.0109 27.3425 35.2751 27.8978 35.6997 28.2752C36.115 28.6444 36.6547 28.8182 37.178 28.8182C37.7013 28.8182 38.2409 28.6444 38.6563 28.2752C39.0808 27.8978 39.3451 27.3425 39.3451 26.6511H38.3451C38.3451 27.0712 38.1925 27.3494 37.9919 27.5278C37.7821 27.7143 37.4882 27.8182 37.178 27.8182C36.8678 27.8182 36.5739 27.7143 36.3641 27.5278C36.1635 27.3494 36.0109 27.0712 36.0109 26.6511H35.0109ZM39.3451 26.6511C39.3451 23.3342 37.0436 20.5502 33.9793 19.7433L33.7247 20.7104C36.3702 21.4069 38.3451 23.8092 38.3451 26.6511H39.3451ZM34.352 20.2268V18.3076H33.352V20.2268H34.352ZM34.352 18.3076C34.352 17.6167 34.088 17.0618 33.6638 16.6847C33.2487 16.3158 32.7095 16.1421 32.1865 16.1421V17.1421C32.4965 17.1421 32.79 17.2459 32.9994 17.4321C33.1996 17.6101 33.352 17.8879 33.352 18.3076H34.352ZM88.8086 20.4861H98.3362V19.4861H88.8086V20.4861ZM97.9439 19.6763C95.9485 22.2028 86.7559 33.4094 72.5523 43.9805C58.3448 54.5545 39.1682 64.4598 17.1942 64.4598V65.4598C39.468 65.4598 58.8526 55.4231 73.1493 44.7827C87.4498 34.1395 96.7043 22.8592 98.7286 20.296L97.9439 19.6763ZM17.2053 64.4599C16.5007 64.4443 15.9327 64.7033 15.5462 65.1308C15.1685 65.5484 14.9913 66.0957 14.9913 66.6253C14.9913 67.1549 15.1685 67.7022 15.5462 68.1199C15.9327 68.5473 16.5007 68.8063 17.2053 68.7907L17.1831 67.7909C16.7525 67.8005 16.469 67.6494 16.2879 67.4491C16.0979 67.2391 15.9913 66.941 15.9913 66.6253C15.9913 66.3096 16.0979 66.0116 16.2879 65.8015C16.469 65.6012 16.7525 65.4501 17.1831 65.4597L17.2053 64.4599ZM17.1942 68.7908C39.4794 68.7908 58.8236 59.2856 73.3673 48.8262C87.9134 38.365 97.6949 26.9226 100.866 22.9833L100.087 22.3562C96.9471 26.2568 87.2297 37.6249 72.7834 48.0143C58.3349 58.4054 39.1934 67.7908 17.1942 67.7908V68.7908ZM99.9766 22.6697V31.6541H100.977V22.6697H99.9766ZM99.9767 31.6657C100.042 34.4774 104.244 34.499 104.307 31.6653L103.308 31.6429C103.274 33.1517 101.012 33.1733 100.976 31.6425L99.9767 31.6657ZM104.307 31.6541V18.3272H103.307V31.6541H104.307ZM104.307 18.3254C104.303 17.1292 103.329 16.1638 102.134 16.1683L102.137 17.1682C102.781 17.1658 103.305 17.6857 103.307 18.329L104.307 18.3254ZM102.136 16.1683H88.729V17.1683H102.136V16.1683ZM88.6695 16.1718C87.3173 16.3338 86.6652 17.4029 86.7012 18.4189C86.737 19.4297 87.4604 20.4491 88.7948 20.486L88.8225 19.4863C88.0986 19.4663 87.7208 18.9539 87.7006 18.3835C87.6806 17.8184 88.0178 17.257 88.7884 17.1647L88.6695 16.1718ZM12.2011 110.43H108.797V109.43H12.2011V110.43ZM108.786 110.43C109.491 110.446 110.059 110.187 110.445 109.759C110.823 109.342 111 108.794 111 108.265C111 107.735 110.823 107.188 110.445 106.77C110.059 106.343 109.491 106.084 108.786 106.1L108.808 107.099C109.239 107.09 109.522 107.241 109.703 107.441C109.893 107.651 110 107.949 110 108.265C110 108.581 109.893 108.879 109.703 109.089C109.522 109.289 109.239 109.44 108.808 109.43L108.786 110.43ZM108.797 106.099H103.807V107.099H108.797V106.099ZM104.307 106.599V64.9598H103.307V106.599H104.307ZM104.307 64.9665C104.324 63.7431 103.32 62.7521 102.1 62.7748L102.119 63.7747C102.777 63.7624 103.316 64.2976 103.308 64.9531L104.307 64.9665ZM102.099 62.7749C100.91 62.7994 99.963 63.7754 99.9766 64.9655L100.977 64.9541C100.969 64.3134 101.478 63.7879 102.12 63.7746L102.099 62.7749ZM99.9766 64.9598V106.599H100.977V64.9598H99.9766ZM100.477 106.099H90.4806V107.099H100.477V106.099ZM90.9806 106.599V53.3049H89.9806V106.599H90.9806ZM90.4806 53.8049H100.477V52.8049H90.4806V53.8049ZM99.9766 53.3049V58.2948H100.977V53.3049H99.9766ZM99.9766 58.2948C99.9766 58.9858 100.241 59.5407 100.665 59.9179C101.08 60.2869 101.619 60.4607 102.142 60.4607C102.665 60.4607 103.204 60.2869 103.619 59.9179C104.043 59.5407 104.307 58.9858 104.307 58.2948H103.307C103.307 58.7145 103.155 58.9925 102.955 59.1706C102.745 59.3568 102.452 59.4607 102.142 59.4607C101.832 59.4607 101.539 59.3568 101.329 59.1706C101.129 58.9925 100.977 58.7145 100.977 58.2948H99.9766ZM104.307 58.2948V51.6329H103.307V58.2948H104.307ZM104.307 51.6311C104.303 50.4346 103.33 49.4694 102.134 49.474L102.137 50.474C102.782 50.4715 103.305 50.991 103.307 51.6347L104.307 51.6311ZM102.136 49.474H88.8086V50.474H102.136V49.474ZM88.8068 49.474C87.6181 49.4783 86.6507 50.4398 86.6465 51.6312L87.6465 51.6347C87.6487 50.9955 88.1686 50.4763 88.8105 50.474L88.8068 49.474ZM86.6465 51.6329V106.599H87.6465V51.6329H86.6465ZM87.1465 106.099H80.4846V107.099H87.1465V106.099ZM80.9846 106.599V64.9598H79.9846V106.599H80.9846ZM80.9846 64.958C80.9803 63.7684 80.0168 62.8056 78.8277 62.8009L78.8237 63.8009C79.464 63.8034 79.9823 64.3218 79.9846 64.9616L80.9846 64.958ZM78.8257 62.8009H65.4126V63.8009H78.8257V62.8009ZM65.3671 62.8029C64.1852 62.9108 63.3258 63.8317 63.3268 64.9603L64.3268 64.9593C64.3263 64.3754 64.7638 63.8622 65.458 63.7988L65.3671 62.8029ZM63.3268 64.9598V106.599H64.3268V64.9598H63.3268ZM63.8268 106.099H57.1618V107.099H63.8268V106.099ZM57.6618 106.599V78.2867H56.6618V106.599H57.6618ZM57.6618 78.2885C57.6661 77.0928 56.7008 76.1195 55.5049 76.1147L55.5008 77.1147C56.1444 77.1173 56.6641 77.6411 56.6618 78.2849L57.6618 78.2885ZM55.5028 76.1147H42.176V77.1147H55.5028V76.1147ZM42.1742 76.1147C40.978 76.1191 40.0125 77.0929 40.017 78.2886L41.017 78.2848C41.0146 77.641 41.5345 77.117 42.1778 77.1147L42.1742 76.1147ZM40.017 78.2867V106.599H41.017V78.2867H40.017ZM40.517 106.099H33.852V107.099H40.517V106.099ZM34.352 106.599V91.6136H33.352V106.599H34.352ZM34.352 91.6154C34.3563 90.4131 33.3807 89.437 32.1781 89.4416L32.1819 90.4416C32.829 90.4391 33.3543 90.9644 33.352 91.6118L34.352 91.6154ZM32.18 89.4416H18.8661V90.4416H32.18V89.4416ZM18.8679 89.4416C17.6656 89.4373 16.6896 90.413 16.6942 91.6155L17.6942 91.6117C17.6917 90.9645 18.217 90.4393 18.8643 90.4416L18.8679 89.4416ZM16.6942 91.6136V106.599H17.6942V91.6136H16.6942ZM17.1942 106.099H12.1165V107.099H17.1942V106.099ZM12.0805 106.101C11.3904 106.151 10.8489 106.442 10.4894 106.879C10.1363 107.308 9.982 107.848 10.0017 108.366C10.0213 108.885 10.2157 109.409 10.5955 109.804C10.983 110.207 11.538 110.448 12.2145 110.43L12.1877 109.43C11.779 109.441 11.4997 109.301 11.3164 109.111C11.1253 108.912 11.0124 108.63 11.001 108.329C10.9895 108.028 11.0804 107.734 11.2614 107.514C11.4361 107.302 11.7178 107.13 12.1525 107.098L12.0805 106.101ZM67.1578 67.1318H77.1538V66.1318H67.1578V67.1318ZM76.6538 66.6318V106.599H77.6538V66.6318H76.6538ZM77.1538 106.099H67.1578V107.099H77.1538V106.099ZM67.6578 106.599V66.6318H66.6578V106.599H67.6578ZM43.848 80.4457H53.8439V79.4457H43.848V80.4457ZM53.3439 79.9457V106.599H54.3439V79.9457H53.3439ZM53.8439 106.099H43.848V107.099H53.8439V106.099ZM44.348 106.599V79.9457H43.348V106.599H44.348ZM20.5251 93.7726H30.521V92.7726H20.5251V93.7726ZM30.021 93.2726V106.599H31.021V93.2726H30.021ZM30.521 106.099H20.5251V107.099H30.521V106.099ZM21.0251 106.599V93.2726H20.0251V106.599H21.0251Z" fill="#F53E72" mask="url(#path-1-outside-1_1031_1533)"/>
</svg>
