<?xml version="1.0" standalone="no"?>
<!DOCTYPE svg PUBLIC "-//W3C//DTD SVG 20010904//EN"
 "http://www.w3.org/TR/2001/REC-SVG-20010904/DTD/svg10.dtd">
<svg version="1.0" xmlns="http://www.w3.org/2000/svg"
 width="175.000000pt" height="31.000000pt" viewBox="0 0 175.000000 31.000000"
 preserveAspectRatio="xMidYMid meet">

<g transform="translate(0.000000,31.000000) scale(0.100000,-0.100000)"
fill="#000000" stroke="none">
<path d="M0 223 c0 -62 0 -63 28 -63 23 1 24 2 10 11 -10 5 -18 19 -18 29 0
21 15 27 25 10 9 -14 128 -13 143 2 9 9 12 6 12 -15 0 -26 -1 -27 -60 -27
l-60 0 0 -76 0 -75 33 3 c30 3 32 5 35 47 2 24 -2 49 -7 54 -8 8 -11 -3 -11
-36 0 -35 -4 -47 -15 -47 -12 0 -15 13 -15 60 l0 60 60 0 60 0 0 58 -1 57 -24
-27 c-21 -25 -31 -28 -82 -28 -53 0 -60 2 -85 32 l-27 33 -1 -62z"/>
<path d="M1160 155 l0 -55 51 0 c31 0 48 4 44 10 -3 6 -22 10 -41 10 -24 0
-34 5 -34 15 0 8 9 15 20 15 11 0 20 5 20 10 0 6 -9 10 -20 10 -11 0 -20 5
-20 10 0 6 16 10 36 10 21 0 33 4 29 10 -3 6 -24 10 -46 10 l-39 0 0 -55z"/>
<path d="M1300 155 c0 -30 5 -55 10 -55 6 0 10 14 10 30 0 35 10 38 28 9 l13
-20 19 23 19 23 1 -32 c0 -18 5 -33 10 -33 6 0 10 25 10 55 0 30 -4 55 -9 55
-5 0 -18 -14 -29 -31 l-19 -31 -22 31 c-12 17 -27 31 -32 31 -5 0 -9 -25 -9
-55z"/>
<path d="M1483 184 c-15 -24 -15 -29 -2 -53 10 -18 24 -27 47 -29 43 -4 62 12
62 52 0 41 -16 56 -57 56 -24 0 -37 -7 -50 -26z m87 -29 c0 -14 -8 -29 -19
-35 -45 -23 -81 30 -41 62 28 23 60 8 60 -27z"/>
<path d="M1640 155 c0 -30 5 -55 10 -55 6 0 10 14 10 30 0 17 4 30 8 30 5 0
21 -13 37 -30 16 -16 32 -30 37 -30 4 0 8 25 8 55 0 42 -3 55 -15 55 -10 0
-15 -10 -15 -32 l0 -32 -33 32 c-18 18 -36 32 -40 32 -4 0 -7 -25 -7 -55z"/>
</g>
</svg>
