<svg width="121" height="120" viewBox="0 0 121 120" fill="none" xmlns="http://www.w3.org/2000/svg">
<path d="M68.834 110H52.1668C51.0171 110 50.084 109.068 50.084 107.916C50.084 106.764 51.0171 105.834 52.1668 105.834H68.834C69.986 105.834 70.9168 106.764 70.9168 107.916C70.9168 109.068 69.986 110 68.834 110Z" fill="#F53E72"/>
<path d="M68.8336 110C67.6815 110 66.75 109.068 66.75 107.916V91.25C66.75 90.098 67.6815 89.1664 68.8336 89.1664C69.9856 89.1664 70.9164 90.098 70.9164 91.25V107.916C70.9164 109.068 69.9856 110 68.8336 110Z" fill="#F53E72"/>
<path d="M52.1668 110C51.0171 110 50.084 109.068 50.084 107.916V91.25C50.084 90.098 51.0171 89.1664 52.1668 89.1664C53.3173 89.1664 54.2504 90.098 54.2504 91.25V107.916C54.2504 109.068 53.3173 110 52.1668 110Z" fill="#F53E72"/>
<path d="M60.4996 110C59.3499 110 58.416 109.068 58.416 107.916V99.5836C58.416 98.4315 59.3499 97.5 60.4996 97.5C61.6494 97.5 62.5832 98.4315 62.5832 99.5836V107.916C62.5832 109.068 61.6494 110 60.4996 110Z" fill="#F53E72"/>
<path d="M77.1664 97.5H68.8336C67.6815 97.5 66.75 96.5685 66.75 95.4164C66.75 94.2644 67.6815 93.3336 68.8336 93.3336H75.0836V72.5C75.0836 67.9041 71.3459 64.1664 66.75 64.1664H54.25C49.6541 64.1664 45.9164 67.9041 45.9164 72.5V93.3336H52.1664C53.3169 93.3336 54.25 94.2644 54.25 95.4164C54.25 96.5685 53.3169 97.5 52.1664 97.5H43.8336C42.6831 97.5 41.75 96.5685 41.75 95.4164V72.5C41.75 65.6061 47.3561 60 54.25 60H66.75C73.6439 60 79.25 65.6061 79.25 72.5V95.4164C79.25 96.5685 78.3185 97.5 77.1664 97.5Z" fill="#F53E72"/>
<path d="M60.5004 55.8336C54.757 55.8336 50.084 51.1606 50.084 45.4164C50.084 39.673 54.757 35 60.5004 35C66.2438 35 70.9168 39.673 70.9168 45.4164C70.9168 51.1606 66.2438 55.8336 60.5004 55.8336ZM60.5004 39.1664C57.0542 39.1664 54.2504 41.971 54.2504 45.4164C54.2504 48.8626 57.0542 51.6664 60.5004 51.6664C63.9466 51.6664 66.7504 48.8626 66.7504 45.4164C66.7504 41.971 63.9466 39.1664 60.5004 39.1664Z" fill="#F53E72"/>
<path d="M88.3256 65.9708C88.1524 65.9708 87.9777 65.9479 87.8045 65.9059L80.8129 64.1023C79.7005 63.8124 79.0299 62.6772 79.3152 61.5625C79.6044 60.4478 80.7419 59.781 81.8543 60.0664L87.3131 61.4748L87.9006 60.4585L84.3087 55.9C83.8647 55.3354 83.7441 54.5793 83.9883 53.9018C84.4735 52.5629 84.842 51.1873 85.0876 49.8125C85.2151 49.1045 85.6965 48.5101 86.3648 48.2439L91.7504 46.0893V44.7435L86.3671 42.5897C85.698 42.3227 85.2128 41.7268 85.0899 41.0188C84.8481 39.6539 84.4773 38.2791 83.9898 36.931C83.7464 36.2543 83.8669 35.4982 84.311 34.9336L87.9021 30.3751L87.2292 29.2085L81.498 30.0333C80.7793 30.1378 80.0713 29.8624 79.609 29.3146C78.698 28.2358 77.6879 27.2249 76.6022 26.3063C76.0522 25.844 75.7813 25.1291 75.8835 24.4188L76.7106 18.6899L75.5417 18.0185L70.9839 21.6066C70.4194 22.0499 69.661 22.1712 68.9881 21.9293C67.6507 21.4456 66.2751 21.0748 64.8942 20.8292C64.1877 20.7018 63.5941 20.2211 63.3279 19.552L61.1733 14.1664H59.8275L57.6729 19.5497C57.4067 20.2188 56.8108 20.7018 56.1028 20.8269C54.7379 21.0687 53.3631 21.4372 52.015 21.927C51.3383 22.1712 50.5837 22.0522 50.0168 21.6043L45.459 18.0185L44.2917 18.6914L45.1172 24.4211C45.2195 25.1314 44.9486 25.8455 44.3986 26.3101C43.3152 27.2226 42.3043 28.2358 41.3903 29.3184C40.9257 29.8685 40.2024 30.1355 39.5005 30.0378L33.7716 29.2123L33.0987 30.3789L36.686 34.9374C37.1316 35.502 37.2521 36.2581 37.0087 36.9356C36.525 38.2707 36.1542 39.6455 35.9086 41.0272C35.7819 41.7352 35.3005 42.3273 34.6314 42.5935L29.2504 44.7435V46.0893L34.6337 48.2439C35.3028 48.5101 35.7857 49.106 35.9109 49.8148C36.1527 51.1751 36.5212 52.5499 37.011 53.9018C37.2544 54.5793 37.1339 55.3331 36.6875 55.8977L33.1002 60.4562L33.6861 61.4732L39.1442 60.0648C40.2627 59.7795 41.3964 60.4478 41.6817 61.5602C41.9694 62.6749 41.298 63.8101 40.1856 64.1L33.194 65.9044C32.2945 66.131 31.3378 65.7396 30.8694 64.9271L28.7858 61.3191C28.3608 60.5814 28.4272 59.6582 28.9544 58.9876L32.7172 54.2085C32.4525 53.3731 32.2251 52.5316 32.0382 51.6916L26.3924 49.4356C25.6028 49.119 25.084 48.3522 25.084 47.5V43.3336C25.084 42.4814 25.6028 41.7146 26.3924 41.398L32.0382 39.1397C32.2251 38.2936 32.4525 37.4521 32.7149 36.6228L28.9529 31.8437C28.4272 31.1731 28.3631 30.2499 28.7881 29.5122L30.8709 25.9042C31.2981 25.1665 32.1442 24.7667 32.9735 24.8834L38.9817 25.7501C39.5714 25.1062 40.1902 24.4875 40.8341 23.8977L39.9674 17.8896C39.8438 17.0457 40.2505 16.2149 40.9882 15.7877L44.5962 13.7041C45.3339 13.2791 46.2548 13.344 46.9277 13.8727L51.7068 17.6355C52.5399 17.3708 53.3814 17.1434 54.2237 16.9565L56.4797 11.3107C56.8001 10.5188 57.5646 10 58.4168 10H62.584C63.4362 10 64.2007 10.5188 64.5188 11.3084L66.7771 16.9542C67.6209 17.1419 68.4647 17.3685 69.294 17.6309L74.0754 13.8689C74.7422 13.3417 75.6692 13.2768 76.4046 13.7003L80.0126 15.7831C80.7503 16.2103 81.1547 17.0419 81.0334 17.8857L80.1667 23.8977C80.8129 24.4875 81.4294 25.1085 82.0191 25.7501L88.0295 24.8834C88.8772 24.7644 89.7065 25.1665 90.1314 25.9042L92.215 29.5122C92.64 30.2499 92.5751 31.1731 92.0479 31.8437L88.2836 36.6228C88.5506 37.4559 88.7757 38.2982 88.9626 39.1397L94.6068 41.3957C95.398 41.7146 95.9168 42.4814 95.9168 43.3336V47.5C95.9168 48.3522 95.398 49.119 94.6068 49.4356L88.9611 51.6939C88.7734 52.5377 88.5483 53.3792 88.2836 54.2101L92.0479 58.9899C92.5751 59.6582 92.64 60.5836 92.215 61.3206L90.1314 64.9294C89.7523 65.5855 89.0565 65.9708 88.3256 65.9708Z" fill="#F53E72"/>
<path d="M41.7496 47.5C40.5999 47.5 39.666 46.5669 39.666 45.4164C39.666 33.9288 49.012 24.5836 60.4996 24.5836C61.6494 24.5836 62.5832 25.5167 62.5832 26.6664C62.5832 27.8169 61.6494 28.75 60.4996 28.75C51.31 28.75 43.8332 36.2268 43.8332 45.4164C43.8332 46.5669 42.8994 47.5 41.7496 47.5Z" fill="#F53E72"/>
<path d="M77.1645 55.8336C76.8516 55.8336 76.5327 55.7626 76.2352 55.6146C75.206 55.0996 74.7894 53.8499 75.3036 52.8207C76.5205 50.3793 77.166 47.8189 77.166 45.4164C77.166 43.0147 76.5205 40.4542 75.3014 38.0144C74.7871 36.9852 75.2037 35.7332 76.2329 35.2205C77.2598 34.7063 78.5164 35.1251 79.0291 36.1543C80.558 39.2107 81.3332 42.3288 81.3332 45.4164C81.3332 48.504 80.558 51.6229 79.0306 54.6815C78.6659 55.4102 77.9289 55.8336 77.1645 55.8336Z" fill="#F53E72"/>
</svg>
