<svg width="800" height="24" viewBox="0 0 800 24" fill="none" xmlns="http://www.w3.org/2000/svg">
<path d="M40.416 0C39.52 3.776 38.624 7.80801 37.728 12.096C36.896 16.384 36.224 20.192 35.712 23.52H22.56L21.888 22.464C22.784 19.072 23.968 15.36 25.44 11.328C26.976 7.296 28.544 3.52 30.144 0H40.416ZM18.528 0C17.632 3.776 16.736 7.80801 15.84 12.096C15.008 16.384 14.336 20.192 13.824 23.52H0.671997L0 22.464C0.896 19.072 2.08 15.36 3.552 11.328C5.088 7.296 6.65598 3.52 8.25598 0H18.528Z" fill="#F53E72"/>
<path d="M50.4158 11.76L276.424 11.76" stroke="#F53E72" stroke-width="2"/>
</svg>
