<svg width="121" height="120" viewBox="0 0 121 120" fill="none" xmlns="http://www.w3.org/2000/svg">
<mask id="path-1-outside-1_1031_1520" maskUnits="userSpaceOnUse" x="11" y="15.2744" width="50" height="50" fill="black">
<rect fill="white" x="11" y="15.2744" width="50" height="50"/>
<path fill-rule="evenodd" clip-rule="evenodd" d="M56.7747 40.2739C56.7744 28.8006 47.4734 19.4997 36 19.4997C24.5264 19.4997 15.2253 28.8008 15.2253 40.2744C15.2253 51.7478 24.5262 61.0488 35.9995 61.0491M56.7747 40.2739C56.7615 51.7419 47.4675 61.0359 35.9995 61.0491L56.7747 40.2739ZM60 40.2744C60 27.0196 49.2548 16.2744 36 16.2744C22.7452 16.2744 12 27.0196 12 40.2744C12 53.5292 22.7452 64.2744 36 64.2744C49.2494 64.2612 59.9868 53.5237 60 40.2744Z"/>
</mask>
<path fill-rule="evenodd" clip-rule="evenodd" d="M56.7747 40.2739C56.7744 28.8006 47.4734 19.4997 36 19.4997C24.5264 19.4997 15.2253 28.8008 15.2253 40.2744C15.2253 51.7478 24.5262 61.0488 35.9995 61.0491M56.7747 40.2739C56.7615 51.7419 47.4675 61.0359 35.9995 61.0491L56.7747 40.2739ZM60 40.2744C60 27.0196 49.2548 16.2744 36 16.2744C22.7452 16.2744 12 27.0196 12 40.2744C12 53.5292 22.7452 64.2744 36 64.2744C49.2494 64.2612 59.9868 53.5237 60 40.2744Z" fill="#F53E72"/>
<path d="M56.7747 40.2739L57.2747 40.2745V40.2739L56.7747 40.2739ZM35.9995 61.0491L35.9995 61.5491H36.0001L35.9995 61.0491ZM60 40.2744L60.5 40.2749V40.2744H60ZM36 64.2744V64.7744H36.0005L36 64.2744ZM36 19.9997C47.1972 19.9997 56.2744 29.0767 56.2747 40.2739L57.2747 40.2739C57.2744 28.5244 47.7495 18.9997 36 18.9997V19.9997ZM15.7253 40.2744C15.7253 29.077 24.8026 19.9997 36 19.9997V18.9997C24.2503 18.9997 14.7253 28.5247 14.7253 40.2744H15.7253ZM35.9995 60.5491C24.8023 60.5488 15.7253 51.4716 15.7253 40.2744H14.7253C14.7253 52.0239 24.25 61.5488 35.9995 61.5491L35.9995 60.5491ZM56.2747 40.2733C56.2618 51.4657 47.1913 60.5362 35.9989 60.5491L36.0001 61.5491C47.7438 61.5356 57.2612 52.0182 57.2747 40.2745L56.2747 40.2733ZM60.5 40.2744C60.5 26.7434 49.531 15.7744 36 15.7744V16.7744C48.9787 16.7744 59.5 27.2957 59.5 40.2744H60.5ZM36 15.7744C22.469 15.7744 11.5 26.7434 11.5 40.2744H12.5C12.5 27.2957 23.0213 16.7744 36 16.7744V15.7744ZM11.5 40.2744C11.5 53.8054 22.469 64.7744 36 64.7744V63.7744C23.0213 63.7744 12.5 53.2531 12.5 40.2744H11.5ZM36.0005 64.7744C49.5256 64.7609 60.4865 53.8 60.5 40.2749L59.5 40.2739C59.487 53.2475 48.9731 63.7614 35.9995 63.7744L36.0005 64.7744Z" fill="#F53E72" mask="url(#path-1-outside-1_1031_1520)"/>
<path d="M43.25 32.7745V32.7744C43.25 28.4674 39.7535 25.0244 35.5 25.0244C31.2465 25.0244 27.75 28.4674 27.75 32.7744C27.75 37.0814 31.2465 40.5244 35.5 40.5244H35.5016H35.5019C39.7526 40.5202 43.2457 37.0804 43.25 32.7763V32.7762L43.25 32.7745ZM31.5192 32.7744C31.5192 30.6254 33.2755 28.8361 35.5 28.8361C37.7241 28.8361 39.4801 30.6248 39.4808 32.7732C39.4782 34.9219 37.7228 36.7101 35.4989 36.7127C33.2749 36.7121 31.5192 34.923 31.5192 32.7744Z" fill="#F53E72" stroke="#F53E72" stroke-width="0.5"/>
<path d="M22.8502 49.6338C22.7205 50.6876 23.5935 51.5244 24.6131 51.5244C25.6506 51.5244 26.4427 50.6827 26.6075 49.71C27.3575 45.2844 31.2364 41.8477 36 41.8477C40.7636 41.8477 44.6425 45.2844 45.3925 49.71C45.5573 50.6827 46.3494 51.5244 47.3869 51.5244C48.4065 51.5244 49.2795 50.6876 49.1498 49.6338C48.3395 43.0491 42.7166 38.0244 36 38.0244C29.2834 38.0244 23.6605 43.0491 22.8502 49.6338Z" fill="#F53E72" stroke="#F53E72" stroke-width="0.5"/>
<path d="M76.4167 72.6827V72.6873C76.4167 76.1326 77.5517 79.8528 79.186 83.4285C80.7665 86.8864 82.8214 90.2254 84.7948 93.0738C80.6582 94.1622 77.7772 96.0611 76.7903 98.4623H26.55C20.4347 98.4623 15.4833 93.5762 15.4833 87.5564C15.4833 81.5367 20.4347 76.6506 26.55 76.6506H58.8833C65.268 76.6506 70.45 71.5474 70.45 65.2447V64.9947L70.2 64.9947H66.9667L66.7167 64.9947V65.2447C66.7167 69.5042 63.213 72.9632 58.8833 72.9632H26.55C18.3796 72.9632 11.75 79.4935 11.75 87.5564C11.75 95.6194 18.3796 102.15 26.55 102.15H76.7982C77.5903 104.036 79.572 105.608 82.2982 106.716C85.1101 107.858 88.7553 108.524 92.8333 108.524C97.4681 108.524 101.55 107.664 104.483 106.218C107.405 104.778 109.25 102.72 109.25 100.306C109.25 98.6364 108.397 97.1316 106.888 95.8874C105.447 94.6998 103.397 93.7382 100.872 93.0738C102.845 90.2254 104.9 86.8864 106.481 83.4285C108.115 79.8528 109.25 76.1326 109.25 72.6873L109.25 72.6827C109.088 63.8915 101.742 56.8931 92.8333 57.0263C83.9242 56.8931 76.5786 63.8915 76.4167 72.6827ZM105.517 100.306C105.517 100.688 105.264 101.169 104.688 101.691C104.12 102.206 103.27 102.729 102.163 103.198C99.9526 104.134 96.7532 104.837 92.8333 104.837C88.9135 104.837 85.7141 104.134 83.5032 103.198C82.3969 102.729 81.547 102.206 80.9783 101.691C80.4023 101.169 80.15 100.688 80.15 100.306C80.15 100.023 80.2782 99.69 80.5736 99.3236C80.8679 98.9585 81.3165 98.5762 81.9227 98.2023C83.1088 97.4708 84.8696 96.7892 87.1673 96.3309C87.766 97.1168 88.3263 97.8306 88.8358 98.4623H87.9833C86.9558 98.4623 86.1167 99.2843 86.1167 100.306C86.1167 101.328 86.9558 102.15 87.9833 102.15H97.6833C98.7109 102.15 99.55 101.328 99.55 100.306C99.55 99.2843 98.7109 98.4623 97.6833 98.4623H96.8309C97.3403 97.8306 97.9007 97.1168 98.4993 96.3309C100.797 96.7892 102.558 97.4708 103.744 98.2023C104.35 98.5762 104.799 98.9585 105.093 99.3236C105.388 99.69 105.517 100.023 105.517 100.306ZM100.366 87.0023C97.6707 91.4765 94.5784 95.3787 92.8333 97.4646C91.0874 95.3796 87.9951 91.48 85.2998 87.0071C82.4982 82.3578 80.1519 77.1314 80.15 72.6927C80.4369 65.9981 86.0272 60.7101 92.8333 60.7101C99.6394 60.7101 105.23 65.9981 105.517 72.6927C105.515 77.1258 103.168 82.3518 100.366 87.0023Z" fill="#F53E72" stroke="#F53E72" stroke-width="0.5"/>
<path d="M92.5002 63.0244H92.5C87.1152 63.0244 82.75 67.3896 82.75 72.7744C82.75 78.1592 87.1152 82.5244 92.5 82.5244C97.8848 82.5244 102.25 78.1592 102.25 72.7744V72.7741C102.245 67.3917 97.8827 63.0298 92.5002 63.0244ZM92.5 78.8577C89.1403 78.8577 86.4167 76.1341 86.4167 72.7744C86.4167 69.4147 89.1403 66.6911 92.5 66.6911C95.8597 66.6911 98.5833 69.4147 98.5833 72.7744C98.5833 76.1341 95.8597 78.8577 92.5 78.8577Z" fill="#F53E72" stroke="#F53E72" stroke-width="0.5"/>
<path d="M70.1752 65.6806L70.4252 65.6806L70.4252 65.4306L70.4252 48.5296C70.4252 42.109 65.3437 36.8937 59.0625 36.8937L58.8125 36.8937L58.8125 37.1437L58.8125 40.3968L58.8125 40.6468L59.0625 40.6468C63.3026 40.6468 66.7502 44.1703 66.7502 48.5296L66.7502 65.4306L66.7502 65.6806L67.0002 65.6806L70.1752 65.6806Z" fill="#F53E72" stroke="#F53E72" stroke-width="0.5"/>
</svg>
