<svg width="16" height="10" viewBox="0 0 16 10" fill="none" xmlns="http://www.w3.org/2000/svg">
<path d="M3.30822 0.93934C2.72243 0.353553 1.77268 0.353553 1.1869 0.93934C0.601112 1.52513 0.601112 2.47487 1.1869 3.06066L3.30822 0.93934ZM8.24756 8L7.1869 9.06066C7.77269 9.64645 8.72243 9.64645 9.30822 9.06066L8.24756 8ZM15.3082 3.06066C15.894 2.47487 15.894 1.52513 15.3082 0.93934C14.7224 0.353553 13.7727 0.353553 13.1869 0.93934L15.3082 3.06066ZM1.1869 3.06066L7.1869 9.06066L9.30822 6.93934L3.30822 0.93934L1.1869 3.06066ZM9.30822 9.06066L15.3082 3.06066L13.1869 0.93934L7.1869 6.93934L9.30822 9.06066Z" fill="#F43E72"/>
</svg>
