<svg width="223" height="40" viewBox="0 0 223 40" fill="none" xmlns="http://www.w3.org/2000/svg">
<g clip-path="url(#clip0_1216_152)">
<g clip-path="url(#clip1_1216_152)">
<path d="M65.3866 15.2533L62.1866 12.0533H51.9466L48.6399 15.2533H55.3599V27.84H58.6666V15.2533H65.3866Z" fill="#2E364A"/>
<path d="M87.6799 12.0533V27.84H101.013V24.64H90.9866V21.12H96.7466V17.92H90.9866V15.2533H101.12L97.9199 12.0533H87.6799Z" fill="#2E364A"/>
<path d="M106.133 12.0533V27.84H109.44V18.56L117.547 27.84H119.573V12.0533H116.267V21.3333L108.16 12.0533H106.133Z" fill="#2E364A"/>
<path d="M146.987 12.0533V27.84H160.32V24.64H150.293V21.12H156.053V17.92H150.293V15.2533H160.427L157.227 12.0533H146.987Z" fill="#ED2470"/>
<path d="M165.333 12.0533V27.84H168.64V18.56L173.44 25.8133L178.347 18.56V27.84H181.653V12.0533H178.773L173.44 20.16L168.107 12.0533H165.333Z" fill="#ED2470"/>
<path d="M219.2 12.0533V21.3333L211.093 12.0533H208.96V27.84H212.373V18.56L220.48 27.84H222.507V12.0533H219.2Z" fill="#ED2470"/>
<path d="M39.36 0L37.8667 1.70667V40L39.4667 38.1867V0H39.36Z" fill="#2E364A"/>
<path d="M6.29333 17.3867H2.98667V11.2L5.44 14.1867H22.5067L24.8533 11.2L24.64 17.3867H9.28V37.6533H18.6667V23.36H15.68V34.6667H12.2667V20.48L27.9467 20.3733L27.84 2.34668L21.0133 11.2H6.93333L0 2.45335V20.3733H6.29333V17.3867Z" fill="#ED2470"/>
<path d="M126.293 12.0533V27.84H133.12C134.293 27.84 135.467 27.6267 136.533 27.3067C137.493 26.9867 138.453 26.3467 139.2 25.6C139.947 24.8533 140.48 24 140.8 23.04C141.227 22.08 141.333 21.0133 141.333 19.9467C141.333 18.88 141.12 17.8133 140.8 16.8533C140.373 15.8933 139.84 15.04 139.093 14.2933C138.347 13.5467 137.493 13.0133 136.533 12.5867C135.467 12.16 134.293 11.9467 133.12 11.9467H126.293V12.0533ZM129.6 15.2533H133.12C133.867 15.2533 134.507 15.36 135.253 15.5733C135.787 15.7867 136.32 16.1067 136.747 16.5333C137.173 16.96 137.493 17.4933 137.707 18.0267C137.92 18.6667 138.027 19.3067 138.027 19.9467C138.027 20.5867 137.92 21.2267 137.707 21.8667C137.493 22.4 137.173 22.9333 136.853 23.36C136.427 23.7867 135.893 24.1067 135.36 24.32C134.72 24.5333 133.973 24.64 133.227 24.64H129.707V15.2533H129.6Z" fill="#2E364A"/>
<path d="M202.88 16.7466C202.453 15.7866 201.92 14.8266 201.173 14.0799C200.427 13.3333 199.573 12.7999 198.613 12.3733C197.547 11.9466 196.48 11.7333 195.413 11.7333C194.347 11.7333 193.173 11.9466 192.213 12.3733C191.253 12.7999 190.4 13.3333 189.653 14.0799C188.907 14.8266 188.373 15.6799 187.947 16.7466C187.52 17.8133 187.307 18.8799 187.307 20.0533C187.307 21.2266 187.52 22.2933 187.947 23.3599C188.373 24.3199 188.907 25.1733 189.653 25.9199C190.4 26.6666 191.253 27.1999 192.213 27.6266C193.28 28.0533 194.347 28.2666 195.413 28.2666C196.48 28.2666 197.653 28.0533 198.613 27.6266C199.573 27.1999 200.427 26.6666 201.173 25.9199C201.92 25.1733 202.453 24.3199 202.88 23.3599C203.307 22.2933 203.52 21.2266 203.52 20.0533C203.413 18.8799 203.2 17.8133 202.88 16.7466ZM195.307 15.0399C195.947 15.0399 196.587 15.1466 197.227 15.3599C197.76 15.5733 198.293 15.8933 198.72 16.4266C199.147 16.8533 199.467 17.3866 199.68 18.0266C199.893 18.6666 200 19.4133 200 20.0533C200 20.6933 199.893 21.4399 199.68 22.0799C199.467 22.6133 199.147 23.1466 198.72 23.6799C198.293 24.1066 197.76 24.4266 197.227 24.7466C196.587 24.9599 195.947 25.0666 195.307 25.0666C194.667 25.0666 194.027 24.9599 193.387 24.7466C192.853 24.5333 192.32 24.2133 191.893 23.6799C191.467 23.2533 191.147 22.7199 190.933 22.0799C190.72 21.4399 190.613 20.7999 190.613 20.0533C190.613 19.3066 190.72 18.6666 190.933 18.0266C191.147 17.4933 191.467 16.9599 191.893 16.4266C192.32 15.9999 192.853 15.6799 193.387 15.3599C194.027 15.1466 194.667 15.0399 195.307 15.0399Z" fill="#ED2470"/>
<path d="M67.8401 12.0533V27.84H71.1468V21.6533H75.4134L78.9334 27.84H82.6668L79.0401 21.3333C79.2534 21.2267 79.4668 21.12 79.6801 21.0133C80.1068 20.6933 80.5334 20.3733 80.9601 19.9467C81.2801 19.52 81.6001 19.0933 81.8134 18.56C82.0268 18.0267 82.1334 17.4933 82.1334 16.8533C82.1334 15.4667 81.7068 14.2933 80.7468 13.3333C79.6801 12.3733 78.2934 12.0533 76.9068 12.0533H67.8401ZM71.1468 15.2533H76.6934C77.1201 15.2533 77.7601 15.36 78.0801 15.68C78.4001 16 78.5068 16.4267 78.5068 16.8533C78.5068 18.1333 77.7601 18.3467 76.5868 18.3467H71.1468V15.2533Z" fill="#2E364A"/>
</g>
</g>
<defs>
<clipPath id="clip0_1216_152">
<rect width="223" height="40" fill="white"/>
</clipPath>
<clipPath id="clip1_1216_152">
<rect width="223" height="40" fill="white"/>
</clipPath>
</defs>
</svg>
