<svg width="10" height="16" viewBox="0 0 10 16" fill="none" xmlns="http://www.w3.org/2000/svg">
<path d="M0.93934 2.95861C0.353553 2.37282 0.353553 1.42308 0.93934 0.837289C1.52513 0.251503 2.47487 0.251503 3.06066 0.837289L0.93934 2.95861ZM8 7.89795L9.06066 6.83729C9.64645 7.42308 9.64645 8.37282 9.06066 8.95861L8 7.89795ZM3.06066 14.9586C2.47487 15.5444 1.52513 15.5444 0.939339 14.9586C0.353553 14.3728 0.353553 13.4231 0.939339 12.8373L3.06066 14.9586ZM3.06066 0.837289L9.06066 6.83729L6.93934 8.95861L0.93934 2.95861L3.06066 0.837289ZM9.06066 8.95861L3.06066 14.9586L0.939339 12.8373L6.93934 6.83729L9.06066 8.95861Z" fill="white"/>
</svg>
