<svg width="121" height="120" viewBox="0 0 121 120" fill="none" xmlns="http://www.w3.org/2000/svg">
<path d="M17.0238 41.5626C16.1821 41.5626 15.5 42.2413 15.5 43.0786V74.484C15.5 75.3214 16.1821 76 17.0238 76H103.976C104.818 76 105.5 75.3214 105.5 74.484V20.516C105.5 19.6786 104.818 19 103.976 19H17.0238C16.1821 19 15.5 19.6786 15.5 20.516V35.9787C15.5 36.816 16.1821 37.4947 17.0238 37.4947C17.8654 37.4947 18.5475 36.816 18.5475 35.9787V22.032H102.452V72.968H18.5475V43.0786C18.5475 42.2413 17.8646 41.5626 17.0238 41.5626Z" fill="#F43E72"/>
<path d="M109.991 23.7523C110.825 23.7523 111.5 23.0765 111.5 22.2426V18.5358C111.5 15.4829 109.018 13 105.968 13H15.0322C11.9817 13 9.5 15.4829 9.5 18.5358V77.1091C9.5 80.162 11.9817 82.6449 15.0322 82.6449H46.7228L45.0831 95.9292H42.3937C40.4521 95.9292 38.8731 97.5098 38.8731 99.4523V103.478C38.8731 105.42 40.4521 107 42.3937 107H78.6063C80.5479 107 82.1277 105.42 82.1277 103.478V99.4523C82.1277 97.5098 80.5479 95.9292 78.6063 95.9292H75.9169L74.278 82.6449H105.968C109.018 82.6449 111.5 80.1612 111.5 77.1091V29.3169C111.5 28.483 110.825 27.8072 109.991 27.8072C109.158 27.8072 108.482 28.483 108.482 29.3169V77.1091C108.482 78.4966 107.355 79.6255 105.968 79.6255H15.0322C13.6455 79.6255 12.5179 78.4966 12.5179 77.1091V18.5358C12.5179 17.1476 13.6462 16.0194 15.0322 16.0194H105.968C107.355 16.0194 108.482 17.1483 108.482 18.5358V22.2426C108.482 23.0765 109.158 23.7523 109.991 23.7523ZM72.8765 95.9292H58.7895C57.9568 95.9292 57.2814 96.605 57.2814 97.4389C57.2814 98.2728 57.9568 98.9486 58.7895 98.9486H78.6063C78.8834 98.9486 79.1091 99.1744 79.1091 99.4523V103.478C79.1091 103.755 78.8834 103.981 78.6063 103.981H42.3937C42.1158 103.981 41.8902 103.756 41.8902 103.478V99.4523C41.8902 99.1744 42.1158 98.9486 42.3937 98.9486H51.7484C52.5818 98.9486 53.2573 98.2728 53.2573 97.4389C53.2573 96.605 52.5818 95.9292 51.7484 95.9292H48.1235L49.7632 82.6449H71.2368L72.8765 95.9292Z" fill="#F43E72"/>
<path d="M60.5 47.5004C60.5 36.7473 51.7528 28 41 28C30.248 28 21.5 36.7473 21.5 47.5004C21.5 58.2527 30.248 67 41 67C51.7528 67 60.5 58.2527 60.5 47.5004ZM41 31.0312C50.0809 31.0312 57.4689 38.4193 57.4689 47.5004C57.4689 50.5152 56.6505 53.3416 55.2303 55.7748C53.9093 52.5279 51.4996 49.8 48.4114 48.0937C49.5611 46.5327 50.1943 44.6357 50.1943 42.6503C50.1943 37.5806 46.0696 33.4559 41 33.4559C35.9304 33.4559 31.8057 37.5806 31.8057 42.6503C31.8057 44.6357 32.4389 46.5327 33.5886 48.0937C30.5012 49.8 28.0907 52.5279 26.7697 55.7748C25.3495 53.3416 24.5311 50.5152 24.5311 47.5004C24.5311 38.4193 31.9191 31.0312 41 31.0312ZM28.9942 58.756C29.9173 54.7712 32.8007 51.4571 36.6628 50.0048C37.1693 49.8141 37.5358 49.3677 37.6242 48.8339C37.7125 48.3 37.5093 47.7591 37.0911 47.4152C35.6584 46.238 34.8369 44.5012 34.8369 42.6503C34.8369 39.2517 37.6015 36.4871 41 36.4871C44.3985 36.4871 47.1631 39.2517 47.1631 42.6503C47.1631 44.5012 46.3416 46.238 44.9089 47.4152C44.4907 47.7591 44.2875 48.3 44.3758 48.8339C44.4642 49.3677 44.8307 49.8141 45.3372 50.0048C49.1993 51.4571 52.0827 54.7712 53.0066 58.756C49.9996 61.9608 45.7312 63.9688 41 63.9688C36.2688 63.9688 32.0004 61.9608 28.9942 58.756Z" fill="#7248FF"/>
<path d="M65.0001 37H94.9999C95.8285 37 96.5 36.3285 96.5 35.5C96.5 34.6715 95.8285 34 94.9999 34H65.0001C64.1715 34 63.5 34.6715 63.5 35.5C63.5 36.3285 64.1715 37 65.0001 37Z" fill="#F43E72"/>
<path d="M65.0001 45H78.9999C79.8285 45 80.5 44.3285 80.5 43.5C80.5 42.6715 79.8285 42 78.9999 42H65.0001C64.1715 42 63.5 42.6715 63.5 43.5C63.5 44.3285 64.1715 45 65.0001 45Z" fill="#F43E72"/>
<path d="M65.0001 53H94.9999C95.8285 53 96.5 52.3285 96.5 51.5C96.5 50.6715 95.8285 50 94.9999 50H65.0001C64.1715 50 63.5 50.6715 63.5 51.5C63.5 52.3285 64.1715 53 65.0001 53Z" fill="#F43E72"/>
<path d="M65.0001 61H78.9999C79.8285 61 80.5 60.3285 80.5 59.5C80.5 58.6715 79.8285 58 78.9999 58H65.0001C64.1715 58 63.5 58.6715 63.5 59.5C63.5 60.3285 64.1715 61 65.0001 61Z" fill="#F43E72"/>
</svg>
