<svg width="121" height="120" viewBox="0 0 121 120" fill="none" xmlns="http://www.w3.org/2000/svg">
<path d="M37.4395 28.7324C37.1605 29.1973 37 29.8428 37 30.5C37 31.1602 37.1605 31.8027 37.4395 32.2676C37.7184 32.7324 38.1057 33 38.5 33C38.8961 33 39.2816 32.7324 39.5605 32.2676C39.8395 31.8027 40 31.1602 40 30.5C40 29.8428 39.8395 29.1973 39.5605 28.7324C39.2816 28.2676 38.8961 28 38.5 28C38.1057 28 37.7184 28.2676 37.4395 28.7324Z" fill="#F43E72"/>
<path d="M95.5696 28H46.8243C45.6621 28 44.7203 28.9539 44.7203 30.1309C44.7203 31.3079 45.6621 32.2618 46.8243 32.2618H95.5696C97.3464 32.2618 98.7921 33.7251 98.7921 35.5248V79.2582H84.809C83.6469 79.2582 82.705 80.2121 82.705 81.3891C82.705 82.5661 83.6469 83.52 84.809 83.52H98.7921V84.518C98.7921 86.3177 97.3464 87.7818 95.5696 87.7818H34.1224C33.6268 87.7818 33.1469 87.9591 32.7672 88.2829L22.2079 97.2885V35.5248C22.2079 33.7251 23.6536 32.2618 25.4304 32.2618H29.9934C31.1547 32.2618 32.0974 31.3079 32.0974 30.1309C32.0974 28.9539 31.1547 28 29.9934 28H25.4304C21.3335 28 18 31.3753 18 35.5248V101.869C18 102.698 18.4742 103.451 19.2164 103.801C19.4999 103.934 19.8023 104 20.1031 104C20.5905 104 21.0721 103.829 21.4592 103.499L34.89 92.0436H95.5696C99.6665 92.0436 103 88.6675 103 84.518V35.5248C103 31.3753 99.6665 28 95.5696 28Z" fill="#F43E72"/>
<path d="M60.5 21C61.8809 21 63 20.0403 63 18.8562V8.14381C63 6.95969 61.8809 6 60.5 6C59.1191 6 58 6.95969 58 8.14381V18.8562C58 20.0403 59.1191 21 60.5 21Z" fill="#7248FF"/>
<path d="M77.1834 21C77.7429 21 78.3006 20.8045 78.7271 20.4136L86.3603 13.4173C87.2132 12.6355 87.2132 11.3682 86.3603 10.5864C85.5075 9.80455 84.1249 9.80455 83.2721 10.5864L75.6397 17.5827C74.7868 18.3645 74.7868 19.6318 75.6397 20.4136C76.0661 20.8045 76.6247 21 77.1834 21Z" fill="#7248FF"/>
<path d="M42.2729 20.4136C42.6994 20.8045 43.258 21 43.8166 21C44.3753 21 44.9339 20.8045 45.3603 20.4136C46.2132 19.6318 46.2132 18.3645 45.3603 17.5827L37.7271 10.5864C36.8751 9.80455 35.4925 9.80455 34.6397 10.5864C33.7868 11.3682 33.7868 12.6347 34.6397 13.4165L42.2729 20.4136Z" fill="#7248FF"/>
<path d="M60.5 99C59.1191 99 58 99.9597 58 101.144V111.856C58 113.04 59.1191 114 60.5 114C61.8809 114 63 113.04 63 111.856V101.144C63 99.9597 61.8809 99 60.5 99Z" fill="#7248FF"/>
<path d="M78.7273 99.5864C77.8744 98.8045 76.4926 98.8045 75.6397 99.5864C74.7868 100.368 74.7868 101.635 75.6397 102.417L83.2725 109.414C83.699 109.805 84.2576 110 84.8163 110C85.3758 110 85.9345 109.805 86.3609 109.414C87.213 108.632 87.213 107.365 86.3609 106.583L78.7273 99.5864Z" fill="#7248FF"/>
<path d="M42.2729 99.5864L34.6397 106.584C33.7868 107.365 33.7868 108.632 34.6397 109.414C35.0661 109.805 35.6247 110 36.1834 110C36.742 110 37.3006 109.805 37.7271 109.414L45.3603 102.417C46.2132 101.635 46.2132 100.368 45.3603 99.5864C44.5075 98.8045 43.1258 98.8045 42.2729 99.5864Z" fill="#7248FF"/>
<path d="M80 58.5608C80 52.737 75.4256 48 69.8017 48H65.146C63.9615 48 63 48.9948 63 50.2222V69.7778C63 71.0043 63.9615 72 65.146 72H69.8017C75.4248 72 80 67.2622 80 61.4384V58.5608ZM75.7081 61.4384C75.7081 64.8116 73.0583 67.5556 69.8017 67.5556H67.2919V52.4444H69.8017C73.0583 52.4444 75.7081 55.1875 75.7081 58.5608V61.4384Z" fill="#F43E72"/>
<path d="M42.9275 63.4815L41.1127 69.0683C40.7347 70.2315 41.3382 71.4918 42.4615 71.8833C43.5864 72.2748 44.8018 71.649 45.1798 70.4858L46.5193 66.3635H52.4808L53.8203 70.4858C54.1212 71.4137 54.9569 71.9997 55.8538 71.9997C56.081 71.9997 56.3115 71.9623 56.5378 71.8833C57.661 71.4918 58.2654 70.2315 57.8873 69.0683L51.5336 49.513C51.2402 48.6085 50.4213 48 49.5 48C48.5788 48 47.7599 48.6085 47.4665 49.513L42.9292 63.4772C42.9283 63.4789 42.9275 63.4798 42.9275 63.4815ZM49.5 57.19L51.0365 61.9191H47.9636L49.5 57.19Z" fill="#F43E72"/>
<path d="M75.5859 80.4395C75.2141 80.7184 75 81.1057 75 81.5C75 81.8961 75.2141 82.2816 75.5859 82.5605C75.9586 82.8395 76.4742 83 77 83C77.5266 83 78.0422 82.8395 78.4141 82.5605C78.7859 82.2816 79 81.8943 79 81.5C79 81.1057 78.7859 80.7184 78.4141 80.4395C78.0422 80.1605 77.5266 80 77 80C76.4742 80 75.9578 80.1605 75.5859 80.4395Z" fill="#F43E72"/>
</svg>
