<svg width="120" height="120" viewBox="0 0 120 120" fill="none" xmlns="http://www.w3.org/2000/svg">
<path d="M47.3524 80.4962C47.3524 79.5963 48.0834 78.8643 48.9871 78.8643C49.8908 78.8643 50.625 79.5946 50.625 80.4962V94.6053C50.625 95.9837 50.0618 97.2357 49.1491 98.1397C49.1156 98.1772 49.082 98.2074 49.0436 98.2375C48.1431 99.0852 46.9284 99.6094 45.5999 99.6094H12.7595C11.3745 99.6094 10.118 99.0486 9.21023 98.1397C8.29836 97.2357 7.73438 95.9837 7.73438 94.6053V69.6924C7.73438 68.314 8.29754 67.0612 9.21023 66.158C10.118 65.2508 11.3745 64.6875 12.7595 64.6875H32.5759C33.4796 64.6875 34.2138 65.4179 34.2138 66.3194C34.2138 67.2169 33.4804 67.9472 32.5759 67.9472H12.7595C12.279 67.9472 11.8394 68.1428 11.5218 68.4591C11.2075 68.777 11.007 69.2131 11.007 69.6924V94.6053C11.007 95.0829 11.2075 95.5207 11.5218 95.8378C11.8394 96.1548 12.2782 96.3505 12.7595 96.3505H45.5999C46.0509 96.3505 46.4667 96.176 46.777 95.8973C46.795 95.8744 46.8146 95.8549 46.8335 95.8378C47.1511 95.5207 47.3516 95.083 47.3516 94.6045L47.3524 80.4962Z" fill="#F43E72"/>
<path d="M33.3171 47.5961C34.2208 47.5961 34.9559 48.3274 34.9559 49.2294C34.9559 50.1313 34.2216 50.8594 33.3171 50.8594C31.6939 50.8594 30.2181 50.199 29.1507 49.1347C28.0841 48.0711 27.4219 46.6003 27.4219 44.9808V13.6129C27.4219 11.9951 28.0841 10.5267 29.1507 9.45908C30.2181 8.39553 31.6931 7.73438 33.3171 7.73438H86.6829C88.3044 7.73438 89.777 8.39471 90.8493 9.45908C91.9159 10.5267 92.5781 11.9943 92.5781 13.6129V44.9808C92.5781 46.5994 91.9143 48.0711 90.8493 49.1347C89.777 50.1999 88.3069 50.8594 86.6829 50.8594C85.7792 50.8594 85.0441 50.1305 85.0441 49.2294C85.0441 48.3282 85.7776 47.5961 86.6829 47.5961C87.4016 47.5961 88.0564 47.3014 88.5328 46.8264C89.01 46.3546 89.3039 45.6975 89.3039 44.9808V13.6129C89.3039 12.8963 89.01 12.2433 88.5328 11.7682C88.0564 11.2923 87.4016 10.9985 86.6829 10.9985H33.3171C32.5976 10.9985 31.9436 11.2923 31.4664 11.7682C30.99 12.2433 30.6953 12.8963 30.6953 13.6129V44.9808C30.6953 45.6975 30.99 46.3546 31.4664 46.8264C31.9436 47.3014 32.5976 47.5961 33.3171 47.5961Z" fill="#F43E72"/>
<path d="M41.6016 14.2969C43.3796 14.2969 44.9917 15.0188 46.1575 16.1837C46.1908 16.217 46.2209 16.2512 46.251 16.2886C47.3632 17.4462 48.0469 19.0167 48.0469 20.7426C48.0469 22.5205 47.3258 24.1317 46.1575 25.2974C44.9917 26.4664 43.3796 27.1875 41.6016 27.1875C39.8276 27.1875 38.2155 26.4616 37.0464 25.2934L37.0424 25.2974C35.8766 24.1317 35.1562 22.5205 35.1562 20.7426C35.1562 18.968 35.8774 17.3567 37.0464 16.1869L37.0424 16.1837C38.2114 15.0188 39.8203 14.2969 41.6016 14.2969ZM43.8608 18.4835C43.282 17.9087 42.482 17.5478 41.6024 17.5478C40.7195 17.5478 39.9228 17.9079 39.3439 18.4835L39.3398 18.4794L39.3366 18.4835C38.7651 19.0582 38.4074 19.8549 38.4074 20.7418C38.4074 21.6206 38.7683 22.4213 39.3439 23.0001H39.3398L39.3439 23.0034C39.9187 23.5781 40.7154 23.9325 41.6016 23.9325C42.4812 23.9325 43.2812 23.5757 43.8608 23.0009C44.4356 22.4221 44.7925 21.6214 44.7925 20.7426C44.7925 19.889 44.4657 19.1192 43.9316 18.5517C43.9056 18.529 43.8836 18.5062 43.8608 18.4835Z" fill="#F43E72"/>
<path d="M65.5344 43.3464C66.6475 43.7217 67.7141 44.2069 68.7148 44.7895C69.731 45.3812 70.6837 46.0745 71.5549 46.8514L76.043 45.2075C76.7954 44.9338 77.617 45.2525 77.9989 45.927L78.0037 45.9229L79.5541 48.6322C79.5712 48.6625 79.5874 48.6928 79.6037 48.7223L81.1085 51.3439C81.5042 52.0422 81.334 52.9125 80.7453 53.4091V53.4132L77.095 56.497C77.1732 56.8945 77.2416 57.3001 77.2929 57.7132C77.3947 58.4892 77.4452 59.2547 77.4452 59.9971C77.4452 60.7437 77.3947 61.5083 77.2929 62.286C77.2416 62.699 77.1732 63.1039 77.095 63.4981L80.7453 66.586C81.3755 67.1154 81.5066 68.0299 81.08 68.7118L79.5557 71.367L78.0054 74.0722C77.595 74.7843 76.7327 75.0695 75.995 74.7729L71.5565 73.1478C70.6845 73.9247 69.7318 74.618 68.7156 75.2088C67.7149 75.7931 66.6499 76.2791 65.5352 76.6536L64.7071 81.3781C64.572 82.1738 63.8815 82.7344 63.1071 82.7344H60.0016H56.8928C56.0688 82.7344 55.3873 82.1165 55.279 81.3134L54.4655 76.6536C53.3517 76.2791 52.2858 75.7931 51.2851 75.2088C50.2689 74.618 49.3171 73.9263 48.4442 73.1478L43.9569 74.7925C43.2037 75.0646 42.383 74.7458 41.9962 74.0722L40.4451 71.367L38.8915 68.6585C38.4884 67.9595 38.6578 67.0851 39.2554 66.586H39.2522L42.9065 63.4981C42.8275 63.1014 42.76 62.6982 42.7078 62.286C42.6061 61.5108 42.5539 60.7437 42.5539 59.9971C42.5539 59.2555 42.6061 58.4892 42.7078 57.7132C42.76 57.3001 42.8275 56.8953 42.9065 56.497L39.2522 53.414C38.6244 52.8838 38.4957 51.9701 38.9216 51.2882L40.4459 48.633L41.9962 45.9237C42.4066 45.2157 43.2689 44.9305 44.0025 45.2263L48.4442 46.8506C49.3171 46.0745 50.2697 45.3812 51.2859 44.7895C52.2866 44.206 53.3525 43.7209 54.4664 43.3464L55.2904 38.6211C55.4304 37.8253 56.1193 37.2656 56.8944 37.2656H59.9991H63.1079C63.9336 37.2656 64.6143 37.8835 64.7193 38.6858L65.5344 43.3464ZM67.0904 47.6201C66.0555 47.0178 64.9343 46.5441 63.7479 46.2179C63.1275 46.0745 62.6226 45.5738 62.5062 44.9034L61.7425 40.5437H59.9991H58.2591L57.4953 44.9034C57.3903 45.5099 56.9449 46.0335 56.3131 46.2032C55.1055 46.5293 53.9648 47.0096 52.9103 47.6201C51.8445 48.2421 50.8666 48.9961 50.0002 49.859C49.5679 50.3138 48.8977 50.4958 48.2732 50.2688L44.1287 48.7494L43.2558 50.272L42.3862 51.7881L45.7596 54.6375C46.2262 55.0309 46.4526 55.675 46.2856 56.3077C46.1285 56.91 46.0039 57.523 45.9249 58.1377C45.8492 58.7171 45.8117 59.3382 45.8117 59.9979C45.8117 60.6609 45.8492 61.2813 45.9249 61.8607C46.0047 62.4524 46.1171 63.0424 46.2669 63.6218C46.4558 64.2348 46.275 64.9256 45.7596 65.36L42.3862 68.2102L43.2558 69.7263L44.1287 71.2481L48.2732 69.7288C48.8448 69.5206 49.5117 69.6444 49.9701 70.1082C50.8438 70.9826 51.8339 71.7489 52.9103 72.3774C53.9452 72.9757 55.0665 73.4534 56.252 73.7796C56.8733 73.9206 57.3773 74.4246 57.4937 75.0941L58.2575 79.4547H60.0008H61.7392L62.5005 75.0941H62.5046C62.6096 74.4893 63.055 73.9648 63.686 73.7952C64.8944 73.4698 66.0351 72.9896 67.0863 72.3783C68.1554 71.7571 69.1334 71.0023 69.9989 70.1361C70.4321 69.6845 71.1014 69.5042 71.7267 69.7304L75.8712 71.2498L76.7441 69.728L77.6121 68.2119L74.2395 65.3616C73.7729 64.9691 73.5457 64.3233 73.7127 63.6915C73.8714 63.09 73.996 62.4794 74.075 61.8648C74.1499 61.2805 74.1882 60.6593 74.1882 59.9979C74.1882 59.3382 74.1499 58.7171 74.075 58.1377C73.9944 57.546 73.8828 56.9551 73.7273 56.3724C73.5417 55.7627 73.7241 55.0727 74.2395 54.6375L77.6153 51.7848L76.7946 50.3564C76.7767 50.3302 76.7612 50.3007 76.7433 50.2729L75.8704 48.7502L71.7259 50.2696C71.1535 50.4777 70.4874 50.3532 70.0282 49.8901C69.1561 49.0141 68.166 48.2478 67.0904 47.6201ZM59.9983 49.9606C62.7529 49.9606 65.2445 51.0858 67.0521 52.901C68.8557 54.7154 69.9736 57.2272 69.9736 59.9963C69.9736 62.7695 68.8557 65.2764 67.0521 67.0957C65.2445 68.9101 62.7537 70.0353 59.9983 70.0353C57.247 70.0353 54.7513 68.9101 52.9486 67.0957C51.145 65.2764 50.0271 62.7695 50.0271 59.9963C50.0271 57.2272 51.145 54.7154 52.9486 52.901C54.7505 51.0858 57.247 49.9606 59.9983 49.9606ZM64.7495 55.2186C63.533 53.9959 61.854 53.2378 59.9991 53.2378C58.1467 53.2378 56.4686 53.9959 55.2521 55.2186C54.0372 56.438 53.2841 58.1328 53.2841 59.9963C53.2841 61.864 54.0372 63.553 55.2521 64.7773C56.4637 66.0008 58.1476 66.7589 59.9991 66.7589C61.8548 66.7589 63.533 66.0008 64.7495 64.7773C65.9643 63.553 66.7183 61.864 66.7183 59.9963C66.7175 58.1319 65.9643 56.4429 64.7495 55.2186Z" fill="#7248FF"/>
<path d="M90.8597 96.7534C91.5185 96.1372 92.5484 96.1674 93.1647 96.8253C93.781 97.4792 93.7507 98.5106 93.096 99.1293C88.6977 103.274 83.5139 106.603 77.7931 108.874C72.2725 111.061 66.2672 112.266 59.9971 112.266C53.7279 112.266 47.7201 111.06 42.2028 108.874C36.4828 106.603 31.2974 103.274 26.8991 99.1293C26.246 98.509 26.2117 97.4775 26.8321 96.8253C27.4475 96.1674 28.4799 96.1372 29.1362 96.7534C33.2427 100.626 38.0767 103.731 43.4044 105.847C48.5277 107.879 54.1243 108.995 59.9963 108.995C65.8716 108.995 71.4682 107.881 76.5915 105.847C81.9217 103.732 86.754 100.626 90.8597 96.7534ZM15.0365 66.127C15.0741 67.026 14.3752 67.7853 13.4761 67.827C12.577 67.8654 11.8177 67.1658 11.7792 66.2668C11.7604 65.9227 11.749 65.5492 11.7375 65.1332C11.7261 64.597 11.7188 64.2031 11.7188 63.9898C11.7188 56.9349 13.2342 50.2282 15.9626 44.1803C18.7891 37.9043 22.9266 32.3393 28.023 27.832C28.6957 27.2353 29.728 27.2991 30.3214 27.9717C30.9181 28.6444 30.8536 29.6758 30.1817 30.2691C25.4352 34.4708 21.5812 39.6615 18.9403 45.5214C16.4015 51.1518 14.9883 57.4041 14.9883 63.9914C14.9883 64.5161 14.9915 64.8619 14.9956 65.0605C15.003 65.38 15.0177 65.7372 15.0365 66.127ZM89.8183 30.2683C89.1473 29.675 89.0819 28.6444 89.6777 27.9709C90.2728 27.2983 91.3019 27.2345 91.9762 27.8303C97.0734 32.3385 101.208 37.9026 104.037 44.1795C106.763 50.2274 108.281 56.9333 108.281 63.9882C108.281 64.2039 108.273 64.5954 108.263 65.1324C108.251 65.5484 108.236 65.9219 108.222 66.266C108.182 67.1666 107.422 67.8646 106.525 67.8262C105.625 67.7845 104.927 67.026 104.964 66.1262C104.981 65.7355 104.999 65.3776 105.007 65.0555C105.01 64.8602 105.013 64.5112 105.013 63.9857C105.013 57.4008 103.6 51.1485 101.061 45.5182C98.4171 39.6606 94.5657 34.4692 89.8183 30.2683Z" fill="#F43E72"/>
<path d="M90.0046 76.6406C89.0974 76.6406 88.3594 75.9595 88.3594 75.1191C88.3594 74.2772 89.0957 73.5938 90.0046 73.5938H102.183C103.09 73.5938 103.828 74.2764 103.828 75.1191C103.828 75.9602 103.092 76.6406 102.183 76.6406H90.0046Z" fill="#F43E72"/>
<path d="M81.0859 83.9062C80.1833 83.9062 79.4531 83.1711 79.4531 82.2636C79.4531 81.3577 80.1833 80.625 81.0859 80.625H102.191C103.094 80.625 103.828 81.3585 103.828 82.2636C103.828 83.1702 103.095 83.9062 102.191 83.9062H81.0859Z" fill="#F43E72"/>
<path d="M81.0859 90.9375C80.1833 90.9375 79.4531 90.203 79.4531 89.2973C79.4531 88.3915 80.1833 87.6562 81.0859 87.6562H102.191C103.094 87.6562 103.828 88.3907 103.828 89.2973C103.828 90.2022 103.095 90.9375 102.191 90.9375H81.0859Z" fill="#F43E72"/>
<path d="M23.9447 71.8051L38.8248 80.7662C39.5935 81.2286 39.8393 82.2259 39.3739 82.9936C39.2264 83.2354 39.0256 83.4227 38.7986 83.5546L23.8087 92.5783C23.04 93.0408 22.0353 92.7973 21.5699 92.0329C21.4109 91.7699 21.3355 91.4785 21.3355 91.1935H21.3281V73.1094C21.3281 72.2106 22.0591 71.4844 22.9646 71.4844C23.3317 71.4844 23.6727 71.6057 23.9447 71.8051ZM34.8323 82.151L24.6044 75.9938V88.3107L34.8323 82.151Z" fill="#F43E72"/>
<path d="M91.8669 35.7119C92.6119 36.2192 92.8014 37.2386 92.2933 37.9843C91.7884 38.7309 90.7722 38.9235 90.0272 38.4129L66.3547 22.1231L30.422 46.1334C29.6705 46.6341 28.6575 46.4251 28.1625 45.6753C27.665 44.9213 27.8692 43.906 28.6208 43.4053L65.4332 18.8074C65.9732 18.4329 66.7101 18.4067 67.2884 18.8L91.8669 35.7119Z" fill="#F43E72"/>
<path d="M69.6094 80.4962C69.6094 79.5963 70.3388 78.8643 71.2383 78.8643C72.1378 78.8643 72.864 79.5946 72.864 80.4962V94.6053C72.864 95.0829 73.0634 95.5207 73.376 95.8378C73.3972 95.8557 73.4175 95.8744 73.4362 95.8981C73.7447 96.1769 74.155 96.3505 74.6068 96.3505H107.267C107.744 96.3505 108.177 96.1548 108.493 95.8378C108.81 95.5207 109.01 95.0838 109.01 94.6053V69.6924C109.01 69.2147 108.81 68.777 108.493 68.4599C108.177 68.1437 107.744 67.948 107.267 67.948H87.56C86.6613 67.948 85.9303 67.2169 85.9303 66.3194C85.9303 65.4195 86.6597 64.6875 87.56 64.6875H107.267C108.644 64.6875 109.895 65.2483 110.797 66.158C111.705 67.0612 112.266 68.314 112.266 69.6924V94.6053C112.266 95.9837 111.706 97.2357 110.797 98.1397C109.895 99.0477 108.644 99.6094 107.267 99.6094H74.6076C73.2864 99.6094 72.0784 99.0852 71.1829 98.2375C71.1447 98.2074 71.1105 98.178 71.0771 98.1397C70.1703 97.2357 69.6094 95.9837 69.6094 94.6053V80.4962Z" fill="#F43E72"/>
</svg>
