<svg width="120" height="120" viewBox="0 0 120 120" fill="none" xmlns="http://www.w3.org/2000/svg">
<path d="M42.2584 39.0322C29.8068 39.0322 19.6777 49.1613 19.6777 61.6129C19.6777 74.0645 29.8068 84.1935 42.2584 84.1935C54.71 84.1935 64.839 74.0645 64.839 61.6129C64.839 49.1613 54.71 39.0322 42.2584 39.0322ZM42.2584 80.9677C31.5858 80.9677 22.9035 72.2855 22.9035 61.6129C22.9035 50.9403 31.5858 42.258 42.2584 42.258C52.931 42.258 61.6132 50.9403 61.6132 61.6129C61.6132 72.2855 52.931 80.9677 42.2584 80.9677Z" fill="#F43E72"/>
<path d="M19.6777 100.323H22.9035V103.548H19.6777V100.323Z" fill="#F43E72"/>
<path d="M29.3546 100.323H32.5804V103.548H29.3546V100.323Z" fill="#F43E72"/>
<path d="M39.0323 100.323H42.2582V103.548H39.0323V100.323Z" fill="#F43E72"/>
<path d="M53.1515 57.8822L38.8515 49.3032C38.208 48.9145 37.4709 48.7097 36.7193 48.7097C34.437 48.7097 32.5806 50.5661 32.5806 52.8484V70.3758C32.5806 72.6597 34.437 74.5161 36.7193 74.5161C37.4709 74.5161 38.208 74.3113 38.8483 73.9258L53.1499 65.3451C54.3902 64.6 55.1596 63.2403 55.1596 61.7967V61.4306C55.1612 59.9855 54.3902 58.6258 53.1515 57.8822ZM51.9354 61.7951C51.9354 62.1129 51.7661 62.4145 51.4919 62.5774L37.1886 71.1597C36.6161 71.5016 35.8064 71.0451 35.808 70.3758V52.8484C35.8064 52.3451 36.2161 51.9355 36.7193 51.9355C36.8854 51.9355 37.0451 51.979 37.1886 52.0661L51.4902 60.6468C51.7661 60.8113 51.9354 61.1113 51.9354 61.4306V61.7951Z" fill="#7248FF"/>
<path d="M103.548 52.5532V39.0323C103.548 37.2532 102.102 35.8064 100.323 35.8064H97.0968C95.3177 35.8064 93.871 37.2532 93.871 39.0323V39.7452C87.9694 43.4887 81.1839 45.4839 74.1758 45.4839H69.7919L70.7694 44.5064L65.2952 39.0323H77.0306C82.7581 39.0323 87.4194 34.3726 87.4194 28.6452C87.4194 23.7 83.3968 19.6774 78.4516 19.6774C77.5129 19.6774 76.6016 19.8387 75.7323 20.1161L75.4484 19.5468C72.5048 13.6581 66.5839 10 60 10C53.4161 10 47.4952 13.6581 44.5516 19.5468L44.2677 20.1161C43.3984 19.8387 42.4871 19.6774 41.5484 19.6774C36.6032 19.6774 32.5806 23.7 32.5806 28.6452C32.5806 30.1774 32.9387 31.6806 33.5855 33.0581C33.1694 33.7242 32.571 34.2597 31.8323 34.5435C31.3823 34.7161 30.9355 34.9016 30.5032 35.0952C29.1081 35.7129 27.4194 35.3694 26.2919 34.2419L25.1516 33.1016L13.7484 44.5081L14.8887 45.6484C16.0145 46.7742 16.3581 48.4677 15.7403 49.8564C15.5468 50.2935 15.3629 50.7387 15.1887 51.1887C14.6435 52.6 13.2065 53.5484 11.6129 53.5484H10V69.6774H11.6129C13.2065 69.6774 14.6435 70.6258 15.1887 72.0387C15.3613 72.4871 15.5468 72.9323 15.7403 73.3677C16.3581 74.7581 16.0145 76.4516 14.8871 77.579L13.7468 78.7193L25.1532 90.1226L26.2935 88.9823C27.421 87.8565 29.1113 87.5129 30.5016 88.1306C30.9387 88.3242 31.3839 88.5081 31.8339 88.6823C33.2452 89.2274 34.1935 90.6645 34.1935 92.2581V93.871H50.3226V92.2581C50.3226 90.6645 51.271 89.2274 52.6839 88.6823C53.1323 88.5097 53.5774 88.3242 54.0129 88.1306C55.4065 87.5113 57.0968 87.8564 58.2242 88.9839L59.3645 90.1242L68.521 80.9677H74.1758C81.1839 80.9677 87.9677 82.9629 93.871 86.7064V87.4193C93.871 89.1984 95.3177 90.6452 97.0968 90.6452H100.323C102.102 90.6452 103.548 89.1984 103.548 87.4193V73.7097L105.316 72.3839C108.248 70.1839 110 66.6839 110 63.0145C110 58.5597 107.527 54.5548 103.548 52.5532ZM41.5484 22.9032C43.4726 22.9032 45.2581 23.8597 46.3258 25.4597L47.3677 27.0242L50.0516 25.2355L49.0097 23.671C48.4839 22.8823 47.8371 22.2081 47.1161 21.6339L47.4387 20.9903C49.8306 16.2016 54.6452 13.2258 60 13.2258C65.3548 13.2258 70.1694 16.2016 72.5629 20.9887L72.8855 21.6323C72.1645 22.2048 71.5177 22.8806 70.9919 23.6694L69.95 25.2339L72.6339 27.0226L73.6758 25.4581C74.7435 23.8597 76.5274 22.9032 78.4516 22.9032C81.6177 22.9032 84.1936 25.479 84.1936 28.6452C84.1936 32.5935 80.9806 35.8064 77.0323 35.8064H62.0694L59.3645 33.1016L58.2242 34.2419C57.0984 35.3677 55.4048 35.7113 54.0194 35.0952C53.5823 34.9 53.1355 34.7161 52.6855 34.5419C51.271 33.9984 50.3226 32.5613 50.3226 30.9677V29.3548H35.8532C35.8306 29.1194 35.8065 28.8823 35.8065 28.6452C35.8065 25.479 38.3823 22.9032 41.5484 22.9032ZM66.3387 78.5887L59.2339 85.6919C57.2806 84.471 54.8161 84.2452 52.7048 85.1823C52.3145 85.3564 51.921 85.5193 51.5242 85.6742C49.3758 86.5016 47.8 88.3984 47.2823 90.6452H37.2355C36.7194 88.3984 35.1419 86.5016 32.9952 85.6742C32.5968 85.5193 32.2032 85.3581 31.8113 85.1823C29.7 84.2435 27.2371 84.4742 25.2823 85.6919L18.1774 78.5871C19.3984 76.6322 19.6226 74.171 18.6871 72.0581C18.5129 71.6677 18.35 71.2742 18.1952 70.8758C17.3677 68.729 15.471 67.1548 13.2258 66.6355V56.5887C15.4726 56.0726 17.3694 54.4952 18.1968 52.3484C18.3516 51.95 18.5129 51.5564 18.6887 51.1645C19.6258 49.0532 19.3984 46.5919 18.179 44.6355L25.2839 37.5323C27.2387 38.7532 29.7016 38.9774 31.8161 38.0403C32.2032 37.8677 32.5984 37.7048 32.9952 37.55C35.1419 36.721 36.7177 34.8242 37.2355 32.579H47.2823C47.8 34.8242 49.3758 36.721 51.5226 37.55C51.9194 37.7048 52.3145 37.8661 52.7065 38.0419C54.8194 38.9806 57.2823 38.75 59.2355 37.5323L66.3387 44.6371C65.1177 46.5919 64.8935 49.0532 65.829 51.1661C66.0032 51.5564 66.1661 51.95 66.321 52.3484C67.15 54.4952 69.0468 56.071 71.2919 56.5887V66.6355C69.0468 67.1532 67.15 68.729 66.321 70.8758C66.1661 71.2742 66.0048 71.6677 65.829 72.0597C64.8903 74.171 65.1177 76.6339 66.3387 78.5887ZM74.1758 77.7419H69.7919L69.6274 77.5774C68.5016 76.4516 68.1581 74.7581 68.7758 73.3694C68.9694 72.9323 69.1532 72.4871 69.3274 72.0387C69.8726 70.6258 71.3097 69.6774 72.9032 69.6774H74.5161V53.5484H72.9032C71.3097 53.5484 69.8726 52.6 69.3274 51.1871C69.1548 50.7387 68.9694 50.2935 68.7758 49.8581C68.6129 49.4903 68.5258 49.1032 68.4935 48.7097H74.1758C81.1194 48.7097 87.8694 46.9258 93.871 43.529V82.9226C87.8694 79.5258 81.1194 77.7419 74.1758 77.7419ZM97.0968 87.4193V39.0323H100.323L100.326 87.4193H97.0968ZM103.548 69.6613V56.3774C105.563 57.9645 106.774 60.3742 106.774 63.0145C106.774 65.5984 105.568 68.0613 103.548 69.6613Z" fill="#F43E72"/>
<path d="M90.6455 87.4193H87.4197V106.774H80.9681V100.323H77.7423V106.774H71.2907V90.6451H68.0649V106.774H61.6133V97.0967H58.3875V106.774H51.9359V100.323H48.7101V106.774H45.4843V110H93.8713V106.774H90.6455V87.4193Z" fill="#F43E72"/>
</svg>
