<svg width="120" height="120" viewBox="0 0 120 120" fill="none" xmlns="http://www.w3.org/2000/svg">
<path d="M10.7907 72.9876V23.1719H101.944V46.4476H105V12.3249C105 9.79372 102.943 7.73438 100.416 7.73438H12.3187C9.79095 7.73417 7.73438 9.79372 7.73438 12.3249V72.9876C7.73438 75.5188 9.79095 77.5781 12.3187 77.5781H33.3048V74.5177H12.3187C11.476 74.5177 10.7907 73.8315 10.7907 72.9876ZM10.7907 12.3249C10.7907 11.481 11.4762 10.7948 12.3187 10.7948H100.415C101.258 10.7948 101.944 11.4812 101.944 12.3249V20.1117H10.7907V12.3249Z" fill="#F43E72"/>
<path d="M14.5312 13.8281H77.8125V16.875H14.5312V13.8281Z" fill="#F43E72"/>
<path d="M89.0625 13.8281H92.1094V16.875H89.0625V13.8281Z" fill="#F43E72"/>
<path d="M82.9688 13.8281H86.0156V16.875H82.9688V13.8281Z" fill="#F43E72"/>
<path d="M95.1562 13.8281H98.2031V16.875H95.1562V13.8281Z" fill="#F43E72"/>
<path d="M55.7812 28.125H15.9375V50.8594H55.781V28.125H55.7812ZM52.713 47.8146H19.0057V31.1698H52.713V47.8146Z" fill="#F43E72"/>
<path d="M16.4062 53.9062H19.4531V56.9531H16.4062V53.9062Z" fill="#F43E72"/>
<path d="M22.5 53.9062H25.5469V56.9531H22.5V53.9062Z" fill="#F43E72"/>
<path d="M28.5938 53.9062H55.5469V56.9531H28.5938V53.9062Z" fill="#F43E72"/>
<path d="M16.4062 60.2344H55.5469V63.2812H16.4062V60.2344Z" fill="#F43E72"/>
<path d="M44.7656 84.8438H77.8125V87.8906H44.7656V84.8438Z" fill="#7248FF"/>
<path d="M44.7656 90.9375H77.8125V93.9844H44.7656V90.9375Z" fill="#7248FF"/>
<path d="M107.683 49.4531H67.6244C65.0974 49.4531 63.0415 51.5074 63.0415 54.0324V71.2302H41.1454C38.6182 71.2302 36.5625 73.2845 36.5625 75.8095V97.9937C36.5625 100.519 38.6184 102.573 41.1454 102.573H44.4383V112.266L58.7862 102.573H81.2037C83.7307 102.573 85.7866 100.519 85.7866 97.9937V80.796H90.042L104.39 90.4886V80.796H107.683C110.21 80.796 112.266 78.7416 112.266 76.2167V54.0324C112.266 51.5074 110.21 49.4531 107.683 49.4531ZM82.7313 97.9937C82.7313 98.8355 82.046 99.5201 81.2037 99.5201H57.8504L47.4938 106.516V99.5201H41.1456C40.3031 99.5201 39.618 98.8353 39.618 97.9937V75.8097C39.618 74.9679 40.3033 74.2833 41.1456 74.2833H63.0417V76.2167C63.0417 78.7416 65.0976 80.796 67.6246 80.796H82.7313V97.9937ZM109.21 76.2167C109.21 77.0585 108.525 77.743 107.683 77.743H101.335V84.7394L90.9779 77.743H67.6244C66.782 77.743 66.0968 77.0583 66.0968 76.2167V54.0324C66.0968 53.1906 66.7822 52.506 67.6244 52.506H107.683C108.525 52.506 109.21 53.1908 109.21 54.0324V76.2167Z" fill="#F43E72"/>
<path d="M95.3692 55.9521C93.0114 54.9233 90.429 55.1532 88.3593 56.5147C86.29 55.1534 83.7071 54.9235 81.3498 55.9521C78.5895 57.1567 76.875 59.7863 76.875 62.8144C76.875 69.898 87.4022 74.5513 87.8504 74.7459L88.4357 75L89.0273 74.7618C89.4689 74.5838 99.8438 70.3198 99.8438 62.8144C99.8435 59.7861 98.129 57.1565 95.3692 55.9521ZM88.4775 71.6404C85.6384 70.2717 79.9415 66.7187 79.9415 62.8144C79.9415 61.0094 80.9237 59.5031 82.5692 58.7848C83.0875 58.5588 83.7096 58.411 84.3689 58.411C85.3409 58.411 86.393 58.7322 87.3109 59.5978L88.3593 60.5864L89.4076 59.5978C90.9479 58.1445 92.867 58.2254 94.1495 58.7848C95.7946 59.5027 96.7771 61.0092 96.7771 62.8144C96.7771 66.9878 91.2475 70.3752 88.4775 71.6404Z" fill="#7248FF"/>
</svg>
