<svg width="121" height="120" viewBox="0 0 121 120" fill="none" xmlns="http://www.w3.org/2000/svg">
<path d="M60.4999 29.6512C61.3668 29.6512 62.0697 28.7263 62.0697 27.5859V17.0653C62.0697 15.9248 61.3669 15 60.4999 15C59.633 15 58.9302 15.9246 58.9302 17.0653V27.5859C58.9303 28.7263 59.6331 29.6512 60.4999 29.6512Z" fill="#7248FF"/>
<path d="M45.7842 32.8957C46.168 33.5041 46.8237 33.8372 47.4942 33.8372C47.8621 33.8372 48.2347 33.7368 48.5689 33.5265C49.5122 32.9328 49.7949 31.6876 49.2005 30.7453L43.8205 22.2206C43.2258 21.2785 41.979 20.996 41.0358 21.5899C40.0924 22.1835 39.8097 23.4287 40.4042 24.371L45.7842 32.8957Z" fill="#7248FF"/>
<path d="M72.4325 33.5271C72.7668 33.737 73.1392 33.8372 73.5069 33.8372C74.1781 33.8372 74.8345 33.5037 75.2186 32.8949L80.596 24.3701C81.1904 23.4276 80.907 22.1828 79.9627 21.5891C79.0179 20.9961 77.7711 21.2792 77.1765 22.2213L71.7991 30.7461C71.2047 31.6888 71.4883 32.9336 72.4325 33.5271Z" fill="#7248FF"/>
<path d="M110.617 61.7825L107.172 55.5999C106.632 54.6314 105.422 54.291 104.47 54.8393C103.517 55.3874 103.182 56.6162 103.721 57.5841L107.165 63.7641C107.337 64.0747 107.292 64.3742 107.25 64.5251C107.21 64.6703 107.098 64.9384 106.807 65.102L101.498 68.0897C101.026 68.3543 100.41 68.1872 100.153 67.7263L98.8045 65.3024C98.799 65.2915 98.7926 65.2814 98.7869 65.2708L84.8429 40.215C84.6706 39.9066 84.7143 39.6109 84.7555 39.4621C84.7954 39.3181 84.906 39.052 85.1974 38.8882L90.5129 35.8999C90.9905 35.6312 91.5911 35.7944 91.8522 36.2645L94.9598 41.8425C95.4993 42.8107 96.7093 43.1509 97.6617 42.6033C98.6148 42.0554 98.9499 40.8263 98.4106 39.8583L95.3044 34.2827C93.9796 31.8967 90.9695 31.0408 88.5939 32.3748L83.2786 35.3631C82.1285 36.0089 81.2976 37.0762 80.9391 38.3692C80.6009 39.5882 80.7218 40.8608 81.2756 41.9777L78.3476 42.8398C77.1003 43.2063 76.3433 43.4051 75.9232 43.4051C75.9214 43.4051 75.9198 43.4051 75.9183 43.4051C75.629 43.4041 75.3135 43.2919 74.4132 42.9455C74.0048 42.7884 73.4963 42.5926 72.8711 42.371L67.6835 40.5286C64.8144 39.5106 63.5204 39.5654 61.6456 39.7393L52.7998 40.5435C48.7673 40.9065 46.1964 41.8306 44.7772 43.4333L39.7361 41.9495C40.2786 40.8374 40.395 39.5771 40.0599 38.3692C39.7014 37.0771 38.8711 36.0099 37.7222 35.3642L32.4099 32.3744C30.0323 31.0392 27.0204 31.8955 25.6954 34.2809L10.3886 61.7797C9.73333 62.9518 9.57115 64.315 9.93239 65.6184C10.2912 66.9128 11.122 67.9811 12.2699 68.6261L17.5822 71.6154C18.3418 72.042 19.167 72.2446 19.9812 72.2446C21.7111 72.2446 23.3928 71.3304 24.2967 69.7091L24.858 68.7004C26.3897 69.3854 27.6759 70.3807 28.5524 71.559C27.6963 72.5754 27.157 73.8296 27.0058 75.1939C26.8059 76.998 27.3075 78.7681 28.4182 80.1791C29.5194 81.5779 31.094 82.4606 32.8548 82.6684C32.6684 84.4573 33.172 86.2101 34.2741 87.6053C35.4134 89.0523 37.0235 89.8965 38.7077 90.0957C38.5222 91.8819 39.024 93.6331 40.1227 95.0291C41.2233 96.431 42.7983 97.3155 44.5609 97.5233C44.3743 99.3136 44.8779 101.067 45.9801 102.463C47.2938 104.131 49.2332 105 51.1911 105C52.6527 105 54.1246 104.516 55.3534 103.519L59.5047 100.144C59.8344 99.8768 60.134 99.5813 60.4034 99.263L62.7747 101.187C64.001 102.182 65.4695 102.665 66.9291 102.664C68.888 102.664 70.8306 101.795 72.1461 100.124C72.8394 99.2437 73.2784 98.2386 73.4766 97.2011C74.17 97.4448 74.9019 97.5707 75.6482 97.5705C75.8984 97.5705 76.1502 97.5564 76.4028 97.528C78.1793 97.3276 79.7678 96.4401 80.8715 95.0338C81.9756 93.6363 82.4792 91.8837 82.2931 90.0951C83.9761 89.8955 85.587 89.0515 86.7296 87.6051C87.8677 86.1595 88.3245 84.3797 88.1456 82.668C89.9054 82.4598 91.4793 81.5773 92.5778 80.1817C93.6893 78.7745 94.1931 77.0071 93.9962 75.2043C93.8467 73.8359 93.3071 72.5774 92.4494 71.5582C93.3233 70.3803 94.6069 69.3838 96.1397 68.6992L96.7021 69.7099C97.6054 71.3306 99.2863 72.2444 101.017 72.2444C101.831 72.2442 102.657 72.0416 103.418 71.6146L108.727 68.6267C109.874 67.9821 110.705 66.9154 111.065 65.6233C111.428 64.3211 111.269 62.9578 110.617 61.7825ZM20.8457 67.7253C20.5879 68.1878 19.9719 68.3545 19.5022 68.0905L14.1901 65.1014C13.9001 64.9382 13.7894 64.6711 13.749 64.5263C13.7075 64.3762 13.6633 64.0783 13.8382 63.7661L29.1474 36.2619C29.3227 35.9463 29.653 35.7694 29.996 35.7694C30.1629 35.7694 30.3326 35.8111 30.4893 35.8991L35.8 38.8878C35.8006 38.8882 35.8012 38.8886 35.8018 38.8888C36.0924 39.0522 36.2029 39.3183 36.2429 39.4623C36.2841 39.6112 36.3278 39.9068 36.1535 40.2186L20.8457 67.7253ZM35.3138 78.0905C34.7547 78.5455 34.0487 78.7512 33.3272 78.6696C32.6053 78.5882 31.962 78.2309 31.5151 77.6633C31.0672 77.0943 30.8654 76.3772 30.9465 75.6444C31.0272 74.9147 31.3791 74.2643 31.941 73.8101L39.3636 67.7823C40.5286 66.8374 42.2339 67.0318 43.1649 68.2132C43.6126 68.7818 43.8146 69.4976 43.7337 70.2282C43.6532 70.9563 43.3011 71.6061 42.7424 72.0577C42.7301 72.0676 42.7196 72.0787 42.7077 72.0889L35.3156 78.0891C35.315 78.0895 35.3144 78.0901 35.3138 78.0905ZM37.3687 85.0867C36.9212 84.5201 36.7189 83.8061 36.7988 83.0761C36.8787 82.3456 37.2311 81.6921 37.7906 81.2363L37.7912 81.2359C37.7916 81.2357 37.792 81.2353 37.7923 81.2351C37.7925 81.2351 37.7925 81.2349 37.7927 81.2347L48.4844 72.5566C49.6492 71.6115 51.3548 71.8045 52.2857 72.9875C52.7328 73.5553 52.9348 74.2703 52.8549 75.0007C52.7748 75.7318 52.4215 76.3853 51.8606 76.8405L41.1718 85.5153C40.0056 86.4608 38.3005 86.2701 37.3687 85.0867ZM45.0332 93.5243C44.3115 93.4429 43.6687 93.0852 43.2212 92.5152C42.7741 91.9474 42.5721 91.2323 42.652 90.502C42.7321 89.7714 43.0848 89.1186 43.6449 88.6634C43.6453 88.663 43.6459 88.6626 43.6463 88.6622L51.0452 82.6574C51.0539 82.6505 51.0634 82.6447 51.0721 82.6376C52.2339 81.6927 53.939 81.8851 54.8709 83.065C55.3187 83.6339 55.5208 84.3509 55.4397 85.0837C55.3588 85.8134 55.0069 86.4638 54.4452 86.918L47.0228 92.9456C46.4619 93.4006 45.7551 93.6053 45.0332 93.5243ZM58.0231 95.1595C57.9428 95.89 57.5905 96.542 57.0294 96.9972L52.8779 100.372C51.7115 101.318 50.0064 101.128 49.075 99.9443C48.6275 99.3781 48.4251 98.6634 48.505 97.932C48.5849 97.2007 48.9368 96.5483 49.4953 96.0951C49.4959 96.0947 49.4967 96.0941 49.4973 96.0937L53.6478 92.723C53.65 92.7212 53.6523 92.7198 53.6545 92.7182C54.8197 91.7735 56.525 91.9671 57.456 93.1491C57.9019 93.7159 58.1036 94.4295 58.0231 95.1595ZM89.4833 77.6631C89.0364 78.2307 88.3929 78.5882 87.6712 78.6696C86.9501 78.752 86.2437 78.5457 85.6846 78.0905C85.6844 78.0903 85.684 78.0901 85.6836 78.0899C85.6834 78.0897 85.683 78.0895 85.6828 78.0893L80.3776 73.7831C79.5219 73.0886 78.2744 73.2304 77.5912 74.0993C76.9078 74.9683 77.0472 76.2358 77.9025 76.9301L83.2059 81.2349C84.3693 82.1814 84.561 83.9104 83.6351 85.0865C82.7009 86.2693 80.9956 86.4616 79.8314 85.5143L74.0768 80.849C73.2211 80.1553 71.9736 80.2977 71.2906 81.167C70.6077 82.0364 70.7477 83.3037 71.6036 83.9976L77.3555 88.6608C77.916 89.1168 78.2687 89.7706 78.3488 90.502C78.4287 91.2319 78.2264 91.9462 77.7752 92.5172C77.3293 93.0852 76.6865 93.4427 75.965 93.5243C75.2428 93.6051 74.536 93.4002 73.9772 92.9472L71.1139 90.6208C71.1089 90.6168 71.1046 90.6125 71.0996 90.6085L68.6804 88.6436L68.2282 88.2762C67.3727 87.5813 66.1252 87.7225 65.4416 88.5911C65.3561 88.6998 65.2833 88.8146 65.2235 88.9339C64.9364 89.5039 64.9411 90.1724 65.2106 90.733C65.3353 90.9926 65.5149 91.2297 65.7516 91.4221L68.6306 93.7612C69.7863 94.7093 69.9753 96.4324 69.05 97.6077C68.1187 98.7903 66.4132 98.9835 65.2488 98.0398L61.9824 95.3887C62.1184 93.6647 61.6156 91.9834 60.5521 90.6325C59.8911 89.7932 59.0713 89.1575 58.171 88.7311C58.8308 87.8011 59.2497 86.7086 59.3798 85.5339C59.5797 83.7299 59.078 81.9598 57.9654 80.5465C57.3042 79.7093 56.4853 79.0751 55.5868 78.6497C56.2478 77.7169 56.6667 76.6221 56.7956 75.4458C56.9929 73.6459 56.4909 71.8792 55.3822 70.4707C53.4745 68.0476 50.2483 67.311 47.5632 68.4688C47.3483 67.4661 46.9092 66.5202 46.2608 65.6966C43.9653 62.7824 39.7617 62.3056 36.8887 64.6345L31.5799 68.9455C30.3794 67.3891 28.7475 66.0984 26.818 65.1779L37.7382 45.5551L43.5525 47.2666C43.5791 47.5826 43.6295 47.915 43.7137 48.2671C45.1212 54.1462 50.4494 56.8855 57.6192 55.4178C63.6603 54.1829 66.1474 56.0225 71.1006 59.6869C71.6145 60.067 72.1485 60.462 72.7074 60.8687C76.2696 63.465 80.0763 66.5168 82.6285 68.5852L89.0642 73.8105C89.6233 74.2637 89.9752 74.9163 90.0551 75.6483C90.135 76.3796 89.9328 77.0943 89.4833 77.6631ZM89.4217 68.9443L85.1029 65.4378C82.5153 63.3407 78.6549 60.2463 75.0177 57.5952C74.4666 57.1941 73.941 56.8052 73.435 56.4309C68.2987 52.6311 64.5866 49.8857 56.8369 51.4691C54.4648 51.9547 48.8135 52.5225 47.567 47.3162C47.3913 46.5812 47.5698 46.3286 47.6457 46.2208C47.9108 45.8454 48.9775 44.9315 53.1507 44.5561L62.0058 43.751C63.4488 43.6172 64.1727 43.55 66.375 44.3315L71.5632 46.1741C72.1399 46.3787 72.6011 46.556 73.0081 46.7127C75.5063 47.6741 76.1683 47.6739 79.4501 46.7089L83.2751 45.5829L94.1806 65.1791C92.2505 66.099 90.6202 67.3887 89.4217 68.9443Z" fill="#F43E72"/>
<path d="M101.837 51.6279C102.993 51.6279 103.93 50.6885 103.93 49.5333C103.93 48.3782 102.993 47.4419 101.837 47.4419C100.681 47.4419 99.7441 48.3784 99.7441 49.5333V49.5392C99.7441 50.6943 100.681 51.6279 101.837 51.6279Z" fill="#F43E72"/>
</svg>
