<svg width="121" height="120" viewBox="0 0 121 120" fill="none" xmlns="http://www.w3.org/2000/svg">
<path d="M54.2 37.9474C54.2 34.7232 51.3749 32.1 47.9027 32.1C44.4274 32.1 41.6 34.7232 41.6 37.9474C41.6 41.1745 44.4276 43.8 47.9027 43.8C51.3751 43.7998 54.2 41.1745 54.2 37.9474ZM45.4509 37.9474C45.4509 36.694 46.5508 35.6743 47.9027 35.6743C49.2517 35.6743 50.349 36.694 50.349 37.9474C50.349 39.2036 49.2517 40.2257 47.9027 40.2257C46.5508 40.2255 45.4509 39.2036 45.4509 37.9474Z" fill="#7248FF"/>
<path d="M73.1026 43.8C76.5749 43.8 79.3999 41.1746 79.3999 37.9474C79.3999 34.7232 76.5749 32.1 73.1026 32.1C69.6273 32.1 66.7999 34.7232 66.7999 37.9474C66.7997 41.1746 69.6273 43.8 73.1026 43.8ZM73.1026 35.6745C74.4516 35.6745 75.549 36.6942 75.549 37.9476C75.549 39.2038 74.4516 40.2258 73.1026 40.2258C71.7507 40.2258 70.6509 39.2038 70.6509 37.9476C70.6507 36.6942 71.7505 35.6745 73.1026 35.6745Z" fill="#7248FF"/>
<path d="M83.8988 79.8H83.9038C84.8971 79.8 85.7 78.9941 85.7 78C85.7 77.0058 84.892 76.2 83.8986 76.2C82.9052 76.2 82.1 77.0058 82.1 78C82.1 78.9941 82.9056 79.8 83.8988 79.8Z" fill="#F43E72"/>
<path d="M99.3001 72.5915H94.9565V68.8733C94.9565 67.8712 94.1378 67.0588 93.1283 67.0588H91.0181V60.7345H97.507C98.5165 60.7345 99.3352 59.9222 99.3352 58.92C99.3352 49.3493 95.7787 40.1706 89.3211 33.0748C89.2876 33.0381 89.2533 33.0025 89.2196 32.9659L94.7583 27.465C95.7449 28.0137 96.8608 28.3071 98.0226 28.3071C99.8118 28.3071 101.494 27.6152 102.757 26.3603C104.026 25.104 104.724 23.4324 104.724 21.6536C104.724 19.8754 104.027 18.2046 102.759 16.9484C101.494 15.6919 99.812 15 98.0228 15C96.2336 15 94.5515 15.6919 93.2863 16.9484C91.1216 19.0981 90.7525 22.3642 92.1751 24.8969L86.6348 30.3993C80.9697 25.2758 73.9202 21.9287 66.3364 20.7912V19.9346C66.3364 18.0032 64.7538 16.432 62.8085 16.432H58.1863C56.241 16.432 54.6584 18.0032 54.6584 19.9346V20.7912C47.0747 21.9287 40.0255 25.276 34.3612 30.3998L28.8246 24.8975C30.2476 22.3648 29.8783 19.0981 27.712 16.9468C25.0961 14.3558 20.8452 14.3569 18.2355 16.9484C15.6233 19.5428 15.6233 23.7643 18.2355 26.3587C19.5406 27.6548 21.2558 28.3028 22.972 28.3028C24.0992 28.3028 25.2259 28.0213 26.238 27.4621L31.7768 32.9666C31.7435 33.0029 31.7094 33.0383 31.6761 33.0748C25.2201 40.1702 21.6645 49.3488 21.6645 58.9198C21.6645 59.922 22.4832 60.7343 23.4927 60.7343H29.9816V67.0587H27.8663C26.8568 67.0587 26.0381 67.871 26.0381 68.8732V72.5913H21.6998C17.2887 72.5913 13.7 76.155 13.7 80.5354V103.185C13.7 104.188 14.5186 105 15.5281 105H105.472C106.481 105 107.3 104.188 107.3 103.185V80.5354C107.3 76.1552 103.711 72.5915 99.3001 72.5915ZM95.8723 19.5138C96.4469 18.9431 97.2105 18.629 98.0228 18.629C98.835 18.629 99.5986 18.9431 100.173 19.5138C100.174 19.5143 100.174 19.5149 100.175 19.5154C100.751 20.0861 101.068 20.8455 101.068 21.6536C101.068 22.4618 100.751 23.221 100.173 23.7933C99.5988 24.3638 98.8352 24.6779 98.0229 24.6779C97.2107 24.6779 96.4471 24.3638 95.8725 23.7933C94.6842 22.6135 94.6842 20.6936 95.8723 19.5138ZM25.1294 23.7917C23.9396 24.9699 22.0071 24.9709 20.8218 23.7935C19.6339 22.6137 19.6339 20.6938 20.8218 19.514C22.0075 18.3364 23.9402 18.3374 25.1277 19.514C26.3157 20.6936 26.3157 22.6135 25.1294 23.7917ZM26.0381 101.371H17.3562V80.5354C17.3562 78.1561 19.3046 76.2203 21.6998 76.2203H26.0381V101.371ZM58.3146 22.3785C58.3146 22.3767 58.3146 22.3747 58.3146 22.3727V20.061H62.6802V22.3727V22.3785V25.7936H58.3146V22.3785ZM25.3672 57.1053C26.2082 40.7066 38.3919 27.1493 54.6584 24.4656V25.9199C54.6584 27.8513 56.241 29.4225 58.1863 29.4225H62.8085C64.7538 29.4225 66.3364 27.8513 66.3364 25.9199V24.4656C82.6056 27.1495 94.7915 40.7068 95.6327 57.1053H75.7884V50.994C75.7884 49.9919 74.9697 49.1795 73.9603 49.1795H47.0396C46.0302 49.1795 45.2115 49.9919 45.2115 50.994V57.1053H25.3672ZM72.1321 52.8087V57.1055H66.813V52.8087H72.1321ZM63.1568 52.8087V57.1055H57.8378V52.8087H63.1568ZM54.1816 52.8087V57.1055H48.8678V52.8087H54.1816ZM52.3732 101.371H43.4267V91.9123H52.3732V101.371ZM64.9704 101.371H56.0295V91.9123H64.9704V101.371ZM77.5679 101.371H68.6267V91.9123H77.5679V101.371ZM91.3002 101.371H81.2241V90.0977C81.2241 89.0956 80.4055 88.2832 79.396 88.2832H41.5986C40.5891 88.2832 39.7705 89.0956 39.7705 90.0977V101.371H29.6944V70.6879H52.2891C53.2986 70.6879 54.1172 69.8755 54.1172 68.8733C54.1172 67.8712 53.2986 67.0588 52.2891 67.0588H33.638V60.7345H87.3621V67.0588H68.7057C67.6962 67.0588 66.8775 67.8712 66.8775 68.8733C66.8775 69.8755 67.6962 70.6879 68.7057 70.6879H91.3002V101.371ZM103.644 101.371H94.9565V76.2205H99.3001C101.695 76.2205 103.644 78.1562 103.644 80.5356V101.371Z" fill="#F43E72"/>
<path d="M37.0973 76.2C36.1048 76.2 35.2999 77.0058 35.2999 78C35.2999 78.9941 36.1048 79.8 37.0973 79.8H37.1076C38.1001 79.8 38.8999 78.9941 38.8999 78C38.8999 77.0058 38.09 76.2 37.0973 76.2Z" fill="#F43E72"/>
<path d="M60.4973 67.2C59.5048 67.2 58.7 68.0058 58.7 69C58.7 69.9941 59.5048 70.8 60.4973 70.8H60.5077C61.5001 70.8 62.3 69.9941 62.3 69C62.3 68.0058 61.4899 67.2 60.4973 67.2Z" fill="#F43E72"/>
</svg>
