<svg width="120" height="120" viewBox="0 0 120 120" fill="none" xmlns="http://www.w3.org/2000/svg">
<path fill-rule="evenodd" clip-rule="evenodd" d="M28.126 66.5634C28.126 65.5282 27.286 64.6882 26.251 64.6882H7.50098C6.46598 64.6882 5.62598 65.5282 5.62598 66.5634V92.8133C5.62598 93.8485 6.46598 94.6885 7.50098 94.6885H26.251C27.286 94.6885 28.126 93.8485 28.126 92.8133V66.5634ZM9.37598 68.4387V90.9381H24.376V68.4387H9.37598Z" fill="#F43E72"/>
<path fill-rule="evenodd" clip-rule="evenodd" d="M58.126 47.8137C58.126 46.777 57.286 45.9382 56.251 45.9382H37.501C36.466 45.9382 35.626 46.777 35.626 47.8137V92.8134C35.626 93.8484 36.466 94.6889 37.501 94.6889H56.251C57.286 94.6889 58.126 93.8484 58.126 92.8134V47.8137ZM39.376 49.6893V90.9379H54.376V49.6893H39.376Z" fill="#F43E72"/>
<path fill-rule="evenodd" clip-rule="evenodd" d="M7.49907 102.188H86.2491C87.2845 102.188 88.124 101.348 88.124 100.313C88.124 99.2778 87.2845 98.4378 86.2491 98.4378H7.49907C6.46359 98.4378 5.62415 99.2778 5.62415 100.313C5.62415 101.348 6.46359 102.188 7.49907 102.188Z" fill="#F43E72"/>
<path fill-rule="evenodd" clip-rule="evenodd" d="M65.626 32.8109H56.251C55.4922 32.8109 54.8085 32.3534 54.5185 31.6522C54.2285 30.9528 54.3885 30.1465 54.9247 29.6103L75.5497 8.98716C76.2822 8.25404 77.4697 8.25404 78.2022 8.98716L98.8272 29.6122C99.3635 30.1484 99.5235 30.9547 99.2335 31.6559C98.9435 32.3553 98.2597 32.8128 97.501 32.8128H88.126V59.0628C88.126 60.0978 87.286 60.9378 86.251 60.9378C85.216 60.9378 84.376 60.0978 84.376 59.0628V30.9378C84.376 29.9028 85.216 29.0628 86.251 29.0628H92.9747L76.876 12.964L60.7785 29.0609H67.501C68.536 29.0609 69.376 29.9009 69.376 30.9359V64.6878C69.376 65.7228 68.536 66.5628 67.501 66.5628C66.466 66.5628 65.626 65.7228 65.626 64.6878V32.8109Z" fill="#F43E72"/>
<path fill-rule="evenodd" clip-rule="evenodd" d="M91.6969 91.5359C89.1544 93.5103 85.9631 94.6878 82.5 94.6878C74.2219 94.6878 67.5 87.9659 67.5 79.6878C67.5 71.4097 74.2219 64.6878 82.5 64.6878C90.7781 64.6878 97.5 71.4097 97.5 79.6878C97.5 83.1509 96.3225 86.3422 94.3481 88.8847L98.4375 92.9741L99.9244 91.4872C100.656 90.7541 101.844 90.7541 102.576 91.4872L113.826 102.737C114.559 103.468 114.559 104.657 113.826 105.388L108.201 111.013C107.469 111.747 106.281 111.747 105.549 111.013L94.2994 99.7634C93.5662 99.0322 93.5662 97.8434 94.2994 97.1122L95.7862 95.6253L91.6969 91.5359ZM98.2763 98.4378L106.875 107.037L109.849 104.063L101.25 95.4641L98.2763 98.4378ZM82.5 68.4378C88.7081 68.4378 93.75 73.4797 93.75 79.6878C93.75 85.8959 88.7081 90.9378 82.5 90.9378C76.2919 90.9378 71.25 85.8959 71.25 79.6878C71.25 73.4797 76.2919 68.4378 82.5 68.4378Z" fill="#7248FF"/>
<path fill-rule="evenodd" clip-rule="evenodd" d="M93.75 55.3128C94.2473 55.3128 94.7242 55.1153 95.0758 54.7636C95.4275 54.412 95.625 53.9351 95.625 53.4378C95.625 52.9405 95.4275 52.4636 95.0758 52.112C94.7242 51.7603 94.2473 51.5628 93.75 51.5628C93.2527 51.5628 92.7758 51.7603 92.4242 52.112C92.0725 52.4636 91.875 52.9405 91.875 53.4378C91.875 53.9351 92.0725 54.412 92.4242 54.7636C92.7758 55.1153 93.2527 55.3128 93.75 55.3128Z" fill="#F43E72"/>
<path fill-rule="evenodd" clip-rule="evenodd" d="M91.873 38.437V45.937C91.873 46.9717 92.713 47.812 93.748 47.812C94.783 47.812 95.623 46.9717 95.623 45.937V38.437C95.623 37.402 94.783 36.562 93.748 36.562C92.713 36.562 91.873 37.402 91.873 38.437Z" fill="#F43E72"/>
</svg>
