<svg width="28" height="28" viewBox="0 0 28 28" fill="none" xmlns="http://www.w3.org/2000/svg">
<path d="M14.0008 1V1.75L14.0013 1.75L14.0008 1ZM13.0589 1.03309L13.0077 0.28484L13.0049 0.285035L13.0589 1.03309ZM11.272 2.57421L10.5432 2.39706L10.5431 2.39729L11.272 2.57421ZM10.856 4.28788L11.5825 4.47417L11.5848 4.46481L10.856 4.28788ZM10.5901 4.54789L10.3388 3.84121L10.3345 3.84278L10.5901 4.54789ZM9.7297 4.90598L10.044 5.58698L10.0499 5.5842L9.7297 4.90598ZM9.35744 4.90835L8.96728 5.54888L8.96747 5.54899L9.35744 4.90835ZM7.85181 3.99124L7.46157 4.63172L7.46165 4.63177L7.85181 3.99124ZM5.5 4.16497L5.99019 4.73261L5.99124 4.7317L5.5 4.16497ZM4.16573 5.49809L3.59938 5.00641L3.59809 5.0079L4.16573 5.49809ZM3.99201 7.84995L4.63268 7.46003L4.63221 7.45925L3.99201 7.84995ZM4.26842 9.74672C4.48377 10.1006 4.94518 10.2128 5.29902 9.99747C5.65285 9.78212 5.76511 9.32071 5.54977 8.96687L4.26842 9.74672ZM5.54963 19.0338C5.7651 18.6801 5.653 18.2186 5.29924 18.0032C4.94548 17.7877 4.48403 17.8998 4.26856 18.2536L5.54963 19.0338ZM3.99201 20.1494L4.6325 20.5396L4.63254 20.5395L3.99201 20.1494ZM4.16573 22.5012L4.73339 22.0111L4.73247 22.01L4.16573 22.5012ZM5.49882 23.8355L5.00713 24.4019L5.00862 24.4032L5.49882 23.8355ZM7.85062 24.0093L7.46069 23.3686L7.45992 23.3691L7.85062 24.0093ZM9.35744 23.0921L9.74737 23.7328L9.7474 23.7328L9.35744 23.0921ZM9.7297 23.0945L10.0502 22.4164L10.0483 22.4155L9.7297 23.0945ZM10.5901 23.4514L10.8506 22.7481L10.8434 22.7455L10.5901 23.4514ZM10.856 23.7126L11.5848 23.5357L11.5847 23.5351L10.856 23.7126ZM11.272 25.4263L10.5431 25.6032L10.5432 25.6034L11.272 25.4263ZM13.0589 26.9662L13.1126 26.2181L13.1118 26.2181L13.0589 26.9662ZM14.9427 26.9662L14.8897 26.2181L14.8889 26.2181L14.9427 26.9662ZM16.7296 25.4263L17.4584 25.6034L17.4584 25.6032L16.7296 25.4263ZM17.1456 23.7126L16.419 23.5263L16.4167 23.5357L17.1456 23.7126ZM17.4115 23.4526L17.6628 24.1593L17.6673 24.1576L17.4115 23.4526ZM18.273 23.0945L17.9567 22.4145L17.9537 22.4159L18.273 23.0945ZM18.6441 23.0921L19.0343 22.4516L19.0341 22.4515L18.6441 23.0921ZM20.1497 24.0093L20.54 23.3688L20.5399 23.3687L20.1497 24.0093ZM22.5016 23.8355L22.0114 23.2679L22.0103 23.2688L22.5016 23.8355ZM23.8358 22.5024L24.4022 22.9941L24.4035 22.9926L23.8358 22.5024ZM24.0095 20.1505L23.3689 20.5405L23.3693 20.5412L24.0095 20.1505ZM23.0925 18.6437L23.7331 18.2538L23.7331 18.2537L23.0925 18.6437ZM23.0948 18.2714L22.4167 17.951L22.4158 17.9528L23.0948 18.2714ZM23.4517 17.411L22.7484 17.1505L22.7458 17.1577L23.4517 17.411ZM23.7129 17.1451L23.536 16.4163L23.5354 16.4164L23.7129 17.1451ZM25.4265 16.7291L25.6035 17.4579L25.6037 17.4579L25.4265 16.7291ZM26.9664 14.9422L26.2184 14.8884L26.2183 14.8892L26.9664 14.9422ZM26.9664 13.0583L26.2183 13.1113L26.2184 13.1121L26.9664 13.0583ZM25.4265 11.2714L25.6037 10.5426L25.6035 10.5425L25.4265 11.2714ZM23.7129 10.8554L23.5266 11.5819L23.536 11.5842L23.7129 10.8554ZM23.4529 10.5895L24.1596 10.3382L24.158 10.3338L23.4529 10.5895ZM23.0948 9.72908L22.4138 10.0434L22.4166 10.0492L23.0948 9.72908ZM23.0925 9.3568L22.4519 8.96665L22.4518 8.96684L23.0925 9.3568ZM24.0095 7.85113L23.3691 7.46091L23.369 7.46099L24.0095 7.85113ZM23.8358 5.49927L23.2682 5.98944L23.2691 5.9905L23.8358 5.49927ZM22.5027 4.16497L22.9944 3.59863L22.9929 3.59734L22.5027 4.16497ZM20.1509 3.99124L20.5409 4.63191L20.5416 4.63143L20.1509 3.99124ZM18.6441 4.90835L18.2542 4.26768L18.2541 4.2677L18.6441 4.90835ZM18.2718 4.90598L17.9525 5.58461L17.9532 5.58495L18.2718 4.90598ZM17.4115 4.54907L17.151 5.2524L17.1567 5.25445L17.4115 4.54907ZM17.1456 4.28788L16.4167 4.46481L16.4169 4.46539L17.1456 4.28788ZM16.7296 2.57421L17.4584 2.39729L17.4584 2.39706L16.7296 2.57421ZM14.9427 1.03309L14.9966 0.285035L14.9958 0.284978L14.9427 1.03309ZM1 13.25C0.585786 13.25 0.25 13.5858 0.25 14C0.25 14.4142 0.585786 14.75 1 14.75V13.25ZM12 14L12.538 14.5225C12.8236 14.2284 12.8202 13.7595 12.5303 13.4697L12 14ZM14.0008 0.250003C13.6654 0.250003 13.3339 0.262514 13.0077 0.284845L13.1101 1.78134C13.4055 1.76113 13.7027 1.75 14.0008 1.75V0.250003ZM13.0049 0.285035C11.7469 0.375723 10.8099 1.29992 10.5432 2.39706L12.0007 2.75137C12.1288 2.22466 12.5674 1.82047 13.1128 1.78115L13.0049 0.285035ZM10.5431 2.39729L10.1271 4.11096L11.5848 4.46481L12.0008 2.75114L10.5431 2.39729ZM10.1295 4.10161C10.1717 3.93679 10.2785 3.86267 10.3388 3.84123L10.8413 5.25455C11.2207 5.11965 11.4929 4.82334 11.5825 4.47416L10.1295 4.10161ZM10.3345 3.84278C10.0203 3.95664 9.71168 4.08511 9.40951 4.22777L10.0499 5.5842C10.3098 5.46148 10.5754 5.35096 10.8456 5.253L10.3345 3.84278ZM9.4154 4.22502C9.46257 4.20325 9.59219 4.17322 9.7474 4.2677L8.96747 5.54899C9.28577 5.74275 9.68957 5.75054 10.044 5.58695L9.4154 4.22502ZM9.74759 4.26782L8.24196 3.35071L7.46165 4.63177L8.96728 5.54888L9.74759 4.26782ZM8.24204 3.35076C7.27761 2.76314 5.96225 2.77176 5.00876 3.59824L5.99124 4.7317C6.40393 4.37398 6.99838 4.3495 7.46157 4.63172L8.24204 3.35076ZM5.00981 3.59733C4.50537 4.03294 4.03449 4.50521 3.59938 5.00641L4.73209 5.98976C5.12188 5.54076 5.54209 5.11957 5.99018 4.73261L5.00981 3.59733ZM3.59809 5.0079C2.7748 5.96129 2.76308 7.27594 3.35181 8.24064L4.63221 7.45925C4.35112 6.99865 4.37485 6.40346 4.73338 5.98827L3.59809 5.0079ZM3.35133 8.23987L4.26842 9.74672L5.54977 8.96687L4.63268 7.46003L3.35133 8.23987ZM4.26856 18.2536L3.35147 19.7592L4.63254 20.5395L5.54963 19.0338L4.26856 18.2536ZM3.35152 19.7591C2.76392 20.7236 2.77253 22.039 3.59899 22.9925L4.73247 22.01C4.37476 21.5973 4.35028 21.0028 4.6325 20.5396L3.35152 19.7591ZM3.59808 22.9914C4.03368 23.4958 4.50594 23.9667 5.00713 24.4019L5.9905 23.2692C5.54152 22.8794 5.12033 22.4592 4.73339 22.0111L3.59808 22.9914ZM5.00862 24.4032C5.96199 25.2265 7.27664 25.2382 8.24133 24.6494L7.45992 23.3691C6.99934 23.6501 6.40418 23.6264 5.98901 23.2679L5.00862 24.4032ZM8.24056 24.6499L9.74737 23.7328L8.9675 22.4515L7.46069 23.3686L8.24056 24.6499ZM9.7474 23.7328C9.59581 23.8251 9.46502 23.7988 9.41111 23.7735L10.0483 22.4155C9.68711 22.2461 9.28216 22.2599 8.96747 22.4515L9.7474 23.7328ZM9.40925 23.7726C9.7109 23.9152 10.0205 24.0438 10.3367 24.1573L10.8434 22.7455C10.5735 22.6486 10.3087 22.5386 10.0502 22.4164L9.40925 23.7726ZM10.3296 24.1547C10.2863 24.1387 10.1712 24.0705 10.1273 23.8901L11.5847 23.5351C11.4958 23.1704 11.2129 22.8823 10.8506 22.7481L10.3296 24.1547ZM10.1271 23.8895L10.5431 25.6032L12.0008 25.2494L11.5848 23.5357L10.1271 23.8895ZM10.5432 25.6034C10.8099 26.7004 11.747 27.6252 13.0059 27.7143L13.1118 26.2181C12.5673 26.1796 12.1288 25.776 12.0007 25.2491L10.5432 25.6034ZM13.0051 27.7143C13.668 27.7619 14.3335 27.7619 14.9964 27.7143L14.8889 26.2181C14.2976 26.2606 13.704 26.2606 13.1126 26.2181L13.0051 27.7143ZM14.9956 27.7143C16.2546 27.6252 17.1917 26.7004 17.4584 25.6034L16.0008 25.2491C15.8727 25.776 15.4343 26.1796 14.8897 26.2181L14.9956 27.7143ZM17.4584 25.6032L17.8744 23.8895L16.4167 23.5357L16.0007 25.2494L17.4584 25.6032ZM17.8721 23.8989C17.8298 24.0637 17.7231 24.1378 17.6627 24.1593L17.1602 22.7459C16.7808 22.8808 16.5086 23.1772 16.4191 23.5263L17.8721 23.8989ZM17.6673 24.1576C17.9819 24.0434 18.2903 23.9153 18.5924 23.7731L17.9537 22.4159C17.6932 22.5385 17.4272 22.649 17.1556 22.7476L17.6673 24.1576ZM18.5893 23.7745C18.5389 23.798 18.4086 23.8268 18.2542 23.7328L19.0341 22.4515C18.7165 22.2582 18.3121 22.2492 17.9567 22.4145L18.5893 23.7745ZM18.254 23.7327L19.7596 24.6498L20.5399 23.3687L19.0343 22.4516L18.254 23.7327ZM19.7595 24.6497C20.7239 25.2373 22.0393 25.2287 22.9928 24.4023L22.0103 23.2688C21.5976 23.6265 21.0032 23.651 20.54 23.3688L19.7595 24.6497ZM22.9917 24.4032C23.4962 23.9676 23.9671 23.4953 24.4022 22.9941L23.2695 22.0107C22.8797 22.4597 22.4595 22.8809 22.0114 23.2679L22.9917 24.4032ZM24.4035 22.9926C25.2267 22.0392 25.2385 20.7245 24.6497 19.7598L23.3693 20.5412C23.6504 21.0018 23.6267 21.597 23.2682 22.0122L24.4035 22.9926ZM24.6502 19.7606L23.7331 18.2538L22.4518 19.0336L23.3689 20.5405L24.6502 19.7606ZM23.7331 18.2537C23.8254 18.4053 23.7991 18.5361 23.7738 18.59L22.4158 17.9528C22.2464 18.314 22.2603 18.719 22.4518 19.0337L23.7331 18.2537ZM23.7729 18.5919C23.9155 18.2902 24.0442 17.9806 24.1576 17.6644L22.7458 17.1577C22.6489 17.4276 22.5389 17.6924 22.4167 17.951L23.7729 18.5919ZM24.155 17.6715C24.139 17.7148 24.0708 17.8299 23.8904 17.8738L23.5354 16.4164C23.1706 16.5053 22.8826 16.7882 22.7484 17.1506L24.155 17.6715ZM23.8898 17.874L25.6035 17.4579L25.2496 16.0003L23.536 16.4163L23.8898 17.874ZM25.6037 17.4579C26.7007 17.1912 27.6255 16.254 27.7146 14.9951L26.2183 14.8892C26.1798 15.4338 25.7762 15.8723 25.2494 16.0003L25.6037 17.4579ZM27.7145 14.9959C27.7621 14.333 27.7621 13.6675 27.7145 13.0046L26.2184 13.1121C26.2608 13.7034 26.2608 14.2971 26.2184 14.8884L27.7145 14.9959ZM27.7146 13.0054C27.6255 11.7464 26.7007 10.8093 25.6037 10.5426L25.2494 12.0002C25.7762 12.1282 26.1798 12.5667 26.2183 13.1113L27.7146 13.0054ZM25.6035 10.5425L23.8898 10.1265L23.536 11.5842L25.2496 12.0002L25.6035 10.5425ZM23.8992 10.1289C24.064 10.1711 24.1381 10.2779 24.1596 10.3382L22.7462 10.8407C22.8811 11.2201 23.1774 11.4923 23.5266 11.5819L23.8992 10.1289ZM24.158 10.3338C24.0441 10.0197 23.9157 9.71111 23.7731 9.40897L22.4166 10.0492C22.5393 10.3092 22.6498 10.5748 22.7478 10.8451L24.158 10.3338ZM23.7758 9.41478C23.7976 9.46194 23.8276 9.59155 23.7331 9.74675L22.4518 8.96684C22.2581 9.28514 22.2503 9.68893 22.4139 10.0434L23.7758 9.41478ZM23.733 9.74694L24.6501 8.24128L23.369 7.46099L22.4519 8.96665L23.733 9.74694ZM24.65 8.24135C25.2376 7.27691 25.229 5.96154 24.4026 5.00804L23.2691 5.9905C23.6268 6.4032 23.6513 6.99769 23.3691 7.46091L24.65 8.24135ZM24.4035 5.0091C23.9679 4.50464 23.4956 4.03375 22.9944 3.59863L22.011 4.73131C22.46 5.12112 22.8812 5.54133 23.2682 5.98944L24.4035 5.0091ZM22.9929 3.59734C22.0396 2.77403 20.7249 2.7623 19.7602 3.35105L20.5416 4.63143C21.0022 4.35035 21.5974 4.37408 22.0125 4.7326L22.9929 3.59734ZM19.761 3.35058L18.2542 4.26768L19.034 5.54901L20.5409 4.6319L19.761 3.35058ZM18.2541 4.2677C18.4057 4.17542 18.5365 4.20172 18.5904 4.22702L17.9532 5.58495C18.3144 5.75443 18.7194 5.74055 19.0341 5.54899L18.2541 4.2677ZM18.5912 4.22736C18.289 4.08518 17.9804 3.95715 17.6663 3.84369L17.1567 5.25445C17.4269 5.35209 17.6925 5.46226 17.9525 5.58461L18.5912 4.22736ZM17.672 3.84576C17.7152 3.86179 17.8303 3.93 17.8743 4.11038L16.4169 4.46539C16.5057 4.83013 16.7886 5.11817 17.151 5.25238L17.672 3.84576ZM17.8744 4.11096L17.4584 2.39729L16.0007 2.75114L16.4167 4.46481L17.8744 4.11096ZM17.4584 2.39706C17.1917 1.29992 16.2547 0.375723 14.9966 0.285035L14.8888 1.78115C15.4341 1.82047 15.8728 2.22466 16.0008 2.75137L17.4584 2.39706ZM14.9958 0.284978C14.6645 0.261451 14.3324 0.249785 14.0003 0.250003L14.0013 1.75C14.2976 1.74981 14.5939 1.76022 14.8896 1.78121L14.9958 0.284978ZM1 14.75H12V13.25H1V14.75ZM12.5303 13.4697L8.53033 9.46967L7.46967 10.5303L11.4697 14.5303L12.5303 13.4697ZM11.462 13.4775L7.31377 17.7489L8.38984 18.7939L12.538 14.5225L11.462 13.4775Z" fill="#F43E72"/>
<path d="M12 9.41604C12.6125 9.14845 13.2889 9 14 9C16.7614 9 19 11.2386 19 14C19 16.7614 16.7614 19 14 19C13.2889 19 12.6125 18.8516 12 18.584" stroke="#F43E72" stroke-width="1.5" stroke-linecap="round"/>
</svg>
