<svg width="28" height="28" viewBox="0 0 28 28" fill="none" xmlns="http://www.w3.org/2000/svg">
<path d="M13.4348 1.38729C13.7754 1.15386 14.2246 1.15386 14.5652 1.38729L16.2399 2.53476C16.4494 2.67826 16.7055 2.73673 16.9565 2.69831L18.9632 2.39109C19.3714 2.3286 19.776 2.52346 19.9817 2.88158L20.9927 4.64204C21.1191 4.8622 21.3245 5.02603 21.5673 5.1003L23.5086 5.69419C23.9035 5.815 24.1835 6.16613 24.2134 6.57802L24.3605 8.60278C24.3788 8.85599 24.4928 9.09273 24.6794 9.26498L26.1707 10.6423C26.4741 10.9225 26.574 11.3604 26.4223 11.7445L25.6762 13.6325C25.5829 13.8686 25.5829 14.1314 25.6762 14.3675L26.4223 16.2555C26.574 16.6396 26.4741 17.0775 26.1707 17.3577L24.6794 18.735C24.4928 18.9073 24.3788 19.144 24.3605 19.3972L24.2134 21.422C24.1835 21.8339 23.9035 22.185 23.5086 22.3058L21.5673 22.8997C21.3245 22.974 21.1191 23.1378 20.9927 23.358L19.9817 25.1184C19.776 25.4765 19.3714 25.6714 18.9632 25.6089L16.9565 25.3017C16.7055 25.2633 16.4494 25.3217 16.2399 25.4652L14.5652 26.6127C14.2246 26.8461 13.7754 26.8461 13.4348 26.6127L11.7601 25.4652C11.5506 25.3217 11.2945 25.2633 11.0435 25.3017L9.0368 25.6089C8.62859 25.6714 8.22395 25.4765 8.01829 25.1184L7.00732 23.358C6.88089 23.1378 6.67545 22.974 6.43268 22.8997L4.4914 22.3058C4.0965 22.185 3.81648 21.8339 3.78657 21.422L3.63954 19.3972C3.62116 19.144 3.50715 18.9073 3.32064 18.735L1.82929 17.3577C1.52591 17.0775 1.42597 16.6396 1.57774 16.2555L2.32379 14.3675C2.41709 14.1314 2.41709 13.8686 2.32379 13.6325L1.57774 11.7445C1.42597 11.3604 1.52591 10.9225 1.82929 10.6423L3.32065 9.26498C3.50715 9.09273 3.62116 8.85599 3.63954 8.60278L3.78657 6.57802C3.81648 6.16613 4.0965 5.815 4.4914 5.69419L6.43268 5.1003C6.67545 5.02603 6.88089 4.8622 7.00732 4.64204L8.01829 2.88158C8.22395 2.52346 8.62859 2.3286 9.0368 2.39109L11.0435 2.69831C11.2945 2.73673 11.5506 2.67826 11.7601 2.53476L13.4348 1.38729Z" stroke="#F43E72" stroke-width="1.5"/>
</svg>
