<svg width="120" height="120" viewBox="0 0 120 120" fill="none" xmlns="http://www.w3.org/2000/svg">
<path d="M77.5652 69H44.5217C43.5612 69 42.7826 68.2197 42.7826 67.2571C42.7826 66.2946 43.5612 65.5143 44.5217 65.5143H77.5652C81.4055 65.5103 84.5177 62.3914 84.5217 58.5429V16.7143C84.5186 13.8279 82.1845 11.4889 79.3043 11.4857H16.6957C13.8155 11.4889 11.4814 13.8279 11.4783 16.7143V60.2857C11.4814 63.1721 13.8155 65.5111 16.6957 65.5143H34.087C35.0475 65.5143 35.8261 66.2946 35.8261 67.2571C35.8261 68.2197 35.0475 69 34.087 69H16.6957C11.8955 68.9943 8.00565 65.0961 8 60.2857V16.7143C8.00565 11.9039 11.8955 8.00567 16.6957 8H79.3043C84.1045 8.00567 87.9943 11.9039 88 16.7143V58.5429C87.9937 64.3155 83.3256 68.9937 77.5652 69Z" fill="#F43E72"/>
<path d="M34.25 55H9.75C8.7835 55 8 54.1046 8 53C8 51.8954 8.7835 51 9.75 51H34.25C35.2165 51 36 51.8954 36 53C36 54.1046 35.2165 55 34.25 55Z" fill="#F43E72"/>
<path d="M110.261 83H33.7391C32.7786 83 32 82.1046 32 81C32 79.8954 32.7786 79 33.7391 79H110.261C111.221 79 112 79.8954 112 81C112 82.1046 111.221 83 110.261 83Z" fill="#F43E72"/>
<path d="M81.25 105H63.75C62.7835 105 62 104.232 62 103.286V94.7143C62 93.7675 62.7835 93 63.75 93H81.25C82.2165 93 83 93.7675 83 94.7143V103.286C83 104.232 82.2165 105 81.25 105ZM65.5 101.571H79.5V96.4286H65.5V101.571Z" fill="#F43E72"/>
<path d="M87.5455 112H56.4545C54.5476 111.998 53.0022 110.507 53 108.667C53.004 104.986 56.095 102.004 59.9091 102H84.0909C87.905 102.004 90.996 104.986 91 108.667C90.9978 110.507 89.4524 111.998 87.5455 112ZM59.9091 105.333C58.0021 105.335 56.4567 106.827 56.4545 108.667H87.5455C87.5433 106.827 85.9979 105.335 84.0909 105.333H59.9091Z" fill="#F43E72"/>
<path d="M101.565 96H40.6957C35.8955 95.9944 32.0057 92.1507 32 87.4075V44.4453C32.0057 39.7021 35.8955 35.8584 40.6957 35.8528H71.2798L67.2922 31.9123C66.6331 31.238 66.6425 30.1662 67.3134 29.5033C67.9842 28.8405 69.0689 28.8311 69.7513 29.4824L76.7078 36.3564C77.2051 36.8478 77.3538 37.5869 77.0847 38.2289C76.8155 38.871 76.1816 39.2897 75.4783 39.2898H40.6957C37.8155 39.2929 35.4814 41.5993 35.4783 44.4453V87.4075C35.4814 90.2535 37.8155 92.5599 40.6957 92.563H101.565C105.406 92.559 108.518 89.4838 108.522 85.6891V44.4453C108.519 41.5993 106.185 39.2929 103.304 39.2898H85.913C84.9525 39.2898 84.1739 38.5204 84.1739 37.5713C84.1739 36.6222 84.9525 35.8528 85.913 35.8528H103.304C108.104 35.8584 111.994 39.7021 112 44.4453V85.6891C111.994 91.381 107.326 95.9938 101.565 96Z" fill="#7248FF"/>
<path d="M68.6698 46C67.9944 45.9999 67.3856 45.593 67.1272 44.969C66.8687 44.345 67.0115 43.6268 67.489 43.1492L74.1696 36.4688C74.8249 35.8359 75.8666 35.8449 76.5108 36.4892C77.1551 37.1334 77.1641 38.175 76.5312 38.8303L69.8506 45.5107C69.5378 45.8244 69.1129 46.0005 68.6698 46Z" fill="#7248FF"/>
<path d="M44.6698 69C43.9944 68.9998 43.3856 68.5523 43.1272 67.8659C42.8687 67.1795 43.0115 66.3895 43.489 65.8641L50.1696 58.5157C50.8249 57.8195 51.8666 57.8294 52.5108 58.5381C53.1551 59.2467 53.1641 60.3925 52.5312 61.1133L45.8506 68.4617C45.5378 68.8068 45.1129 69.0006 44.6698 69Z" fill="#7248FF"/>
<path d="M51.3302 76C50.8871 76.0006 50.4622 75.8068 50.1494 75.4617L43.4688 68.1134C42.8359 67.3925 42.8449 66.2467 43.4892 65.5381C44.1334 64.8294 45.1751 64.8195 45.8304 65.5157L52.511 72.8641C52.9885 73.3895 53.1313 74.1795 52.8728 74.8659C52.6144 75.5523 52.0056 75.9998 51.3302 76Z" fill="#7248FF"/>
<path d="M74.25 89H70.75C69.7835 89 69 88.3284 69 87.5C69 86.6716 69.7835 86 70.75 86H74.25C75.2165 86 76 86.6716 76 87.5C76 88.3284 75.2165 89 74.25 89Z" fill="#F43E72"/>
<path d="M20.25 18H16.75C15.7835 18 15 17.3284 15 16.5C15 15.6716 15.7835 15 16.75 15H20.25C21.2165 15 22 15.6716 22 16.5C22 17.3284 21.2165 18 20.25 18Z" fill="#F43E72"/>
<path d="M48.2143 18H26.7857C25.7995 18 25 17.3284 25 16.5C25 15.6716 25.7995 15 26.7857 15H48.2143C49.2005 15 50 15.6716 50 16.5C50 17.3284 49.2005 18 48.2143 18Z" fill="#F43E72"/>
</svg>
