<svg width="120" height="120" viewBox="0 0 120 120" fill="none" xmlns="http://www.w3.org/2000/svg">
<path d="M63.1469 106.651H14.9825C14.542 106.651 14.1196 106.475 13.8081 106.161C13.4967 105.847 13.3217 105.421 13.3217 104.977V17.9079C13.3217 17.4638 13.4967 17.0379 13.8081 16.7239C14.1196 16.4099 14.542 16.2334 14.9825 16.2334H24.9476C25.388 16.2334 25.8105 16.057 26.1219 15.743C26.4334 15.429 26.6084 15.0031 26.6084 14.559C26.6084 14.115 26.4334 13.6891 26.1219 13.3751C25.8105 13.0611 25.388 12.8846 24.9476 12.8846H14.9825C13.6611 12.8846 12.3937 13.4139 11.4593 14.3559C10.5249 15.2979 10 16.5756 10 17.9079V104.977C10 106.309 10.5249 107.587 11.4593 108.529C12.3937 109.471 13.6611 110 14.9825 110H63.1469C63.5873 110 64.0098 109.824 64.3212 109.51C64.6327 109.196 64.8077 108.77 64.8077 108.326C64.8077 107.882 64.6327 107.456 64.3212 107.142C64.0098 106.828 63.5873 106.651 63.1469 106.651Z" fill="#F43E72"/>
<path d="M68.3653 16.25H78.173C78.6065 16.25 79.0223 16.4273 79.3289 16.7429C79.6354 17.0584 79.8076 17.4864 79.8076 17.9327V51.5866C79.8076 52.0328 79.9799 52.4608 80.2864 52.7764C80.593 53.092 81.0087 53.2693 81.4423 53.2693C81.8758 53.2693 82.2915 53.092 82.5981 52.7764C82.9046 52.4608 83.0769 52.0328 83.0769 51.5866V17.9327C83.0769 16.5939 82.5602 15.3099 81.6406 14.3632C80.7209 13.4165 79.4736 12.8846 78.173 12.8846H68.3653C67.9318 12.8846 67.516 13.0619 67.2095 13.3775C66.9029 13.6931 66.7307 14.1211 66.7307 14.5673C66.7307 15.0136 66.9029 15.4416 67.2095 15.7572C67.516 16.0727 67.9318 16.25 68.3653 16.25Z" fill="#F43E72"/>
<path d="M35.0962 23.4615H57.9808C59.2814 23.4615 60.5287 22.9297 61.4484 21.983C62.368 21.0363 62.8847 19.7523 62.8847 18.4135V15.0481C62.8847 13.7092 62.368 12.4252 61.4484 11.4785C60.5287 10.5318 59.2814 10 57.9808 10H35.0962C33.7956 10 32.5483 10.5318 31.6287 11.4785C30.709 12.4252 30.1924 13.7092 30.1924 15.0481V18.4135C30.1924 19.7523 30.709 21.0363 31.6287 21.983C32.5483 22.9297 33.7956 23.4615 35.0962 23.4615ZM33.4616 15.0481C33.4616 14.6018 33.6338 14.1738 33.9404 13.8582C34.2469 13.5427 34.6627 13.3654 35.0962 13.3654H57.9808C58.4144 13.3654 58.8301 13.5427 59.1367 13.8582C59.4432 14.1738 59.6155 14.6018 59.6155 15.0481V18.4135C59.6155 18.8597 59.4432 19.2877 59.1367 19.6033C58.8301 19.9189 58.4144 20.0962 57.9808 20.0962H35.0962C34.6627 20.0962 34.2469 19.9189 33.9404 19.6033C33.6338 19.2877 33.4616 18.8597 33.4616 18.4135V15.0481Z" fill="#F43E72"/>
<path d="M33.0769 28.0769C33.0769 27.6179 32.9046 27.1776 32.5981 26.8531C32.2915 26.5285 31.8758 26.3461 31.4423 26.3461H18.3653C17.9318 26.3461 17.516 26.5285 17.2095 26.8531C16.9029 27.1776 16.7307 27.6179 16.7307 28.0769V41.9231C16.7307 42.3821 16.9029 42.8223 17.2095 43.1469C17.516 43.4715 17.9318 43.6538 18.3653 43.6538H31.4423C31.8758 43.6538 32.2915 43.4715 32.5981 43.1469C32.9046 42.8223 33.0769 42.3821 33.0769 41.9231V28.0769ZM29.8076 40.1923H19.9999V29.8077H29.8076V40.1923Z" fill="#F43E72"/>
<path d="M33.0769 48.1731C33.0769 47.7395 32.9046 47.3238 32.5981 47.0172C32.2915 46.7107 31.8758 46.5385 31.4423 46.5385H18.3653C17.9318 46.5385 17.516 46.7107 17.2095 47.0172C16.9029 47.3238 16.7307 47.7395 16.7307 48.1731V61.25C16.7307 61.6835 16.9029 62.0993 17.2095 62.4058C17.516 62.7124 17.9318 62.8846 18.3653 62.8846H31.4423C31.8758 62.8846 32.2915 62.7124 32.5981 62.4058C32.9046 62.0993 33.0769 61.6835 33.0769 61.25V48.1731ZM29.8076 59.6154H19.9999V49.8077H29.8076V59.6154Z" fill="#F43E72"/>
<path d="M33.0769 68.3654C33.0769 67.9319 32.9046 67.5161 32.5981 67.2095C32.2915 66.903 31.8758 66.7308 31.4423 66.7308H18.3653C17.9318 66.7308 17.516 66.903 17.2095 67.2095C16.9029 67.5161 16.7307 67.9319 16.7307 68.3654V81.4423C16.7307 81.8758 16.9029 82.2916 17.2095 82.5982C17.516 82.9047 17.9318 83.0769 18.3653 83.0769H31.4423C31.8758 83.0769 32.2915 82.9047 32.5981 82.5982C32.9046 82.2916 33.0769 81.8758 33.0769 81.4423V68.3654ZM29.8076 79.8077H19.9999V70H29.8076V79.8077Z" fill="#F43E72"/>
<path d="M31.4423 86.9231H18.3653C17.9318 86.9231 17.516 87.0953 17.2095 87.4019C16.9029 87.7084 16.7307 88.1242 16.7307 88.5577V101.635C16.7307 102.068 16.9029 102.484 17.2095 102.79C17.516 103.097 17.9318 103.269 18.3653 103.269H31.4423C31.8758 103.269 32.2915 103.097 32.5981 102.79C32.9046 102.484 33.0769 102.068 33.0769 101.635V88.5577C33.0769 88.1242 32.9046 87.7084 32.5981 87.4019C32.2915 87.0953 31.8758 86.9231 31.4423 86.9231ZM29.8076 100H19.9999V90.1923H29.8076V100Z" fill="#F43E72"/>
<path d="M74.7115 30.1923H45.2884C44.8549 30.1923 44.4391 30.3443 44.1326 30.6148C43.826 30.8852 43.6538 31.2521 43.6538 31.6346C43.6538 32.0172 43.826 32.384 44.1326 32.6545C44.4391 32.925 44.8549 33.0769 45.2884 33.0769H74.7115C75.145 33.0769 75.5608 32.925 75.8673 32.6545C76.1739 32.384 76.3461 32.0172 76.3461 31.6346C76.3461 31.2521 76.1739 30.8852 75.8673 30.6148C75.5608 30.3443 75.145 30.1923 74.7115 30.1923Z" fill="#F43E72"/>
<path d="M74.7035 36.9231H38.5657C38.1301 36.9231 37.7123 37.0751 37.4042 37.3455C37.0962 37.616 36.9231 37.9829 36.9231 38.3654C36.9231 38.7479 37.0962 39.1148 37.4042 39.3853C37.7123 39.6558 38.1301 39.8077 38.5657 39.8077H74.7035C75.1392 39.8077 75.557 39.6558 75.8651 39.3853C76.1731 39.1148 76.3462 38.7479 76.3462 38.3654C76.3462 37.9829 76.1731 37.616 75.8651 37.3455C75.557 37.0751 75.1392 36.9231 74.7035 36.9231Z" fill="#F43E72"/>
<path d="M76.3461 51.827C76.3461 51.4444 76.1739 51.0776 75.8673 50.8071C75.5608 50.5366 75.145 50.3846 74.7115 50.3846H45.2884C44.8549 50.3846 44.4391 50.5366 44.1326 50.8071C43.826 51.0776 43.6538 51.4444 43.6538 51.827C43.6538 52.2095 43.826 52.5763 44.1326 52.8468C44.4391 53.1173 44.8549 53.2693 45.2884 53.2693H74.7115C75.145 53.2693 75.5608 53.1173 75.8673 52.8468C76.1739 52.5763 76.3461 52.2095 76.3461 51.827Z" fill="#F43E72"/>
<path d="M62.8846 58.5577C62.8846 58.1751 62.7137 57.8083 62.4094 57.5378C62.1051 57.2673 61.6924 57.1154 61.262 57.1154H38.5457C38.1154 57.1154 37.7026 57.2673 37.3983 57.5378C37.094 57.8083 36.9231 58.1751 36.9231 58.5577C36.9231 58.9402 37.094 59.307 37.3983 59.5775C37.7026 59.848 38.1154 60 38.5457 60H61.262C61.6924 60 62.1051 59.848 62.4094 59.5775C62.7137 59.307 62.8846 58.9402 62.8846 58.5577Z" fill="#F43E72"/>
<path d="M51.6666 69.6154H45.2564C44.8313 69.6154 44.4237 69.818 44.1232 70.1786C43.8226 70.5393 43.6538 71.0284 43.6538 71.5384C43.6538 72.0485 43.8226 72.5376 44.1232 72.8983C44.4237 73.2589 44.8313 73.4615 45.2564 73.4615H51.6666C52.0917 73.4615 52.4993 73.2589 52.7998 72.8983C53.1004 72.5376 53.2692 72.0485 53.2692 71.5384C53.2692 71.0284 53.1004 70.5393 52.7998 70.1786C52.4993 69.818 52.0917 69.6154 51.6666 69.6154Z" fill="#F43E72"/>
<path d="M49.7436 76.3461H38.5257C38.1006 76.3461 37.693 76.5487 37.3925 76.9094C37.0919 77.27 36.9231 77.7592 36.9231 78.2692C36.9231 78.7792 37.0919 79.2684 37.3925 79.629C37.693 79.9897 38.1006 80.1923 38.5257 80.1923H49.7436C50.1686 80.1923 50.5763 79.9897 50.8768 79.629C51.1773 79.2684 51.3462 78.7792 51.3462 78.2692C51.3462 77.7592 51.1773 77.27 50.8768 76.9094C50.5763 76.5487 50.1686 76.3461 49.7436 76.3461Z" fill="#F43E72"/>
<path d="M49.8077 89.8077H45.1923C44.7842 89.8077 44.3929 90.0103 44.1044 90.3709C43.8159 90.7316 43.6538 91.2207 43.6538 91.7308C43.6538 92.2408 43.8159 92.7299 44.1044 93.0906C44.3929 93.4512 44.7842 93.6538 45.1923 93.6538H49.8077C50.2157 93.6538 50.607 93.4512 50.8955 93.0906C51.184 92.7299 51.3461 92.2408 51.3461 91.7308C51.3461 91.2207 51.184 90.7316 50.8955 90.3709C50.607 90.0103 50.2157 89.8077 49.8077 89.8077Z" fill="#F43E72"/>
<path d="M38.5839 100.385H53.5315C53.972 100.385 54.3944 100.182 54.7059 99.8214C55.0173 99.4607 55.1923 98.9716 55.1923 98.4615C55.1923 97.9515 55.0173 97.4624 54.7059 97.1017C54.3944 96.7411 53.972 96.5385 53.5315 96.5385H38.5839C38.1435 96.5385 37.721 96.7411 37.4095 97.1017C37.0981 97.4624 36.9231 97.9515 36.9231 98.4615C36.9231 98.9716 37.0981 99.4607 37.4095 99.8214C37.721 100.182 38.1435 100.385 38.5839 100.385Z" fill="#F43E72"/>
<path d="M102.657 72.1366C102.454 72.2234 102.27 72.3486 102.117 72.5051C101.963 72.6615 101.843 72.8462 101.762 73.0484C101.681 73.2507 101.641 73.4666 101.646 73.6839C101.65 73.9012 101.698 74.1155 101.786 74.3146C103.978 79.2546 104.346 84.7911 102.825 89.9687C101.305 95.1464 97.9917 99.6403 93.4578 102.675C88.9238 105.71 83.4535 107.095 77.9909 106.591C72.5282 106.087 67.4159 103.727 63.5363 99.9163C59.6566 96.1059 57.253 91.0849 56.7402 85.7198C56.2274 80.3547 57.6376 74.9821 60.7274 70.5291C63.8173 66.0762 68.3929 62.8223 73.6647 61.329C78.9365 59.8356 84.5737 60.1966 89.6034 62.3495C89.8063 62.4378 90.025 62.4857 90.2468 62.4907C90.4686 62.4956 90.6892 62.4575 90.896 62.3784C91.1027 62.2994 91.2915 62.181 91.4516 62.03C91.6116 61.8791 91.7396 61.6986 91.8284 61.4989C91.9171 61.2991 91.9648 61.0842 91.9687 60.8663C91.9726 60.6484 91.9326 60.4319 91.851 60.2293C91.7694 60.0266 91.6479 59.8418 91.4934 59.6855C91.3388 59.5291 91.1543 59.4043 90.9505 59.3182C85.2017 56.857 78.7584 56.444 72.7327 58.1506C66.707 59.8572 61.4769 63.5762 57.945 68.6658C54.4131 73.7554 52.8011 79.8963 53.3871 86.0286C53.9732 92.1609 56.7205 97.8999 61.1549 102.255C65.5894 106.61 71.4327 109.309 77.6765 109.884C83.9203 110.46 90.1729 108.877 95.355 105.408C100.537 101.939 104.324 96.8022 106.061 90.8841C107.799 84.966 107.379 78.6378 104.873 72.9916C104.694 72.5897 104.36 72.2738 103.945 72.1135C103.529 71.9532 103.066 71.9615 102.657 72.1366Z" fill="#7248FF"/>
<path d="M85.8818 71.5939C86.0782 71.6953 86.2926 71.7571 86.5128 71.7756C86.733 71.7942 86.9547 71.7692 87.1652 71.7021C87.3758 71.635 87.5711 71.5271 87.7399 71.3845C87.9087 71.2419 88.0478 71.0675 88.1493 70.8712C88.2507 70.6748 88.3125 70.4604 88.331 70.2402C88.3496 70.02 88.3246 69.7983 88.2575 69.5878C88.1904 69.3772 88.0825 69.1819 87.9399 69.0131C87.7973 68.8443 87.6229 68.7052 87.4266 68.6037C84.1651 66.921 80.4429 66.3508 76.8272 66.9798C73.2116 67.6089 69.9007 69.4027 67.3992 72.0881C64.8976 74.7734 63.3426 78.2029 62.971 81.8541C62.5994 85.5052 63.4317 89.1777 65.341 92.3119C67.2503 95.4461 70.1319 97.8702 73.5467 99.2147C76.9616 100.559 80.7223 100.75 84.2559 99.7593C87.7895 98.7682 90.9022 96.6489 93.1196 93.7246C95.337 90.8003 96.5376 87.2311 96.5383 83.5612C96.5452 80.9657 95.946 78.4045 94.7883 76.0816C94.691 75.8821 94.5551 75.7037 94.3886 75.5569C94.222 75.4101 94.0281 75.2977 93.8179 75.2262C93.6077 75.1547 93.3854 75.1255 93.1639 75.1403C92.9423 75.1551 92.7259 75.2136 92.5271 75.3124C92.3283 75.4112 92.151 75.5483 92.0054 75.716C91.8598 75.8836 91.7489 76.0784 91.6789 76.2891C91.609 76.4998 91.5814 76.7223 91.5978 76.9437C91.6143 77.1651 91.6743 77.3811 91.7746 77.5792C92.6999 79.4372 93.1787 81.4855 93.1729 83.5612C93.1729 86.2236 92.3834 88.8263 90.9043 91.04C89.4251 93.2537 87.3227 94.9791 84.8629 95.998C82.4032 97.0169 79.6965 97.2835 77.0852 96.764C74.4739 96.2446 72.0753 94.9625 70.1927 93.0799C68.3101 91.1973 67.028 88.7987 66.5086 86.1874C65.9892 83.5761 66.2557 80.8694 67.2746 78.4097C68.2935 75.9499 70.0189 73.8475 72.2326 72.3683C74.4463 70.8891 77.049 70.0996 79.7114 70.0996C81.8586 70.0929 83.9756 70.6056 85.8818 71.5939Z" fill="#7248FF"/>
<path d="M78.7925 80.4093C79.1917 80.2683 79.5186 79.9746 79.7012 79.5926C79.8838 79.2106 79.9072 78.7717 79.7662 78.3725C79.6252 77.9733 79.3315 77.6464 78.9495 77.4638C78.5675 77.2812 78.1286 77.2578 77.7294 77.3988C76.7109 77.7567 75.7997 78.3671 75.0812 79.1729C74.3626 79.9786 73.8601 80.9534 73.6205 82.0061C73.381 83.0588 73.4123 84.155 73.7116 85.1923C74.0108 86.2296 74.5682 87.1741 75.3316 87.9375C76.095 88.7009 77.0395 89.2583 78.0768 89.5575C79.1141 89.8568 80.2103 89.8881 81.263 89.6486C82.3157 89.409 83.2905 88.9065 84.0962 88.188C84.902 87.4694 85.5124 86.5582 85.8703 85.5397C86.0113 85.1405 85.9879 84.7016 85.8053 84.3196C85.6227 83.9377 85.2958 83.6439 84.8966 83.5029C84.4974 83.3619 84.0585 83.3853 83.6765 83.5679C83.2946 83.7505 83.0008 84.0774 82.8598 84.4766C82.6798 84.9848 82.374 85.4391 81.971 85.7972C81.5679 86.1553 81.0808 86.4055 80.5549 86.5245C80.0291 86.6435 79.4817 86.6273 78.9637 86.4776C78.4458 86.3278 77.9742 86.0493 77.593 85.6681C77.2118 85.2869 76.9333 84.8153 76.7836 84.2974C76.6338 83.7795 76.6177 83.2321 76.7366 82.7062C76.8556 82.1804 77.1058 81.6932 77.4639 81.2902C77.822 80.8871 78.2763 80.5814 78.7845 80.4013L78.7925 80.4093Z" fill="#7248FF"/>
<path d="M109.873 60.9746C109.747 60.6697 109.533 60.4091 109.258 60.2258C108.984 60.0425 108.661 59.9447 108.331 59.9448H103.324V54.9378C103.324 54.6078 103.226 54.2852 103.043 54.0108C102.859 53.7364 102.599 53.5225 102.294 53.3963C101.989 53.27 101.653 53.2369 101.33 53.3013C101.006 53.3656 100.709 53.5245 100.475 53.7579L93.7994 60.4338C93.4863 60.7467 93.3104 61.1712 93.3104 61.6138V67.5987L78.7788 82.1305C78.6194 82.2845 78.4922 82.4687 78.4048 82.6723C78.3173 82.8759 78.2713 83.0949 78.2694 83.3165C78.2674 83.5381 78.3097 83.7579 78.3936 83.963C78.4775 84.1681 78.6014 84.3545 78.7581 84.5112C78.9148 84.6679 79.1012 84.7918 79.3063 84.8757C79.5114 84.9596 79.7311 85.0019 79.9527 84.9999C80.1743 84.998 80.3933 84.952 80.597 84.8645C80.8006 84.777 80.9847 84.6499 81.1387 84.4905L95.6703 69.9587H101.655C102.098 69.9586 102.522 69.7827 102.835 69.4697L109.511 62.7937C109.744 62.5603 109.903 62.2629 109.968 61.9391C110.032 61.6153 109.999 61.2796 109.873 60.9746ZM96.6483 62.3097L99.9862 58.9718V60.9278L96.6483 64.2658V62.3097ZM100.964 66.6207H99.0082L102.346 63.2827H104.302L100.964 66.6207Z" fill="#7248FF"/>
</svg>
