<svg width="26" height="26" viewBox="0 0 26 26" fill="none" xmlns="http://www.w3.org/2000/svg">
<path d="M15.1766 1.26239C14.9571 0.878863 14.6403 0.56012 14.2581 0.338436C13.8759 0.116753 13.4419 0 13 0C12.5581 0 12.1241 0.116753 11.7419 0.338436C11.3597 0.56012 11.0429 0.878863 10.8234 1.26239L7.97487 6.24406C7.8647 6.4367 7.83556 6.66521 7.89387 6.87934C7.95218 7.09346 8.09317 7.27565 8.28581 7.38583C8.47845 7.496 8.70697 7.52514 8.92109 7.46683C9.13521 7.40851 9.3174 7.26753 9.42758 7.07489L12.2745 2.09155C12.3476 1.96371 12.4532 1.85746 12.5806 1.78357C12.708 1.70967 12.8527 1.67076 13 1.67076C13.1473 1.67076 13.292 1.70967 13.4194 1.78357C13.5468 1.85746 13.6524 1.96371 13.7255 2.09155L17.9716 9.52059L15.872 8.95722C15.6578 8.89959 15.4296 8.92938 15.2374 9.04005C15.0452 9.15071 14.9049 9.33319 14.8472 9.54733C14.7896 9.76148 14.8194 9.98975 14.9301 10.1819C15.0407 10.3741 15.2232 10.5144 15.4373 10.5721L19.4745 11.6537C19.5805 11.6823 19.6912 11.6897 19.8001 11.6755C19.9089 11.6613 20.014 11.6258 20.1091 11.571C20.2043 11.5162 20.2878 11.4431 20.3547 11.3561C20.4216 11.269 20.4707 11.1696 20.4992 11.0636L21.5808 7.02641C21.6093 6.92038 21.6165 6.80978 21.6022 6.70094C21.5879 6.5921 21.5523 6.48714 21.4974 6.39206C21.4425 6.29698 21.3695 6.21364 21.2824 6.1468C21.1953 6.07996 21.0959 6.03092 20.9899 6.00249C20.8839 5.97407 20.7733 5.9668 20.6644 5.98111C20.5556 5.99542 20.4506 6.03103 20.3555 6.08591C20.2605 6.14078 20.1771 6.21385 20.1103 6.30093C20.0434 6.38801 19.9944 6.48741 19.966 6.59344L19.4093 8.66969L15.1766 1.26239ZM4.59637 12.1569L2.49838 12.7202C2.28424 12.7779 2.05597 12.7481 1.86379 12.6374C1.67161 12.5267 1.53127 12.3443 1.47363 12.1301C1.41599 11.916 1.44579 11.6877 1.55645 11.4955C1.66712 11.3033 1.8496 11.163 2.06374 11.1054L6.10257 10.0238C6.31648 9.96655 6.54436 9.99655 6.73618 10.1072C6.92799 10.2178 7.06807 10.4001 7.12565 10.6139L8.20724 14.651C8.26465 14.8652 8.23465 15.0934 8.12382 15.2854C8.013 15.4774 7.83044 15.6175 7.61629 15.6749C7.40215 15.7324 7.17397 15.7024 6.98194 15.5915C6.78992 15.4807 6.64979 15.2981 6.59237 15.084L6.0357 13.0078L1.78122 20.4535C1.70862 20.5806 1.67067 20.7245 1.67117 20.8709C1.67166 21.0173 1.71058 21.161 1.78404 21.2876C1.8575 21.4142 1.96292 21.5193 2.08975 21.5923C2.21657 21.6654 2.36037 21.7039 2.50674 21.7039H7.9849C8.20658 21.7039 8.41918 21.792 8.57594 21.9487C8.73269 22.1055 8.82075 22.3181 8.82075 22.5398C8.82075 22.7615 8.73269 22.9741 8.57594 23.1308C8.41918 23.2876 8.20658 23.3756 7.9849 23.3756H2.50674C2.06762 23.3755 1.63624 23.26 1.25575 23.0408C0.875267 22.8216 0.559017 22.5063 0.338642 22.1265C0.118268 21.7467 0.00149802 21.3157 1.43177e-05 20.8766C-0.00146939 20.4374 0.112385 20.0056 0.330188 19.6243L4.59637 12.1569ZM22.8012 14.6026C22.7482 14.5045 22.6761 14.4181 22.5893 14.3483C22.5024 14.2785 22.4024 14.2268 22.2953 14.1962C22.1881 14.1656 22.076 14.1568 21.9653 14.1702C21.8547 14.1836 21.7479 14.219 21.6511 14.2742C21.5544 14.3295 21.4697 14.4036 21.402 14.4921C21.3343 14.5806 21.2849 14.6818 21.2569 14.7896C21.2289 14.8974 21.2227 15.0098 21.2387 15.1201C21.2547 15.2303 21.2926 15.3363 21.3501 15.4317L24.2188 20.4535C24.2914 20.5806 24.3293 20.7245 24.3288 20.8709C24.3283 21.0173 24.2894 21.161 24.216 21.2876C24.1425 21.4142 24.0371 21.5193 23.9103 21.5923C23.7834 21.6654 23.6396 21.7039 23.4933 21.7039H14.1819L15.2635 20.624C15.4202 20.4671 15.5082 20.2543 15.508 20.0325C15.5079 19.8107 15.4196 19.598 15.2626 19.4413C15.1849 19.3637 15.0927 19.3021 14.9912 19.2602C14.8897 19.2182 14.7809 19.1967 14.6711 19.1968C14.4493 19.1969 14.2366 19.2852 14.0799 19.4421L11.5724 21.9497C11.4944 22.0271 11.4325 22.1191 11.3902 22.2205C11.348 22.322 11.3263 22.4308 11.3263 22.5406C11.3263 22.6505 11.348 22.7593 11.3902 22.8607C11.4325 22.9621 11.4944 23.0542 11.5724 23.1316L14.0799 25.6391C14.2366 25.7961 14.4493 25.8843 14.6711 25.8845C14.7809 25.8846 14.8897 25.863 14.9912 25.8211C15.0927 25.7791 15.1849 25.7176 15.2626 25.64C15.3404 25.5623 15.402 25.4702 15.4441 25.3688C15.4862 25.2673 15.5079 25.1586 15.508 25.0488C15.5081 24.9389 15.4865 24.8302 15.4446 24.7287C15.4026 24.6272 15.3411 24.5349 15.2635 24.4572L14.1819 23.3756H23.4933C23.9324 23.3755 24.3638 23.26 24.7442 23.0408C25.1247 22.8216 25.441 22.5063 25.6614 22.1265C25.8817 21.7467 25.9985 21.3157 26 20.8766C26.0015 20.4374 25.8876 20.0056 25.6698 19.6243L22.8012 14.6026Z" fill="#F43E72"/>
</svg>
