<svg width="28" height="28" viewBox="0 0 28 28" fill="none" xmlns="http://www.w3.org/2000/svg">
<path d="M8.44032 17.8233L7.03616 16.418L2.68327 17.8092H2.54285C2.47442 17.8135 2.40587 17.8032 2.34173 17.7789C2.27758 17.7547 2.2193 17.7171 2.17075 17.6687L1.15273 16.6639C1.0705 16.5856 1.01787 16.4812 1.0038 16.3685C0.989718 16.2558 1.01506 16.1417 1.0755 16.0456L2.26202 14.0008C2.99694 12.7421 4.02222 11.6777 5.25217 10.8965C6.48213 10.1154 7.88103 9.64029 9.33196 9.51084L11.0801 9.35626M11.0801 9.35626C12.0958 8.14769 13.0319 7.11244 13.8885 6.25051C15.5137 4.52763 17.4536 3.1323 19.6034 2.13997C21.7946 1.32023 24.1245 0.935967 26.4627 1.00869C26.6042 1.00995 26.7398 1.06525 26.8418 1.16328C26.8905 1.20797 26.9293 1.26226 26.9559 1.32273C26.9825 1.38321 26.9962 1.44854 26.9963 1.5146C27.0442 3.86171 26.6266 6.19503 25.7677 8.37956C24.8017 10.5375 23.4231 12.4853 21.7096 14.1132C20.8461 14.9845 19.807 15.9191 18.6064 16.9239L18.452 18.6665C18.326 20.1179 17.855 21.5181 17.0782 22.7502C16.3014 23.9823 15.2415 25.0106 13.9868 25.7493L11.9577 26.9367C11.8777 26.979 11.7885 27.0007 11.698 27C11.5636 26.9972 11.4345 26.9475 11.3329 26.8594L10.3149 25.8336C10.2491 25.7707 10.2024 25.6905 10.1801 25.6023C10.1577 25.5141 10.1607 25.4213 10.1885 25.3347L11.5435 20.929M11.0801 9.35626L7.07127 16.4531M11.5435 20.929L10.1815 19.5659M11.5435 20.929L18.6345 16.9239M23.4087 7.46611C23.4105 6.70326 23.11 5.97081 22.573 5.42943C22.036 4.88804 21.3064 4.58191 20.5442 4.57819C20.1537 4.5589 19.7635 4.6192 19.397 4.75545C19.0306 4.8917 18.6956 5.10105 18.4124 5.37079C18.1293 5.64053 17.9039 5.96503 17.7498 6.32462C17.5958 6.6842 17.5163 7.07136 17.5163 7.4626C17.5163 7.85383 17.5958 8.24099 17.7498 8.60058C17.9039 8.96016 18.1293 9.28467 18.4124 9.55441C18.6956 9.82415 19.0306 10.0335 19.397 10.1697C19.7635 10.306 20.1537 10.3663 20.5442 10.347C21.301 10.3481 22.0277 10.0501 22.5662 9.51787C22.8371 9.25037 23.0508 8.93056 23.1944 8.57786C23.3381 8.22515 23.4086 7.84692 23.4016 7.46611H23.4087ZM6.26389 21.73C9.07221 21.2101 14.057 16.5304 14.6397 13.3473C11.4382 13.9587 6.76236 18.9194 6.26389 21.73Z" stroke="#F43E72" stroke-width="1.5" stroke-linecap="round" stroke-linejoin="round"/>
</svg>
