<svg width="26" height="26" viewBox="0 0 26 26" fill="none" xmlns="http://www.w3.org/2000/svg">
<path d="M16.434 0C13.898 0.00324514 11.4667 1.01213 9.67342 2.80541C7.88014 4.59869 6.87125 7.02996 6.86801 9.56604C6.86551 10.6218 7.0396 11.6705 7.3831 12.6689L0.220836 19.8434C0.149896 19.9089 0.0935688 19.9886 0.0555306 20.0774C0.0174924 20.1662 -0.0014019 20.2619 8.09947e-05 20.3585V25.2642C8.09947e-05 25.4593 0.0776076 25.6465 0.215606 25.7845C0.353605 25.9225 0.540771 26 0.73593 26H5.64159C5.83675 26 6.02392 25.9225 6.16191 25.7845C6.29991 25.6465 6.37744 25.4593 6.37744 25.2642V23.0566H8.58499C8.78015 23.0566 8.96731 22.9791 9.10531 22.8411C9.24331 22.7031 9.32084 22.5159 9.32084 22.3208V20.1132H11.5284C11.6249 20.1147 11.7207 20.0958 11.8095 20.0578C11.8982 20.0197 11.978 19.9634 12.0435 19.8925L13.3312 18.617C14.3295 18.9605 15.3783 19.1346 16.434 19.1321C18.9711 19.1321 21.4043 18.1242 23.1983 16.3302C24.9922 14.5363 26.0001 12.1031 26.0001 9.56604C26.0001 7.02897 24.9922 4.59581 23.1983 2.80183C21.4043 1.00785 18.9711 0 16.434 0ZM16.434 17.6604C15.4089 17.6612 14.3931 17.4656 13.4416 17.084C13.3041 17.0272 13.1529 17.0121 13.0068 17.0404C12.8608 17.0688 12.7262 17.1393 12.6199 17.2434L11.2218 18.6415H8.58499C8.38983 18.6415 8.20266 18.719 8.06466 18.857C7.92667 18.995 7.84914 19.1822 7.84914 19.3774V21.5849H5.64159C5.44643 21.5849 5.25927 21.6624 5.12127 21.8004C4.98327 21.9384 4.90574 22.1256 4.90574 22.3208V24.5283H1.47178V20.6651L8.75669 13.3802C8.86074 13.2738 8.9313 13.1393 8.95964 12.9933C8.98798 12.8472 8.97285 12.696 8.91612 12.5585C8.53451 11.607 8.33884 10.5912 8.3397 9.56604C8.3397 7.96513 8.81443 6.40017 9.70385 5.06906C10.5933 3.73796 11.8574 2.70048 13.3365 2.08784C14.8155 1.4752 16.443 1.31491 18.0132 1.62723C19.5833 1.93955 21.0256 2.71046 22.1576 3.84248C23.2896 4.97449 24.0605 6.41676 24.3729 7.98691C24.6852 9.55706 24.5249 11.1846 23.9122 12.6636C23.2996 14.1427 22.2621 15.4068 20.931 16.2962C19.5999 17.1857 18.035 17.6604 16.434 17.6604ZM20.1133 7.11321C20.1133 7.35577 20.0414 7.59288 19.9066 7.79457C19.7718 7.99625 19.5803 8.15344 19.3562 8.24627C19.1321 8.33909 18.8855 8.36338 18.6476 8.31606C18.4097 8.26874 18.1912 8.15193 18.0197 7.98041C17.8481 7.8089 17.7313 7.59037 17.684 7.35247C17.6367 7.11457 17.661 6.86798 17.7538 6.64388C17.8466 6.41978 18.0038 6.22824 18.2055 6.09348C18.4072 5.95872 18.6443 5.88679 18.8869 5.88679C19.2121 5.88679 19.5241 6.016 19.7541 6.246C19.9841 6.476 20.1133 6.78794 20.1133 7.11321Z" fill="#F43E72"/>
</svg>
