<?xml version="1.0" encoding="UTF-8" standalone="no" ?>
<!DOCTYPE svg PUBLIC "-//W3C//DTD SVG 1.1//EN" "http://www.w3.org/Graphics/SVG/1.1/DTD/svg11.dtd">
<svg xmlns="http://www.w3.org/2000/svg" xmlns:xlink="http://www.w3.org/1999/xlink" version="1.1" viewBox="0 0 445 445" xml:space="preserve">
<g id="icon" style="stroke: none; stroke-width: 1; stroke-dasharray: none; stroke-linecap: butt; stroke-linejoin: miter; stroke-miterlimit: 10; fill: none; fill-rule: nonzero; opacity: 1;" transform="translate(-2.4722222222222285 447.47222222222223) rotate(-90) scale(4.94 4.94)" >
	<path d="M 48.663 68.311 c -1.086 0 -1.978 -0.87 -1.999 -1.961 c -0.021 -1.104 0.856 -2.017 1.961 -2.039 c 12.285 -0.241 22.28 -10.438 22.28 -22.732 c 0 -12.537 -10.2 -22.737 -22.737 -22.737 c -12.34 0 -22.539 10.035 -22.734 22.37 c -0.017 1.094 -0.909 1.968 -1.999 1.968 c -0.011 0 -0.021 0 -0.032 0 c -1.104 -0.017 -1.985 -0.927 -1.968 -2.031 c 0.229 -14.505 12.222 -26.307 26.733 -26.307 c 14.743 0 26.737 11.994 26.737 26.737 c 0 14.457 -11.754 26.448 -26.202 26.732 C 48.69 68.311 48.677 68.311 48.663 68.311 z" style="stroke: none; stroke-width: 1; stroke-dasharray: none; stroke-linecap: butt; stroke-linejoin: miter; stroke-miterlimit: 10; fill: rgb(0,0,0); fill-rule: nonzero; opacity: 1;" transform=" matrix(1 0 0 1 0 0) " stroke-linecap="round" />
	<path d="M 48.168 83.157 c -1.147 0 -2.311 -0.048 -3.458 -0.142 c -1.101 -0.09 -1.92 -1.056 -1.83 -2.156 s 1.065 -1.931 2.156 -1.83 c 1.04 0.085 2.093 0.128 3.132 0.128 c 20.721 0 37.579 -16.857 37.579 -37.579 C 85.747 20.858 68.889 4 48.168 4 S 10.59 20.858 10.59 41.579 c 0 1.037 0.042 2.083 0.126 3.109 c 0.09 1.101 -0.729 2.066 -1.83 2.156 c -1.095 0.094 -2.066 -0.729 -2.156 -1.83 c -0.093 -1.134 -0.14 -2.29 -0.14 -3.435 C 6.59 18.652 25.242 0 48.168 0 c 22.927 0 41.579 18.652 41.579 41.579 C 89.747 64.505 71.095 83.157 48.168 83.157 z" style="stroke: none; stroke-width: 1; stroke-dasharray: none; stroke-linecap: butt; stroke-linejoin: miter; stroke-miterlimit: 10; fill: rgb(0,0,0); fill-rule: nonzero; opacity: 1;" transform=" matrix(1 0 0 1 0 0) " stroke-linecap="round" />
	<path d="M 52.758 52.348 c -0.721 0 -1.416 -0.39 -1.773 -1.071 c -0.513 -0.979 -0.136 -2.188 0.843 -2.7 c 2.612 -1.369 4.235 -4.05 4.235 -6.998 c 0 -4.353 -3.541 -7.895 -7.895 -7.895 c -3.032 0 -5.748 1.691 -7.088 4.414 c -0.488 0.992 -1.687 1.399 -2.678 0.911 c -0.991 -0.488 -1.399 -1.687 -0.911 -2.678 c 2.018 -4.1 6.109 -6.647 10.677 -6.647 c 6.559 0 11.895 5.336 11.895 11.895 c 0 4.44 -2.444 8.478 -6.378 10.541 C 53.388 52.274 53.07 52.348 52.758 52.348 z" style="stroke: none; stroke-width: 1; stroke-dasharray: none; stroke-linecap: butt; stroke-linejoin: miter; stroke-miterlimit: 10; fill: rgb(0,0,0); fill-rule: nonzero; opacity: 1;" transform=" matrix(1 0 0 1 0 0) " stroke-linecap="round" />
	<path d="M 11.276 90 c -0.512 0 -1.023 -0.195 -1.414 -0.586 l -9.023 -9.022 c -0.375 -0.375 -0.586 -0.884 -0.586 -1.414 s 0.211 -1.039 0.586 -1.414 L 16.402 62 l -7.7 -7.701 c -0.5 -0.499 -0.699 -1.225 -0.524 -1.909 c 0.175 -0.684 0.698 -1.226 1.375 -1.424 l 38.559 -11.307 c 0.702 -0.205 1.461 -0.012 1.977 0.505 c 0.518 0.517 0.711 1.275 0.505 1.977 L 39.288 80.699 c -0.199 0.678 -0.74 1.2 -1.424 1.375 c -0.685 0.176 -1.41 -0.024 -1.909 -0.523 l -7.701 -7.7 L 12.69 89.414 C 12.3 89.805 11.788 90 11.276 90 z M 5.082 78.978 l 6.194 6.194 l 15.563 -15.563 c 0.78 -0.781 2.047 -0.781 2.828 0 l 6.73 6.729 l 9.328 -31.811 l -31.811 9.328 l 6.73 6.73 c 0.781 0.781 0.781 2.047 0 2.828 L 5.082 78.978 z" style="stroke: none; stroke-width: 1; stroke-dasharray: none; stroke-linecap: butt; stroke-linejoin: miter; stroke-miterlimit: 10; fill: rgb(0,0,0); fill-rule: nonzero; opacity: 1;" transform=" matrix(1 0 0 1 0 0) " stroke-linecap="round" />
</g>
</svg>