<svg id="light" enable-background="new 0 0 24 24" viewBox="0 0 24 24" xmlns="http://www.w3.org/2000/svg"><g><path d="m12 22c-5.5 0-10-4.5-10-10s4.5-10 10-10 10 4.5 10 10-4.5 10-10 10zm0-19c-5 0-9 4-9 9s4 9 9 9 9-4 9-9-4-9-9-9z"/></g><g><path d="m12 5c-.3 0-.5-.2-.5-.5v-4c0-.3.2-.5.5-.5s.5.2.5.5v4c0 .3-.2.5-.5.5z"/></g><g><path d="m12 5c-.3 0-.5-.2-.5-.5v-4c0-.3.2-.5.5-.5s.5.2.5.5v4c0 .3-.2.5-.5.5z"/></g><g><path d="m23.5 12.5h-4c-.3 0-.5-.2-.5-.5s.2-.5.5-.5h4c.3 0 .5.2.5.5s-.2.5-.5.5z"/></g><g><path d="m12 24c-.3 0-.5-.2-.5-.5v-4c0-.3.2-.5.5-.5s.5.2.5.5v4c0 .3-.2.5-.5.5z"/></g><g><path d="m4.5 12.5h-4c-.3 0-.5-.2-.5-.5s.2-.5.5-.5h4c.3 0 .5.2.5.5s-.2.5-.5.5z"/></g><g><path d="m12 11c-1.1 0-2-.9-2-2s.9-2 2-2 2 .9 2 2-.9 2-2 2zm0-3c-.6 0-1 .4-1 1s.4 1 1 1 1-.4 1-1-.4-1-1-1z"/></g><g><path d="m15.5 16c-.3 0-.5-.2-.5-.5v-1c0-.8-.7-1.5-1.5-1.5h-3c-.8 0-1.5.7-1.5 1.5v1c0 .3-.2.5-.5.5s-.5-.2-.5-.5v-1c0-1.4 1.1-2.5 2.5-2.5h3c1.4 0 2.5 1.1 2.5 2.5v1c0 .3-.2.5-.5.5z"/></g></svg>