<svg id="light" enable-background="new 0 0 24 24" viewBox="0 0 24 24" xmlns="http://www.w3.org/2000/svg"><path d="m7.5 24h-5c-.276 0-.5-.224-.5-.5v-5c0-.276.224-.5.5-.5h5c.276 0 .5.224.5.5v5c0 .276-.224.5-.5.5zm-4.5-1h4v-4h-4z"/><path d="m15.5 24h-5c-.133 0-.261-.053-.354-.147s-.147-.223-.146-.356l.06-10c.002-.275.225-.497.5-.497h4.94c.276 0 .5.224.5.5v10c0 .276-.224.5-.5.5zm-4.497-1h3.997v-9h-3.943z"/><path d="m23.5 24h-5c-.276 0-.5-.224-.5-.5v-15c0-.276.224-.5.5-.5h5c.276 0 .5.224.5.5v15c0 .276-.224.5-.5.5zm-4.5-1h4v-14h-4z"/><path d="m7.258 11.838c-.128 0-.256-.049-.354-.146l-3.596-3.597c-.188-.188-.196-.491-.018-.688l2.946-3.271c2.093-2.417 5.413-4.083 8.255-4.136.123-.016.267.051.363.146.096.097.148.228.146.363-.053 2.842-1.719 6.162-4.144 8.261l-3.264 2.94c-.094.086-.214.128-.334.128zm-2.907-4.114 2.926 2.926 2.918-2.629c2.076-1.797 3.542-4.542 3.774-6.99-2.448.232-5.192 1.698-6.983 3.767z"/><path d="m8.604 14.21c-.045 0-.091-.006-.136-.019-.174-.05-.308-.188-.351-.365l-.707-2.95c-.064-.268.102-.538.37-.603.272-.063.539.102.603.37l.469 1.959c.869-1.359 1.042-3.098 1.06-4.115.005-.276.23-.492.509-.491.276.004.496.233.491.508-.042 2.366-.736 4.34-1.955 5.559-.095.095-.223.147-.353.147z"/><path d="m4.241 7.603c-.039 0-.078-.004-.117-.014l-2.95-.707c-.176-.042-.316-.175-.365-.35-.049-.174 0-.361.127-.489 1.219-1.219 3.193-1.913 5.56-1.955.265-.025.504.215.508.491s-.214.504-.491.509c-1.018.018-2.756.191-4.115 1.06l1.959.469c.268.064.434.334.37.603-.056.229-.26.383-.486.383z"/><path d="m.5 15c-.131 0-.258-.052-.354-.146-.13-.13-.178-.321-.125-.497.165-.552 1.023-3.338 1.695-4.01.809-.81 2.126-.811 2.938 0 .81.81.81 2.128 0 2.938-.671.672-3.458 1.529-4.01 1.694-.048.014-.096.021-.144.021zm2.685-4.261c-.276 0-.552.105-.762.315-.284.284-.772 1.536-1.154 2.677 1.141-.382 2.394-.87 2.677-1.153.42-.42.42-1.104 0-1.523-.21-.211-.486-.316-.761-.316z"/></svg>