<?xml version="1.0" encoding="UTF-8"?>
<svg xmlns="http://www.w3.org/2000/svg" xmlns:xlink="http://www.w3.org/1999/xlink" viewBox="0 0 1390.6 250.381" version="1.1">
<defs>
<clipPath id="clip1">
  <path d="M 1306 75 L 1390.601562 75 L 1390.601562 175 L 1306 175 Z M 1306 75 "/>
</clipPath>
<clipPath id="clip2">
  <path d="M 236 0 L 247 0 L 247 250.382812 L 236 250.382812 Z M 236 0 "/>
</clipPath>
</defs>
<g id="surface1">
<path style=" stroke:none;fill-rule:nonzero;fill:rgb(18.493652%,21.266174%,28.930664%);fill-opacity:1;" d="M 408.988281 95.945312 L 388.65625 75.855469 L 324.394531 75.855469 L 303.742188 95.945312 L 345.953125 95.945312 L 345.953125 174.527344 L 366.867188 174.527344 L 366.867188 95.945312 Z M 408.988281 95.945312 "/>
<path style=" stroke:none;fill-rule:nonzero;fill:rgb(18.493652%,21.266174%,28.930664%);fill-opacity:1;" d="M 444.773438 95.945312 L 479.535156 95.945312 C 482.53125 95.945312 486.148438 96.414062 488.425781 98.558594 C 490.476562 100.488281 491.070312 103.101562 491.070312 105.832031 C 491.070312 113.738281 486.128906 115.394531 479.042969 115.394531 L 444.773438 115.394531 Z M 423.859375 75.855469 L 423.859375 174.527344 L 444.773438 174.527344 L 444.773438 135.648438 L 471.402344 135.648438 L 493.640625 174.527344 L 517.191406 174.527344 L 493.871094 133.589844 C 495.222656 133.050781 496.535156 132.40625 497.792969 131.65625 C 500.78125 129.878906 503.453125 127.644531 505.667969 124.957031 C 507.859375 122.304688 509.542969 119.308594 510.707031 116.070312 C 511.925781 112.679688 512.480469 109.109375 512.480469 105.507812 C 512.480469 97.070312 509.921875 89.320312 503.488281 83.609375 C 496.910156 77.765625 488.296875 75.855469 479.703125 75.855469 Z M 423.859375 75.855469 "/>
<path style=" stroke:none;fill-rule:nonzero;fill:rgb(18.493652%,21.266174%,28.930664%);fill-opacity:1;" d="M 547.894531 75.855469 L 547.894531 174.527344 L 631.242188 174.527344 L 631.242188 154.4375 L 568.804688 154.4375 L 568.804688 132.1875 L 604.390625 132.1875 L 604.390625 112.097656 L 568.804688 112.097656 L 568.804688 95.945312 L 632.25 95.945312 L 612.257812 75.855469 Z M 547.894531 75.855469 "/>
<path style=" stroke:none;fill-rule:nonzero;fill:rgb(18.493652%,21.266174%,28.930664%);fill-opacity:1;" d="M 663.03125 75.855469 L 663.03125 174.527344 L 683.945312 174.527344 L 683.945312 116.390625 L 734.582031 174.527344 L 747.367188 174.527344 L 747.367188 75.855469 L 726.453125 75.855469 L 726.453125 133.964844 L 675.984375 75.855469 Z M 663.03125 75.855469 "/>
<path style=" stroke:none;fill-rule:nonzero;fill:rgb(93.453979%,13.650513%,44.198608%);fill-opacity:1;" d="M 810.121094 95.945312 L 832.199219 95.945312 C 836.628906 95.945312 841.089844 96.558594 845.238281 98.164062 C 848.757812 99.527344 851.972656 101.464844 854.648438 104.140625 C 857.253906 106.738281 859.148438 109.824219 860.441406 113.261719 C 861.890625 117.109375 862.515625 121.171875 862.515625 125.273438 C 862.515625 129.351562 861.925781 133.402344 860.511719 137.238281 C 859.261719 140.636719 857.40625 143.691406 854.867188 146.277344 C 852.242188 148.949219 849.046875 150.867188 845.566406 152.214844 C 841.335938 153.859375 836.71875 154.4375 832.199219 154.4375 L 810.121094 154.4375 Z M 789.207031 75.855469 L 789.207031 174.527344 L 832.199219 174.527344 C 839.511719 174.527344 846.84375 173.507812 853.710938 170.914062 C 859.851562 168.597656 865.460938 165.21875 870.117188 160.558594 C 874.613281 156.070312 877.996094 150.769531 880.292969 144.851562 C 882.699219 138.644531 883.757812 132.078125 883.757812 125.4375 C 883.757812 118.726562 882.648438 112.113281 880.207031 105.851562 C 877.855469 99.828125 874.382812 94.453125 869.742188 89.941406 C 865.054688 85.382812 859.519531 81.972656 853.449219 79.578125 C 846.683594 76.910156 839.441406 75.855469 832.199219 75.855469 Z M 789.207031 75.855469 "/>
<path style=" stroke:none;fill-rule:nonzero;fill:rgb(93.453979%,13.650513%,44.198608%);fill-opacity:1;" d="M 918.511719 75.855469 L 918.511719 174.527344 L 1001.863281 174.527344 L 1001.863281 154.4375 L 939.425781 154.4375 L 939.425781 132.1875 L 975.007812 132.1875 L 975.007812 112.097656 L 939.425781 112.097656 L 939.425781 95.945312 L 1002.890625 95.945312 L 982.816406 75.855469 Z M 918.511719 75.855469 "/>
<path style=" stroke:none;fill-rule:nonzero;fill:rgb(93.453979%,13.650513%,44.198608%);fill-opacity:1;" d="M 1033.15625 75.855469 L 1033.15625 174.527344 L 1053.902344 174.527344 L 1053.902344 116.460938 L 1084.21875 161.648438 L 1114.535156 116.460938 L 1114.535156 174.527344 L 1135.285156 174.527344 L 1135.285156 75.855469 L 1117.652344 75.855469 L 1084.226562 126.210938 L 1050.960938 75.855469 Z M 1033.15625 75.855469 "/>
<g clip-path="url(#clip1)" clip-rule="nonzero">
<path style=" stroke:none;fill-rule:nonzero;fill:rgb(93.453979%,13.650513%,44.198608%);fill-opacity:1;" d="M 1306.261719 75.855469 L 1306.261719 174.527344 L 1327.175781 174.527344 L 1327.175781 116.390625 L 1377.8125 174.527344 L 1390.601562 174.527344 L 1390.601562 75.855469 L 1369.6875 75.855469 L 1369.6875 133.964844 L 1319.214844 75.855469 Z M 1306.261719 75.855469 "/>
</g>
<path style=" stroke:none;fill-rule:nonzero;fill:rgb(93.453979%,13.650513%,44.198608%);fill-opacity:1;" d="M 1220.441406 94.132812 C 1224.515625 94.132812 1228.5 94.84375 1232.253906 96.453125 C 1235.78125 97.96875 1238.929688 100.078125 1241.597656 102.839844 C 1244.335938 105.675781 1246.367188 109.015625 1247.808594 112.671875 C 1249.417969 116.746094 1250.097656 121.066406 1250.097656 125.4375 C 1250.097656 129.769531 1249.429688 134.066406 1247.820312 138.097656 C 1246.363281 141.734375 1244.324219 145.050781 1241.597656 147.871094 C 1238.929688 150.636719 1235.78125 152.746094 1232.253906 154.257812 C 1228.5 155.867188 1224.515625 156.578125 1220.441406 156.578125 C 1216.359375 156.578125 1212.359375 155.890625 1208.585938 154.324219 C 1205.054688 152.855469 1201.945312 150.753906 1199.3125 147.980469 C 1196.589844 145.117188 1194.539062 141.769531 1193.070312 138.097656 C 1191.457031 134.0625 1190.785156 129.769531 1190.785156 125.4375 C 1190.785156 121.070312 1191.464844 116.746094 1193.078125 112.671875 C 1194.519531 109.019531 1196.546875 105.671875 1199.285156 102.839844 C 1201.953125 100.074219 1205.109375 97.96875 1208.632812 96.453125 C 1212.386719 94.84375 1216.367188 94.132812 1220.441406 94.132812 M 1267.6875 104.972656 C 1265.203125 98.824219 1261.652344 93.253906 1256.984375 88.527344 C 1252.328125 83.804688 1246.8125 80.207031 1240.675781 77.703125 C 1234.226562 75.074219 1227.394531 73.878906 1220.441406 73.878906 C 1213.492188 73.878906 1206.660156 75.074219 1200.210938 77.703125 C 1194.082031 80.203125 1188.582031 83.800781 1183.957031 88.554688 C 1179.34375 93.289062 1175.835938 98.851562 1173.363281 104.972656 C 1170.726562 111.5 1169.542969 118.414062 1169.542969 125.4375 C 1169.542969 132.488281 1170.699219 139.453125 1173.371094 146 C 1175.847656 152.078125 1179.367188 157.585938 1183.980469 162.265625 C 1188.613281 166.960938 1194.113281 170.515625 1200.210938 173.007812 C 1206.660156 175.636719 1213.488281 176.832031 1220.445312 176.832031 C 1227.398438 176.832031 1234.226562 175.636719 1240.675781 173.007812 C 1246.785156 170.511719 1252.292969 166.960938 1256.964844 162.289062 C 1261.636719 157.617188 1265.191406 152.113281 1267.679688 146 C 1270.351562 139.453125 1271.503906 132.488281 1271.503906 125.4375 C 1271.503906 118.414062 1270.320312 111.5 1267.6875 104.972656 "/>
<g clip-path="url(#clip2)" clip-rule="nonzero">
<path style=" stroke:none;fill-rule:nonzero;fill:rgb(18.493652%,21.266174%,28.930664%);fill-opacity:1;" d="M 236.734375 11.21875 L 246.464844 0 L 246.464844 239.160156 L 236.734375 250.382812 Z M 236.734375 11.21875 "/>
</g>
<path style=" stroke:none;fill-rule:nonzero;fill:rgb(93.453979%,13.650513%,44.198608%);fill-opacity:1;" d="M 39.265625 108.957031 L 18.976562 108.957031 L 18.976562 70.273438 L 34.105469 89.339844 L 140.992188 89.339844 L 155.339844 70.542969 L 154.117188 109 L 57.878906 108.957031 L 57.992188 235.890625 L 116.6875 235.890625 L 116.6875 146.074219 L 97.710938 146.074219 L 97.710938 216.910156 L 76.972656 216.910156 L 76.972656 128.082031 L 174.648438 127.933594 L 173.996094 14.816406 L 131.605469 70.363281 L 43.273438 70.363281 L 0 15.828125 L 0 127.933594 L 39.265625 127.933594 Z M 39.265625 108.957031 "/>
</g>
</svg>
